G04 #@! TF.GenerationSoftware,KiCad,Pcbnew,5.1.5-52549c5~84~ubuntu18.04.1*
G04 #@! TF.CreationDate,2020-03-23T20:00:11-05:00*
G04 #@! TF.ProjectId,keyboard-cherry-mx-pcb-mounted,6b657962-6f61-4726-942d-636865727279,rev?*
G04 #@! TF.SameCoordinates,Original*
G04 #@! TF.FileFunction,Legend,Bot*
G04 #@! TF.FilePolarity,Positive*
%FSLAX46Y46*%
G04 Gerber Fmt 4.6, Leading zero omitted, Abs format (unit mm)*
G04 Created by KiCad (PCBNEW 5.1.5-52549c5~84~ubuntu18.04.1) date 2020-03-23 20:00:11*
%MOMM*%
%LPD*%
G04 APERTURE LIST*
%ADD10C,0.225000*%
%ADD11C,0.120000*%
%ADD12C,0.150000*%
G04 APERTURE END LIST*
D10*
X172203214Y-64410357D02*
X171988928Y-64481785D01*
X171917500Y-64553214D01*
X171846071Y-64696071D01*
X171846071Y-64910357D01*
X171917500Y-65053214D01*
X171988928Y-65124642D01*
X172131785Y-65196071D01*
X172703214Y-65196071D01*
X172703214Y-63696071D01*
X172203214Y-63696071D01*
X172060357Y-63767500D01*
X171988928Y-63838928D01*
X171917500Y-63981785D01*
X171917500Y-64124642D01*
X171988928Y-64267500D01*
X172060357Y-64338928D01*
X172203214Y-64410357D01*
X172703214Y-64410357D01*
X170988928Y-65196071D02*
X171131785Y-65124642D01*
X171203214Y-64981785D01*
X171203214Y-63696071D01*
X170203214Y-65196071D02*
X170346071Y-65124642D01*
X170417500Y-65053214D01*
X170488928Y-64910357D01*
X170488928Y-64481785D01*
X170417500Y-64338928D01*
X170346071Y-64267500D01*
X170203214Y-64196071D01*
X169988928Y-64196071D01*
X169846071Y-64267500D01*
X169774642Y-64338928D01*
X169703214Y-64481785D01*
X169703214Y-64910357D01*
X169774642Y-65053214D01*
X169846071Y-65124642D01*
X169988928Y-65196071D01*
X170203214Y-65196071D01*
X169131785Y-65124642D02*
X168988928Y-65196071D01*
X168703214Y-65196071D01*
X168560357Y-65124642D01*
X168488928Y-64981785D01*
X168488928Y-64910357D01*
X168560357Y-64767500D01*
X168703214Y-64696071D01*
X168917500Y-64696071D01*
X169060357Y-64624642D01*
X169131785Y-64481785D01*
X169131785Y-64410357D01*
X169060357Y-64267500D01*
X168917500Y-64196071D01*
X168703214Y-64196071D01*
X168560357Y-64267500D01*
X167917500Y-65124642D02*
X167774642Y-65196071D01*
X167488928Y-65196071D01*
X167346071Y-65124642D01*
X167274642Y-64981785D01*
X167274642Y-64910357D01*
X167346071Y-64767500D01*
X167488928Y-64696071D01*
X167703214Y-64696071D01*
X167846071Y-64624642D01*
X167917500Y-64481785D01*
X167917500Y-64410357D01*
X167846071Y-64267500D01*
X167703214Y-64196071D01*
X167488928Y-64196071D01*
X167346071Y-64267500D01*
X165988928Y-64196071D02*
X165988928Y-65196071D01*
X166631785Y-64196071D02*
X166631785Y-64981785D01*
X166560357Y-65124642D01*
X166417500Y-65196071D01*
X166203214Y-65196071D01*
X166060357Y-65124642D01*
X165988928Y-65053214D01*
X165274642Y-65196071D02*
X165274642Y-64196071D01*
X165274642Y-64338928D02*
X165203214Y-64267500D01*
X165060357Y-64196071D01*
X164846071Y-64196071D01*
X164703214Y-64267500D01*
X164631785Y-64410357D01*
X164631785Y-65196071D01*
X164631785Y-64410357D02*
X164560357Y-64267500D01*
X164417500Y-64196071D01*
X164203214Y-64196071D01*
X164060357Y-64267500D01*
X163988928Y-64410357D01*
X163988928Y-65196071D01*
X162274642Y-64196071D02*
X161917500Y-65196071D01*
X161560357Y-64196071D01*
X160203214Y-65196071D02*
X161060357Y-65196071D01*
X160631785Y-65196071D02*
X160631785Y-63696071D01*
X160774642Y-63910357D01*
X160917500Y-64053214D01*
X161060357Y-64124642D01*
X159560357Y-65053214D02*
X159488928Y-65124642D01*
X159560357Y-65196071D01*
X159631785Y-65124642D01*
X159560357Y-65053214D01*
X159560357Y-65196071D01*
X158560357Y-63696071D02*
X158417500Y-63696071D01*
X158274642Y-63767500D01*
X158203214Y-63838928D01*
X158131785Y-63981785D01*
X158060357Y-64267500D01*
X158060357Y-64624642D01*
X158131785Y-64910357D01*
X158203214Y-65053214D01*
X158274642Y-65124642D01*
X158417500Y-65196071D01*
X158560357Y-65196071D01*
X158703214Y-65124642D01*
X158774642Y-65053214D01*
X158846071Y-64910357D01*
X158917500Y-64624642D01*
X158917500Y-64267500D01*
X158846071Y-63981785D01*
X158774642Y-63838928D01*
X158703214Y-63767500D01*
X158560357Y-63696071D01*
X172131785Y-67599642D02*
X171917500Y-67671071D01*
X171560357Y-67671071D01*
X171417500Y-67599642D01*
X171346071Y-67528214D01*
X171274642Y-67385357D01*
X171274642Y-67242500D01*
X171346071Y-67099642D01*
X171417500Y-67028214D01*
X171560357Y-66956785D01*
X171846071Y-66885357D01*
X171988928Y-66813928D01*
X172060357Y-66742500D01*
X172131785Y-66599642D01*
X172131785Y-66456785D01*
X172060357Y-66313928D01*
X171988928Y-66242500D01*
X171846071Y-66171071D01*
X171488928Y-66171071D01*
X171274642Y-66242500D01*
X170631785Y-66671071D02*
X170631785Y-68171071D01*
X170631785Y-66742500D02*
X170488928Y-66671071D01*
X170203214Y-66671071D01*
X170060357Y-66742500D01*
X169988928Y-66813928D01*
X169917500Y-66956785D01*
X169917500Y-67385357D01*
X169988928Y-67528214D01*
X170060357Y-67599642D01*
X170203214Y-67671071D01*
X170488928Y-67671071D01*
X170631785Y-67599642D01*
X169274642Y-67671071D02*
X169274642Y-66671071D01*
X169274642Y-66956785D02*
X169203214Y-66813928D01*
X169131785Y-66742500D01*
X168988928Y-66671071D01*
X168846071Y-66671071D01*
X168346071Y-67671071D02*
X168346071Y-66671071D01*
X168346071Y-66171071D02*
X168417500Y-66242500D01*
X168346071Y-66313928D01*
X168274642Y-66242500D01*
X168346071Y-66171071D01*
X168346071Y-66313928D01*
X167631785Y-66671071D02*
X167631785Y-67671071D01*
X167631785Y-66813928D02*
X167560357Y-66742500D01*
X167417500Y-66671071D01*
X167203214Y-66671071D01*
X167060357Y-66742500D01*
X166988928Y-66885357D01*
X166988928Y-67671071D01*
X165631785Y-66671071D02*
X165631785Y-67885357D01*
X165703214Y-68028214D01*
X165774642Y-68099642D01*
X165917500Y-68171071D01*
X166131785Y-68171071D01*
X166274642Y-68099642D01*
X165631785Y-67599642D02*
X165774642Y-67671071D01*
X166060357Y-67671071D01*
X166203214Y-67599642D01*
X166274642Y-67528214D01*
X166346071Y-67385357D01*
X166346071Y-66956785D01*
X166274642Y-66813928D01*
X166203214Y-66742500D01*
X166060357Y-66671071D01*
X165774642Y-66671071D01*
X165631785Y-66742500D01*
X163846071Y-66313928D02*
X163774642Y-66242500D01*
X163631785Y-66171071D01*
X163274642Y-66171071D01*
X163131785Y-66242500D01*
X163060357Y-66313928D01*
X162988928Y-66456785D01*
X162988928Y-66599642D01*
X163060357Y-66813928D01*
X163917500Y-67671071D01*
X162988928Y-67671071D01*
X162060357Y-66171071D02*
X161917500Y-66171071D01*
X161774642Y-66242500D01*
X161703214Y-66313928D01*
X161631785Y-66456785D01*
X161560357Y-66742500D01*
X161560357Y-67099642D01*
X161631785Y-67385357D01*
X161703214Y-67528214D01*
X161774642Y-67599642D01*
X161917500Y-67671071D01*
X162060357Y-67671071D01*
X162203214Y-67599642D01*
X162274642Y-67528214D01*
X162346071Y-67385357D01*
X162417500Y-67099642D01*
X162417500Y-66742500D01*
X162346071Y-66456785D01*
X162274642Y-66313928D01*
X162203214Y-66242500D01*
X162060357Y-66171071D01*
X160988928Y-66313928D02*
X160917500Y-66242500D01*
X160774642Y-66171071D01*
X160417500Y-66171071D01*
X160274642Y-66242500D01*
X160203214Y-66313928D01*
X160131785Y-66456785D01*
X160131785Y-66599642D01*
X160203214Y-66813928D01*
X161060357Y-67671071D01*
X160131785Y-67671071D01*
X159203214Y-66171071D02*
X159060357Y-66171071D01*
X158917500Y-66242500D01*
X158846071Y-66313928D01*
X158774642Y-66456785D01*
X158703214Y-66742500D01*
X158703214Y-67099642D01*
X158774642Y-67385357D01*
X158846071Y-67528214D01*
X158917500Y-67599642D01*
X159060357Y-67671071D01*
X159203214Y-67671071D01*
X159346071Y-67599642D01*
X159417500Y-67528214D01*
X159488928Y-67385357D01*
X159560357Y-67099642D01*
X159560357Y-66742500D01*
X159488928Y-66456785D01*
X159417500Y-66313928D01*
X159346071Y-66242500D01*
X159203214Y-66171071D01*
X170381785Y-70074642D02*
X170167500Y-70146071D01*
X169810357Y-70146071D01*
X169667500Y-70074642D01*
X169596071Y-70003214D01*
X169524642Y-69860357D01*
X169524642Y-69717500D01*
X169596071Y-69574642D01*
X169667500Y-69503214D01*
X169810357Y-69431785D01*
X170096071Y-69360357D01*
X170238928Y-69288928D01*
X170310357Y-69217500D01*
X170381785Y-69074642D01*
X170381785Y-68931785D01*
X170310357Y-68788928D01*
X170238928Y-68717500D01*
X170096071Y-68646071D01*
X169738928Y-68646071D01*
X169524642Y-68717500D01*
X168881785Y-70146071D02*
X168881785Y-69146071D01*
X168881785Y-68646071D02*
X168953214Y-68717500D01*
X168881785Y-68788928D01*
X168810357Y-68717500D01*
X168881785Y-68646071D01*
X168881785Y-68788928D01*
X168167500Y-69146071D02*
X168167500Y-70431785D01*
X168238928Y-70574642D01*
X168381785Y-70646071D01*
X168453214Y-70646071D01*
X168167500Y-68646071D02*
X168238928Y-68717500D01*
X168167500Y-68788928D01*
X168096071Y-68717500D01*
X168167500Y-68646071D01*
X168167500Y-68788928D01*
X167453214Y-70146071D02*
X167453214Y-69146071D01*
X167453214Y-68646071D02*
X167524642Y-68717500D01*
X167453214Y-68788928D01*
X167381785Y-68717500D01*
X167453214Y-68646071D01*
X167453214Y-68788928D01*
X166738928Y-69146071D02*
X166738928Y-70146071D01*
X166738928Y-69288928D02*
X166667500Y-69217500D01*
X166524642Y-69146071D01*
X166310357Y-69146071D01*
X166167500Y-69217500D01*
X166096071Y-69360357D01*
X166096071Y-70146071D01*
X164381785Y-68646071D02*
X164024642Y-70146071D01*
X163738928Y-69074642D01*
X163453214Y-70146071D01*
X163096071Y-68646071D01*
X162310357Y-70146071D02*
X162453214Y-70074642D01*
X162524642Y-70003214D01*
X162596071Y-69860357D01*
X162596071Y-69431785D01*
X162524642Y-69288928D01*
X162453214Y-69217500D01*
X162310357Y-69146071D01*
X162096071Y-69146071D01*
X161953214Y-69217500D01*
X161881785Y-69288928D01*
X161810357Y-69431785D01*
X161810357Y-69860357D01*
X161881785Y-70003214D01*
X161953214Y-70074642D01*
X162096071Y-70146071D01*
X162310357Y-70146071D01*
X160953214Y-70146071D02*
X161096071Y-70074642D01*
X161167500Y-70003214D01*
X161238928Y-69860357D01*
X161238928Y-69431785D01*
X161167500Y-69288928D01*
X161096071Y-69217500D01*
X160953214Y-69146071D01*
X160738928Y-69146071D01*
X160596071Y-69217500D01*
X160524642Y-69288928D01*
X160453214Y-69431785D01*
X160453214Y-69860357D01*
X160524642Y-70003214D01*
X160596071Y-70074642D01*
X160738928Y-70146071D01*
X160953214Y-70146071D01*
D11*
X42875727Y-74620522D02*
X42645522Y-74850727D01*
X42154478Y-73899273D02*
X41924273Y-74129478D01*
X48424273Y-67629478D02*
X48654478Y-67399273D01*
X49145522Y-68350727D02*
X49375727Y-68120522D01*
X45965522Y-60674773D02*
X46195727Y-60904978D01*
X45244273Y-61396022D02*
X45474478Y-61626227D01*
X28265978Y-68928727D02*
X28035773Y-68698522D01*
X28987227Y-68207478D02*
X28757022Y-67977273D01*
X38875727Y-55620522D02*
X38645522Y-55850727D01*
X38154478Y-54899273D02*
X37924273Y-55129478D01*
X32036273Y-73033478D02*
X32266478Y-72803273D01*
X32757522Y-73754727D02*
X32987727Y-73524522D01*
X48626920Y-70566386D02*
X45091386Y-74101920D01*
X46208614Y-68148080D02*
X42673080Y-71683614D01*
X43702380Y-65441751D02*
X44649903Y-66389275D01*
X44374131Y-64770000D02*
X43702380Y-65441751D01*
X43702380Y-64098249D02*
X44374131Y-64770000D01*
X37147500Y-57543369D02*
X36475749Y-58215120D01*
X37819251Y-58215120D02*
X37147500Y-57543369D01*
X37147500Y-71996631D02*
X37819251Y-71324880D01*
X36475749Y-71324880D02*
X37147500Y-71996631D01*
X29920869Y-64770000D02*
X30592620Y-64098249D01*
X30592620Y-65441751D02*
X29920869Y-64770000D01*
X121222500Y-46225000D02*
X121222500Y-46525000D01*
X124522500Y-46225000D02*
X121222500Y-46225000D01*
X124522500Y-46525000D02*
X124522500Y-46225000D01*
X121222500Y-49025000D02*
X121222500Y-48725000D01*
X124522500Y-49025000D02*
X121222500Y-49025000D01*
X124522500Y-48725000D02*
X124522500Y-49025000D01*
X38025000Y-47248578D02*
X38025000Y-46731422D01*
X39445000Y-47248578D02*
X39445000Y-46731422D01*
X34850000Y-47248578D02*
X34850000Y-46731422D01*
X36270000Y-47248578D02*
X36270000Y-46731422D01*
X81010000Y-54755000D02*
X81010000Y-50655000D01*
X81010000Y-50655000D02*
X79010000Y-50655000D01*
X79010000Y-50655000D02*
X79010000Y-54755000D01*
X79010000Y-54755000D02*
X81010000Y-54755000D01*
X78810000Y-54005000D02*
X78510000Y-54305000D01*
X78510000Y-54305000D02*
X78510000Y-53705000D01*
X78810000Y-54005000D02*
X78510000Y-53705000D01*
X248947500Y-160925000D02*
X245047500Y-160925000D01*
X248947500Y-162925000D02*
X245047500Y-162925000D01*
X248947500Y-160925000D02*
X248947500Y-162925000D01*
X220372500Y-160925000D02*
X216472500Y-160925000D01*
X220372500Y-162925000D02*
X216472500Y-162925000D01*
X220372500Y-160925000D02*
X220372500Y-162925000D01*
X122613922Y-50090000D02*
X123131078Y-50090000D01*
X122613922Y-51510000D02*
X123131078Y-51510000D01*
X25110000Y-56150000D02*
X21210000Y-56150000D01*
X25110000Y-58150000D02*
X21210000Y-58150000D01*
X25110000Y-56150000D02*
X25110000Y-58150000D01*
X196560000Y-56150000D02*
X192660000Y-56150000D01*
X196560000Y-58150000D02*
X192660000Y-58150000D01*
X196560000Y-56150000D02*
X196560000Y-58150000D01*
X53685000Y-56150000D02*
X53685000Y-58150000D01*
X53685000Y-58150000D02*
X49785000Y-58150000D01*
X53685000Y-56150000D02*
X49785000Y-56150000D01*
X225135000Y-56150000D02*
X225135000Y-58150000D01*
X225135000Y-58150000D02*
X221235000Y-58150000D01*
X225135000Y-56150000D02*
X221235000Y-56150000D01*
X72735000Y-56150000D02*
X72735000Y-58150000D01*
X72735000Y-58150000D02*
X68835000Y-58150000D01*
X72735000Y-56150000D02*
X68835000Y-56150000D01*
X244185000Y-56150000D02*
X244185000Y-58150000D01*
X244185000Y-58150000D02*
X240285000Y-58150000D01*
X244185000Y-56150000D02*
X240285000Y-56150000D01*
X91785000Y-56150000D02*
X87885000Y-56150000D01*
X91785000Y-58150000D02*
X87885000Y-58150000D01*
X91785000Y-56150000D02*
X91785000Y-58150000D01*
X263235000Y-56150000D02*
X259335000Y-56150000D01*
X263235000Y-58150000D02*
X259335000Y-58150000D01*
X263235000Y-56150000D02*
X263235000Y-58150000D01*
X110835000Y-56150000D02*
X106935000Y-56150000D01*
X110835000Y-58150000D02*
X106935000Y-58150000D01*
X110835000Y-56150000D02*
X110835000Y-58150000D01*
X282285000Y-56150000D02*
X278385000Y-56150000D01*
X282285000Y-58150000D02*
X278385000Y-58150000D01*
X282285000Y-56150000D02*
X282285000Y-58150000D01*
X139410000Y-56150000D02*
X139410000Y-58150000D01*
X139410000Y-58150000D02*
X135510000Y-58150000D01*
X139410000Y-56150000D02*
X135510000Y-56150000D01*
X310860000Y-56150000D02*
X310860000Y-58150000D01*
X310860000Y-58150000D02*
X306960000Y-58150000D01*
X310860000Y-56150000D02*
X306960000Y-56150000D01*
X158460000Y-56150000D02*
X158460000Y-58150000D01*
X158460000Y-58150000D02*
X154560000Y-58150000D01*
X158460000Y-56150000D02*
X154560000Y-56150000D01*
X177510000Y-56150000D02*
X173610000Y-56150000D01*
X177510000Y-58150000D02*
X173610000Y-58150000D01*
X177510000Y-56150000D02*
X177510000Y-58150000D01*
X25110000Y-84725000D02*
X25110000Y-86725000D01*
X25110000Y-86725000D02*
X21210000Y-86725000D01*
X25110000Y-84725000D02*
X21210000Y-84725000D01*
X177510000Y-84725000D02*
X173610000Y-84725000D01*
X177510000Y-86725000D02*
X173610000Y-86725000D01*
X177510000Y-84725000D02*
X177510000Y-86725000D01*
X44160000Y-84725000D02*
X44160000Y-86725000D01*
X44160000Y-86725000D02*
X40260000Y-86725000D01*
X44160000Y-84725000D02*
X40260000Y-84725000D01*
X196560000Y-84725000D02*
X196560000Y-86725000D01*
X196560000Y-86725000D02*
X192660000Y-86725000D01*
X196560000Y-84725000D02*
X192660000Y-84725000D01*
X63210000Y-84725000D02*
X63210000Y-86725000D01*
X63210000Y-86725000D02*
X59310000Y-86725000D01*
X63210000Y-84725000D02*
X59310000Y-84725000D01*
X215610000Y-84725000D02*
X215610000Y-86725000D01*
X215610000Y-86725000D02*
X211710000Y-86725000D01*
X215610000Y-84725000D02*
X211710000Y-84725000D01*
X82260000Y-84725000D02*
X82260000Y-86725000D01*
X82260000Y-86725000D02*
X78360000Y-86725000D01*
X82260000Y-84725000D02*
X78360000Y-84725000D01*
X234660000Y-84725000D02*
X230760000Y-84725000D01*
X234660000Y-86725000D02*
X230760000Y-86725000D01*
X234660000Y-84725000D02*
X234660000Y-86725000D01*
X101310000Y-84725000D02*
X97410000Y-84725000D01*
X101310000Y-86725000D02*
X97410000Y-86725000D01*
X101310000Y-84725000D02*
X101310000Y-86725000D01*
X253710000Y-84725000D02*
X249810000Y-84725000D01*
X253710000Y-86725000D02*
X249810000Y-86725000D01*
X253710000Y-84725000D02*
X253710000Y-86725000D01*
X120360000Y-84725000D02*
X120360000Y-86725000D01*
X120360000Y-86725000D02*
X116460000Y-86725000D01*
X120360000Y-84725000D02*
X116460000Y-84725000D01*
X282285000Y-84725000D02*
X282285000Y-86725000D01*
X282285000Y-86725000D02*
X278385000Y-86725000D01*
X282285000Y-84725000D02*
X278385000Y-84725000D01*
X139410000Y-84725000D02*
X139410000Y-86725000D01*
X139410000Y-86725000D02*
X135510000Y-86725000D01*
X139410000Y-84725000D02*
X135510000Y-84725000D01*
X310860000Y-84725000D02*
X306960000Y-84725000D01*
X310860000Y-86725000D02*
X306960000Y-86725000D01*
X310860000Y-84725000D02*
X310860000Y-86725000D01*
X158460000Y-84725000D02*
X154560000Y-84725000D01*
X158460000Y-86725000D02*
X154560000Y-86725000D01*
X158460000Y-84725000D02*
X158460000Y-86725000D01*
X27491250Y-160925000D02*
X23591250Y-160925000D01*
X27491250Y-162925000D02*
X23591250Y-162925000D01*
X27491250Y-160925000D02*
X27491250Y-162925000D01*
X51303750Y-160925000D02*
X51303750Y-162925000D01*
X51303750Y-162925000D02*
X47403750Y-162925000D01*
X51303750Y-160925000D02*
X47403750Y-160925000D01*
X75116250Y-160925000D02*
X75116250Y-162925000D01*
X75116250Y-162925000D02*
X71216250Y-162925000D01*
X75116250Y-160925000D02*
X71216250Y-160925000D01*
X146553750Y-160925000D02*
X146553750Y-162925000D01*
X146553750Y-162925000D02*
X142653750Y-162925000D01*
X146553750Y-160925000D02*
X142653750Y-160925000D01*
X272760000Y-160925000D02*
X272760000Y-162925000D01*
X272760000Y-162925000D02*
X268860000Y-162925000D01*
X272760000Y-160925000D02*
X268860000Y-160925000D01*
X291810000Y-160925000D02*
X287910000Y-160925000D01*
X291810000Y-162925000D02*
X287910000Y-162925000D01*
X291810000Y-160925000D02*
X291810000Y-162925000D01*
X310860000Y-160925000D02*
X306960000Y-160925000D01*
X310860000Y-162925000D02*
X306960000Y-162925000D01*
X310860000Y-160925000D02*
X310860000Y-162925000D01*
X37016250Y-141875000D02*
X37016250Y-143875000D01*
X37016250Y-143875000D02*
X33116250Y-143875000D01*
X37016250Y-141875000D02*
X33116250Y-141875000D01*
X201322500Y-141875000D02*
X201322500Y-143875000D01*
X201322500Y-143875000D02*
X197422500Y-143875000D01*
X201322500Y-141875000D02*
X197422500Y-141875000D01*
X67972500Y-141875000D02*
X64072500Y-141875000D01*
X67972500Y-143875000D02*
X64072500Y-143875000D01*
X67972500Y-141875000D02*
X67972500Y-143875000D01*
X220372500Y-141875000D02*
X220372500Y-143875000D01*
X220372500Y-143875000D02*
X216472500Y-143875000D01*
X220372500Y-141875000D02*
X216472500Y-141875000D01*
X87022500Y-141875000D02*
X83122500Y-141875000D01*
X87022500Y-143875000D02*
X83122500Y-143875000D01*
X87022500Y-141875000D02*
X87022500Y-143875000D01*
X239422500Y-141875000D02*
X235522500Y-141875000D01*
X239422500Y-143875000D02*
X235522500Y-143875000D01*
X239422500Y-141875000D02*
X239422500Y-143875000D01*
X106072500Y-141875000D02*
X102172500Y-141875000D01*
X106072500Y-143875000D02*
X102172500Y-143875000D01*
X106072500Y-141875000D02*
X106072500Y-143875000D01*
X265616250Y-141875000D02*
X265616250Y-143875000D01*
X265616250Y-143875000D02*
X261716250Y-143875000D01*
X265616250Y-141875000D02*
X261716250Y-141875000D01*
X125122500Y-141875000D02*
X125122500Y-143875000D01*
X125122500Y-143875000D02*
X121222500Y-143875000D01*
X125122500Y-141875000D02*
X121222500Y-141875000D01*
X291810000Y-141875000D02*
X291810000Y-143875000D01*
X291810000Y-143875000D02*
X287910000Y-143875000D01*
X291810000Y-141875000D02*
X287910000Y-141875000D01*
X144172500Y-141875000D02*
X144172500Y-143875000D01*
X144172500Y-143875000D02*
X140272500Y-143875000D01*
X144172500Y-141875000D02*
X140272500Y-141875000D01*
X310860000Y-141875000D02*
X306960000Y-141875000D01*
X310860000Y-143875000D02*
X306960000Y-143875000D01*
X310860000Y-141875000D02*
X310860000Y-143875000D01*
X163222500Y-141875000D02*
X159322500Y-141875000D01*
X163222500Y-143875000D02*
X159322500Y-143875000D01*
X163222500Y-141875000D02*
X163222500Y-143875000D01*
X182272500Y-141875000D02*
X178372500Y-141875000D01*
X182272500Y-143875000D02*
X178372500Y-143875000D01*
X182272500Y-141875000D02*
X182272500Y-143875000D01*
X32253750Y-122825000D02*
X32253750Y-124825000D01*
X32253750Y-124825000D02*
X28353750Y-124825000D01*
X32253750Y-122825000D02*
X28353750Y-122825000D01*
X191797500Y-122825000D02*
X187897500Y-122825000D01*
X191797500Y-124825000D02*
X187897500Y-124825000D01*
X191797500Y-122825000D02*
X191797500Y-124825000D01*
X58447500Y-122825000D02*
X58447500Y-124825000D01*
X58447500Y-124825000D02*
X54547500Y-124825000D01*
X58447500Y-122825000D02*
X54547500Y-122825000D01*
X210847500Y-122825000D02*
X206947500Y-122825000D01*
X210847500Y-124825000D02*
X206947500Y-124825000D01*
X210847500Y-122825000D02*
X210847500Y-124825000D01*
X77497500Y-122825000D02*
X73597500Y-122825000D01*
X77497500Y-124825000D02*
X73597500Y-124825000D01*
X77497500Y-122825000D02*
X77497500Y-124825000D01*
X229897500Y-122825000D02*
X229897500Y-124825000D01*
X229897500Y-124825000D02*
X225997500Y-124825000D01*
X229897500Y-122825000D02*
X225997500Y-122825000D01*
X96547500Y-122825000D02*
X92647500Y-122825000D01*
X96547500Y-124825000D02*
X92647500Y-124825000D01*
X96547500Y-122825000D02*
X96547500Y-124825000D01*
X248947500Y-122825000D02*
X245047500Y-122825000D01*
X248947500Y-124825000D02*
X245047500Y-124825000D01*
X248947500Y-122825000D02*
X248947500Y-124825000D01*
X115597500Y-122825000D02*
X115597500Y-124825000D01*
X115597500Y-124825000D02*
X111697500Y-124825000D01*
X115597500Y-122825000D02*
X111697500Y-122825000D01*
X279903750Y-122825000D02*
X279903750Y-124825000D01*
X279903750Y-124825000D02*
X276003750Y-124825000D01*
X279903750Y-122825000D02*
X276003750Y-122825000D01*
X134647500Y-122825000D02*
X130747500Y-122825000D01*
X134647500Y-124825000D02*
X130747500Y-124825000D01*
X134647500Y-122825000D02*
X134647500Y-124825000D01*
X310860000Y-122190000D02*
X310860000Y-124190000D01*
X310860000Y-124190000D02*
X306960000Y-124190000D01*
X310860000Y-122190000D02*
X306960000Y-122190000D01*
X153697500Y-122825000D02*
X153697500Y-124825000D01*
X153697500Y-124825000D02*
X149797500Y-124825000D01*
X153697500Y-122825000D02*
X149797500Y-122825000D01*
X172747500Y-122825000D02*
X168847500Y-122825000D01*
X172747500Y-124825000D02*
X168847500Y-124825000D01*
X172747500Y-122825000D02*
X172747500Y-124825000D01*
X29872500Y-103775000D02*
X25972500Y-103775000D01*
X29872500Y-105775000D02*
X25972500Y-105775000D01*
X29872500Y-103775000D02*
X29872500Y-105775000D01*
X187035000Y-103775000D02*
X187035000Y-105775000D01*
X187035000Y-105775000D02*
X183135000Y-105775000D01*
X187035000Y-103775000D02*
X183135000Y-103775000D01*
X53685000Y-103775000D02*
X53685000Y-105775000D01*
X53685000Y-105775000D02*
X49785000Y-105775000D01*
X53685000Y-103775000D02*
X49785000Y-103775000D01*
X206085000Y-103775000D02*
X202185000Y-103775000D01*
X206085000Y-105775000D02*
X202185000Y-105775000D01*
X206085000Y-103775000D02*
X206085000Y-105775000D01*
X72735000Y-103775000D02*
X68835000Y-103775000D01*
X72735000Y-105775000D02*
X68835000Y-105775000D01*
X72735000Y-103775000D02*
X72735000Y-105775000D01*
X225135000Y-103775000D02*
X225135000Y-105775000D01*
X225135000Y-105775000D02*
X221235000Y-105775000D01*
X225135000Y-103775000D02*
X221235000Y-103775000D01*
X91785000Y-103775000D02*
X87885000Y-103775000D01*
X91785000Y-105775000D02*
X87885000Y-105775000D01*
X91785000Y-103775000D02*
X91785000Y-105775000D01*
X244185000Y-103775000D02*
X240285000Y-103775000D01*
X244185000Y-105775000D02*
X240285000Y-105775000D01*
X244185000Y-103775000D02*
X244185000Y-105775000D01*
X110835000Y-103775000D02*
X106935000Y-103775000D01*
X110835000Y-105775000D02*
X106935000Y-105775000D01*
X110835000Y-103775000D02*
X110835000Y-105775000D01*
X263235000Y-103775000D02*
X263235000Y-105775000D01*
X263235000Y-105775000D02*
X259335000Y-105775000D01*
X263235000Y-103775000D02*
X259335000Y-103775000D01*
X129885000Y-103775000D02*
X125985000Y-103775000D01*
X129885000Y-105775000D02*
X125985000Y-105775000D01*
X129885000Y-103775000D02*
X129885000Y-105775000D01*
X287047500Y-103775000D02*
X283147500Y-103775000D01*
X287047500Y-105775000D02*
X283147500Y-105775000D01*
X287047500Y-103775000D02*
X287047500Y-105775000D01*
X148935000Y-103775000D02*
X145035000Y-103775000D01*
X148935000Y-105775000D02*
X145035000Y-105775000D01*
X148935000Y-103775000D02*
X148935000Y-105775000D01*
X310860000Y-103775000D02*
X310860000Y-105775000D01*
X310860000Y-105775000D02*
X306960000Y-105775000D01*
X310860000Y-103775000D02*
X306960000Y-103775000D01*
X167985000Y-103775000D02*
X164085000Y-103775000D01*
X167985000Y-105775000D02*
X164085000Y-105775000D01*
X167985000Y-103775000D02*
X167985000Y-105775000D01*
X62230000Y-49530000D02*
X61595000Y-49530000D01*
X62230000Y-50165000D02*
X62230000Y-49530000D01*
X165025000Y-49906422D02*
X165025000Y-50423578D01*
X166445000Y-49906422D02*
X166445000Y-50423578D01*
X164775000Y-46720000D02*
X164775000Y-44035000D01*
X164775000Y-44035000D02*
X166695000Y-44035000D01*
X166695000Y-44035000D02*
X166695000Y-46720000D01*
X36705000Y-75092779D02*
X36705000Y-74767221D01*
X35685000Y-75092779D02*
X35685000Y-74767221D01*
X37590000Y-75092779D02*
X37590000Y-74767221D01*
X38610000Y-75092779D02*
X38610000Y-74767221D01*
D12*
X44202114Y-69003679D02*
X44538832Y-69340397D01*
X44067427Y-68397588D02*
X44202114Y-69003679D01*
X43596023Y-68868992D01*
X43697038Y-70182190D02*
X44101099Y-69778129D01*
X43899068Y-69980160D02*
X43191962Y-69273053D01*
X43360320Y-69306725D01*
X43495007Y-69306725D01*
X43596023Y-69273053D01*
X43306063Y-59688932D02*
X42733643Y-60261352D01*
X42632628Y-60295024D01*
X42565284Y-60295024D01*
X42464269Y-60261352D01*
X42329582Y-60126665D01*
X42295910Y-60025650D01*
X42295910Y-59958306D01*
X42329582Y-59857291D01*
X42902002Y-59284871D01*
X41487788Y-59284871D02*
X41891849Y-59688932D01*
X41689819Y-59486902D02*
X42396925Y-58779795D01*
X42363254Y-58948154D01*
X42363254Y-59082841D01*
X42396925Y-59183856D01*
X124205833Y-45529761D02*
X124062976Y-45577380D01*
X123824880Y-45577380D01*
X123729642Y-45529761D01*
X123682023Y-45482142D01*
X123634404Y-45386904D01*
X123634404Y-45291666D01*
X123682023Y-45196428D01*
X123729642Y-45148809D01*
X123824880Y-45101190D01*
X124015357Y-45053571D01*
X124110595Y-45005952D01*
X124158214Y-44958333D01*
X124205833Y-44863095D01*
X124205833Y-44767857D01*
X124158214Y-44672619D01*
X124110595Y-44625000D01*
X124015357Y-44577380D01*
X123777261Y-44577380D01*
X123634404Y-44625000D01*
X123301071Y-44577380D02*
X123062976Y-45577380D01*
X122872500Y-44863095D01*
X122682023Y-45577380D01*
X122443928Y-44577380D01*
X121539166Y-45577380D02*
X122110595Y-45577380D01*
X121824880Y-45577380D02*
X121824880Y-44577380D01*
X121920119Y-44720238D01*
X122015357Y-44815476D01*
X122110595Y-44863095D01*
X40837380Y-46347142D02*
X40361190Y-46013809D01*
X40837380Y-45775714D02*
X39837380Y-45775714D01*
X39837380Y-46156666D01*
X39885000Y-46251904D01*
X39932619Y-46299523D01*
X40027857Y-46347142D01*
X40170714Y-46347142D01*
X40265952Y-46299523D01*
X40313571Y-46251904D01*
X40361190Y-46156666D01*
X40361190Y-45775714D01*
X40837380Y-47299523D02*
X40837380Y-46728095D01*
X40837380Y-47013809D02*
X39837380Y-47013809D01*
X39980238Y-46918571D01*
X40075476Y-46823333D01*
X40123095Y-46728095D01*
X40170714Y-48156666D02*
X40837380Y-48156666D01*
X39789761Y-47918571D02*
X40504047Y-47680476D01*
X40504047Y-48299523D01*
X34488380Y-46347142D02*
X34012190Y-46013809D01*
X34488380Y-45775714D02*
X33488380Y-45775714D01*
X33488380Y-46156666D01*
X33536000Y-46251904D01*
X33583619Y-46299523D01*
X33678857Y-46347142D01*
X33821714Y-46347142D01*
X33916952Y-46299523D01*
X33964571Y-46251904D01*
X34012190Y-46156666D01*
X34012190Y-45775714D01*
X34488380Y-47299523D02*
X34488380Y-46728095D01*
X34488380Y-47013809D02*
X33488380Y-47013809D01*
X33631238Y-46918571D01*
X33726476Y-46823333D01*
X33774095Y-46728095D01*
X33488380Y-47632857D02*
X33488380Y-48251904D01*
X33869333Y-47918571D01*
X33869333Y-48061428D01*
X33916952Y-48156666D01*
X33964571Y-48204285D01*
X34059809Y-48251904D01*
X34297904Y-48251904D01*
X34393142Y-48204285D01*
X34440761Y-48156666D01*
X34488380Y-48061428D01*
X34488380Y-47775714D01*
X34440761Y-47680476D01*
X34393142Y-47632857D01*
X80843333Y-48982380D02*
X80843333Y-49696666D01*
X80890952Y-49839523D01*
X80986190Y-49934761D01*
X81129047Y-49982380D01*
X81224285Y-49982380D01*
X80367142Y-49982380D02*
X80367142Y-48982380D01*
X79986190Y-48982380D01*
X79890952Y-49030000D01*
X79843333Y-49077619D01*
X79795714Y-49172857D01*
X79795714Y-49315714D01*
X79843333Y-49410952D01*
X79890952Y-49458571D01*
X79986190Y-49506190D01*
X80367142Y-49506190D01*
X78843333Y-49982380D02*
X79414761Y-49982380D01*
X79129047Y-49982380D02*
X79129047Y-48982380D01*
X79224285Y-49125238D01*
X79319523Y-49220476D01*
X79414761Y-49268095D01*
X247911785Y-164282380D02*
X247911785Y-163282380D01*
X247673690Y-163282380D01*
X247530833Y-163330000D01*
X247435595Y-163425238D01*
X247387976Y-163520476D01*
X247340357Y-163710952D01*
X247340357Y-163853809D01*
X247387976Y-164044285D01*
X247435595Y-164139523D01*
X247530833Y-164234761D01*
X247673690Y-164282380D01*
X247911785Y-164282380D01*
X247007023Y-163282380D02*
X246387976Y-163282380D01*
X246721309Y-163663333D01*
X246578452Y-163663333D01*
X246483214Y-163710952D01*
X246435595Y-163758571D01*
X246387976Y-163853809D01*
X246387976Y-164091904D01*
X246435595Y-164187142D01*
X246483214Y-164234761D01*
X246578452Y-164282380D01*
X246864166Y-164282380D01*
X246959404Y-164234761D01*
X247007023Y-164187142D01*
X245483214Y-163282380D02*
X245959404Y-163282380D01*
X246007023Y-163758571D01*
X245959404Y-163710952D01*
X245864166Y-163663333D01*
X245626071Y-163663333D01*
X245530833Y-163710952D01*
X245483214Y-163758571D01*
X245435595Y-163853809D01*
X245435595Y-164091904D01*
X245483214Y-164187142D01*
X245530833Y-164234761D01*
X245626071Y-164282380D01*
X245864166Y-164282380D01*
X245959404Y-164234761D01*
X246007023Y-164187142D01*
X219336785Y-164282380D02*
X219336785Y-163282380D01*
X219098690Y-163282380D01*
X218955833Y-163330000D01*
X218860595Y-163425238D01*
X218812976Y-163520476D01*
X218765357Y-163710952D01*
X218765357Y-163853809D01*
X218812976Y-164044285D01*
X218860595Y-164139523D01*
X218955833Y-164234761D01*
X219098690Y-164282380D01*
X219336785Y-164282380D01*
X218432023Y-163282380D02*
X217812976Y-163282380D01*
X218146309Y-163663333D01*
X218003452Y-163663333D01*
X217908214Y-163710952D01*
X217860595Y-163758571D01*
X217812976Y-163853809D01*
X217812976Y-164091904D01*
X217860595Y-164187142D01*
X217908214Y-164234761D01*
X218003452Y-164282380D01*
X218289166Y-164282380D01*
X218384404Y-164234761D01*
X218432023Y-164187142D01*
X216955833Y-163615714D02*
X216955833Y-164282380D01*
X217193928Y-163234761D02*
X217432023Y-163949047D01*
X216812976Y-163949047D01*
X123039166Y-52807142D02*
X123086785Y-52854761D01*
X123229642Y-52902380D01*
X123324880Y-52902380D01*
X123467738Y-52854761D01*
X123562976Y-52759523D01*
X123610595Y-52664285D01*
X123658214Y-52473809D01*
X123658214Y-52330952D01*
X123610595Y-52140476D01*
X123562976Y-52045238D01*
X123467738Y-51950000D01*
X123324880Y-51902380D01*
X123229642Y-51902380D01*
X123086785Y-51950000D01*
X123039166Y-51997619D01*
X122562976Y-52902380D02*
X122372500Y-52902380D01*
X122277261Y-52854761D01*
X122229642Y-52807142D01*
X122134404Y-52664285D01*
X122086785Y-52473809D01*
X122086785Y-52092857D01*
X122134404Y-51997619D01*
X122182023Y-51950000D01*
X122277261Y-51902380D01*
X122467738Y-51902380D01*
X122562976Y-51950000D01*
X122610595Y-51997619D01*
X122658214Y-52092857D01*
X122658214Y-52330952D01*
X122610595Y-52426190D01*
X122562976Y-52473809D01*
X122467738Y-52521428D01*
X122277261Y-52521428D01*
X122182023Y-52473809D01*
X122134404Y-52426190D01*
X122086785Y-52330952D01*
X23598095Y-59507380D02*
X23598095Y-58507380D01*
X23360000Y-58507380D01*
X23217142Y-58555000D01*
X23121904Y-58650238D01*
X23074285Y-58745476D01*
X23026666Y-58935952D01*
X23026666Y-59078809D01*
X23074285Y-59269285D01*
X23121904Y-59364523D01*
X23217142Y-59459761D01*
X23360000Y-59507380D01*
X23598095Y-59507380D01*
X22074285Y-59507380D02*
X22645714Y-59507380D01*
X22360000Y-59507380D02*
X22360000Y-58507380D01*
X22455238Y-58650238D01*
X22550476Y-58745476D01*
X22645714Y-58793095D01*
X195048095Y-59507380D02*
X195048095Y-58507380D01*
X194810000Y-58507380D01*
X194667142Y-58555000D01*
X194571904Y-58650238D01*
X194524285Y-58745476D01*
X194476666Y-58935952D01*
X194476666Y-59078809D01*
X194524285Y-59269285D01*
X194571904Y-59364523D01*
X194667142Y-59459761D01*
X194810000Y-59507380D01*
X195048095Y-59507380D01*
X194000476Y-59507380D02*
X193810000Y-59507380D01*
X193714761Y-59459761D01*
X193667142Y-59412142D01*
X193571904Y-59269285D01*
X193524285Y-59078809D01*
X193524285Y-58697857D01*
X193571904Y-58602619D01*
X193619523Y-58555000D01*
X193714761Y-58507380D01*
X193905238Y-58507380D01*
X194000476Y-58555000D01*
X194048095Y-58602619D01*
X194095714Y-58697857D01*
X194095714Y-58935952D01*
X194048095Y-59031190D01*
X194000476Y-59078809D01*
X193905238Y-59126428D01*
X193714761Y-59126428D01*
X193619523Y-59078809D01*
X193571904Y-59031190D01*
X193524285Y-58935952D01*
X52173095Y-59507380D02*
X52173095Y-58507380D01*
X51935000Y-58507380D01*
X51792142Y-58555000D01*
X51696904Y-58650238D01*
X51649285Y-58745476D01*
X51601666Y-58935952D01*
X51601666Y-59078809D01*
X51649285Y-59269285D01*
X51696904Y-59364523D01*
X51792142Y-59459761D01*
X51935000Y-59507380D01*
X52173095Y-59507380D01*
X51220714Y-58602619D02*
X51173095Y-58555000D01*
X51077857Y-58507380D01*
X50839761Y-58507380D01*
X50744523Y-58555000D01*
X50696904Y-58602619D01*
X50649285Y-58697857D01*
X50649285Y-58793095D01*
X50696904Y-58935952D01*
X51268333Y-59507380D01*
X50649285Y-59507380D01*
X224099285Y-59507380D02*
X224099285Y-58507380D01*
X223861190Y-58507380D01*
X223718333Y-58555000D01*
X223623095Y-58650238D01*
X223575476Y-58745476D01*
X223527857Y-58935952D01*
X223527857Y-59078809D01*
X223575476Y-59269285D01*
X223623095Y-59364523D01*
X223718333Y-59459761D01*
X223861190Y-59507380D01*
X224099285Y-59507380D01*
X222575476Y-59507380D02*
X223146904Y-59507380D01*
X222861190Y-59507380D02*
X222861190Y-58507380D01*
X222956428Y-58650238D01*
X223051666Y-58745476D01*
X223146904Y-58793095D01*
X221956428Y-58507380D02*
X221861190Y-58507380D01*
X221765952Y-58555000D01*
X221718333Y-58602619D01*
X221670714Y-58697857D01*
X221623095Y-58888333D01*
X221623095Y-59126428D01*
X221670714Y-59316904D01*
X221718333Y-59412142D01*
X221765952Y-59459761D01*
X221861190Y-59507380D01*
X221956428Y-59507380D01*
X222051666Y-59459761D01*
X222099285Y-59412142D01*
X222146904Y-59316904D01*
X222194523Y-59126428D01*
X222194523Y-58888333D01*
X222146904Y-58697857D01*
X222099285Y-58602619D01*
X222051666Y-58555000D01*
X221956428Y-58507380D01*
X71223095Y-59507380D02*
X71223095Y-58507380D01*
X70985000Y-58507380D01*
X70842142Y-58555000D01*
X70746904Y-58650238D01*
X70699285Y-58745476D01*
X70651666Y-58935952D01*
X70651666Y-59078809D01*
X70699285Y-59269285D01*
X70746904Y-59364523D01*
X70842142Y-59459761D01*
X70985000Y-59507380D01*
X71223095Y-59507380D01*
X70318333Y-58507380D02*
X69699285Y-58507380D01*
X70032619Y-58888333D01*
X69889761Y-58888333D01*
X69794523Y-58935952D01*
X69746904Y-58983571D01*
X69699285Y-59078809D01*
X69699285Y-59316904D01*
X69746904Y-59412142D01*
X69794523Y-59459761D01*
X69889761Y-59507380D01*
X70175476Y-59507380D01*
X70270714Y-59459761D01*
X70318333Y-59412142D01*
X243149285Y-59507380D02*
X243149285Y-58507380D01*
X242911190Y-58507380D01*
X242768333Y-58555000D01*
X242673095Y-58650238D01*
X242625476Y-58745476D01*
X242577857Y-58935952D01*
X242577857Y-59078809D01*
X242625476Y-59269285D01*
X242673095Y-59364523D01*
X242768333Y-59459761D01*
X242911190Y-59507380D01*
X243149285Y-59507380D01*
X241625476Y-59507380D02*
X242196904Y-59507380D01*
X241911190Y-59507380D02*
X241911190Y-58507380D01*
X242006428Y-58650238D01*
X242101666Y-58745476D01*
X242196904Y-58793095D01*
X240673095Y-59507380D02*
X241244523Y-59507380D01*
X240958809Y-59507380D02*
X240958809Y-58507380D01*
X241054047Y-58650238D01*
X241149285Y-58745476D01*
X241244523Y-58793095D01*
X90273095Y-59507380D02*
X90273095Y-58507380D01*
X90035000Y-58507380D01*
X89892142Y-58555000D01*
X89796904Y-58650238D01*
X89749285Y-58745476D01*
X89701666Y-58935952D01*
X89701666Y-59078809D01*
X89749285Y-59269285D01*
X89796904Y-59364523D01*
X89892142Y-59459761D01*
X90035000Y-59507380D01*
X90273095Y-59507380D01*
X88844523Y-58840714D02*
X88844523Y-59507380D01*
X89082619Y-58459761D02*
X89320714Y-59174047D01*
X88701666Y-59174047D01*
X262199285Y-59507380D02*
X262199285Y-58507380D01*
X261961190Y-58507380D01*
X261818333Y-58555000D01*
X261723095Y-58650238D01*
X261675476Y-58745476D01*
X261627857Y-58935952D01*
X261627857Y-59078809D01*
X261675476Y-59269285D01*
X261723095Y-59364523D01*
X261818333Y-59459761D01*
X261961190Y-59507380D01*
X262199285Y-59507380D01*
X260675476Y-59507380D02*
X261246904Y-59507380D01*
X260961190Y-59507380D02*
X260961190Y-58507380D01*
X261056428Y-58650238D01*
X261151666Y-58745476D01*
X261246904Y-58793095D01*
X260294523Y-58602619D02*
X260246904Y-58555000D01*
X260151666Y-58507380D01*
X259913571Y-58507380D01*
X259818333Y-58555000D01*
X259770714Y-58602619D01*
X259723095Y-58697857D01*
X259723095Y-58793095D01*
X259770714Y-58935952D01*
X260342142Y-59507380D01*
X259723095Y-59507380D01*
X109323095Y-59507380D02*
X109323095Y-58507380D01*
X109085000Y-58507380D01*
X108942142Y-58555000D01*
X108846904Y-58650238D01*
X108799285Y-58745476D01*
X108751666Y-58935952D01*
X108751666Y-59078809D01*
X108799285Y-59269285D01*
X108846904Y-59364523D01*
X108942142Y-59459761D01*
X109085000Y-59507380D01*
X109323095Y-59507380D01*
X107846904Y-58507380D02*
X108323095Y-58507380D01*
X108370714Y-58983571D01*
X108323095Y-58935952D01*
X108227857Y-58888333D01*
X107989761Y-58888333D01*
X107894523Y-58935952D01*
X107846904Y-58983571D01*
X107799285Y-59078809D01*
X107799285Y-59316904D01*
X107846904Y-59412142D01*
X107894523Y-59459761D01*
X107989761Y-59507380D01*
X108227857Y-59507380D01*
X108323095Y-59459761D01*
X108370714Y-59412142D01*
X281249285Y-59507380D02*
X281249285Y-58507380D01*
X281011190Y-58507380D01*
X280868333Y-58555000D01*
X280773095Y-58650238D01*
X280725476Y-58745476D01*
X280677857Y-58935952D01*
X280677857Y-59078809D01*
X280725476Y-59269285D01*
X280773095Y-59364523D01*
X280868333Y-59459761D01*
X281011190Y-59507380D01*
X281249285Y-59507380D01*
X279725476Y-59507380D02*
X280296904Y-59507380D01*
X280011190Y-59507380D02*
X280011190Y-58507380D01*
X280106428Y-58650238D01*
X280201666Y-58745476D01*
X280296904Y-58793095D01*
X279392142Y-58507380D02*
X278773095Y-58507380D01*
X279106428Y-58888333D01*
X278963571Y-58888333D01*
X278868333Y-58935952D01*
X278820714Y-58983571D01*
X278773095Y-59078809D01*
X278773095Y-59316904D01*
X278820714Y-59412142D01*
X278868333Y-59459761D01*
X278963571Y-59507380D01*
X279249285Y-59507380D01*
X279344523Y-59459761D01*
X279392142Y-59412142D01*
X137898095Y-59507380D02*
X137898095Y-58507380D01*
X137660000Y-58507380D01*
X137517142Y-58555000D01*
X137421904Y-58650238D01*
X137374285Y-58745476D01*
X137326666Y-58935952D01*
X137326666Y-59078809D01*
X137374285Y-59269285D01*
X137421904Y-59364523D01*
X137517142Y-59459761D01*
X137660000Y-59507380D01*
X137898095Y-59507380D01*
X136469523Y-58507380D02*
X136660000Y-58507380D01*
X136755238Y-58555000D01*
X136802857Y-58602619D01*
X136898095Y-58745476D01*
X136945714Y-58935952D01*
X136945714Y-59316904D01*
X136898095Y-59412142D01*
X136850476Y-59459761D01*
X136755238Y-59507380D01*
X136564761Y-59507380D01*
X136469523Y-59459761D01*
X136421904Y-59412142D01*
X136374285Y-59316904D01*
X136374285Y-59078809D01*
X136421904Y-58983571D01*
X136469523Y-58935952D01*
X136564761Y-58888333D01*
X136755238Y-58888333D01*
X136850476Y-58935952D01*
X136898095Y-58983571D01*
X136945714Y-59078809D01*
X309824285Y-59507380D02*
X309824285Y-58507380D01*
X309586190Y-58507380D01*
X309443333Y-58555000D01*
X309348095Y-58650238D01*
X309300476Y-58745476D01*
X309252857Y-58935952D01*
X309252857Y-59078809D01*
X309300476Y-59269285D01*
X309348095Y-59364523D01*
X309443333Y-59459761D01*
X309586190Y-59507380D01*
X309824285Y-59507380D01*
X308300476Y-59507380D02*
X308871904Y-59507380D01*
X308586190Y-59507380D02*
X308586190Y-58507380D01*
X308681428Y-58650238D01*
X308776666Y-58745476D01*
X308871904Y-58793095D01*
X307443333Y-58840714D02*
X307443333Y-59507380D01*
X307681428Y-58459761D02*
X307919523Y-59174047D01*
X307300476Y-59174047D01*
X156948095Y-59507380D02*
X156948095Y-58507380D01*
X156710000Y-58507380D01*
X156567142Y-58555000D01*
X156471904Y-58650238D01*
X156424285Y-58745476D01*
X156376666Y-58935952D01*
X156376666Y-59078809D01*
X156424285Y-59269285D01*
X156471904Y-59364523D01*
X156567142Y-59459761D01*
X156710000Y-59507380D01*
X156948095Y-59507380D01*
X156043333Y-58507380D02*
X155376666Y-58507380D01*
X155805238Y-59507380D01*
X175998095Y-59507380D02*
X175998095Y-58507380D01*
X175760000Y-58507380D01*
X175617142Y-58555000D01*
X175521904Y-58650238D01*
X175474285Y-58745476D01*
X175426666Y-58935952D01*
X175426666Y-59078809D01*
X175474285Y-59269285D01*
X175521904Y-59364523D01*
X175617142Y-59459761D01*
X175760000Y-59507380D01*
X175998095Y-59507380D01*
X174855238Y-58935952D02*
X174950476Y-58888333D01*
X174998095Y-58840714D01*
X175045714Y-58745476D01*
X175045714Y-58697857D01*
X174998095Y-58602619D01*
X174950476Y-58555000D01*
X174855238Y-58507380D01*
X174664761Y-58507380D01*
X174569523Y-58555000D01*
X174521904Y-58602619D01*
X174474285Y-58697857D01*
X174474285Y-58745476D01*
X174521904Y-58840714D01*
X174569523Y-58888333D01*
X174664761Y-58935952D01*
X174855238Y-58935952D01*
X174950476Y-58983571D01*
X174998095Y-59031190D01*
X175045714Y-59126428D01*
X175045714Y-59316904D01*
X174998095Y-59412142D01*
X174950476Y-59459761D01*
X174855238Y-59507380D01*
X174664761Y-59507380D01*
X174569523Y-59459761D01*
X174521904Y-59412142D01*
X174474285Y-59316904D01*
X174474285Y-59126428D01*
X174521904Y-59031190D01*
X174569523Y-58983571D01*
X174664761Y-58935952D01*
X24074285Y-88082380D02*
X24074285Y-87082380D01*
X23836190Y-87082380D01*
X23693333Y-87130000D01*
X23598095Y-87225238D01*
X23550476Y-87320476D01*
X23502857Y-87510952D01*
X23502857Y-87653809D01*
X23550476Y-87844285D01*
X23598095Y-87939523D01*
X23693333Y-88034761D01*
X23836190Y-88082380D01*
X24074285Y-88082380D01*
X22550476Y-88082380D02*
X23121904Y-88082380D01*
X22836190Y-88082380D02*
X22836190Y-87082380D01*
X22931428Y-87225238D01*
X23026666Y-87320476D01*
X23121904Y-87368095D01*
X21645714Y-87082380D02*
X22121904Y-87082380D01*
X22169523Y-87558571D01*
X22121904Y-87510952D01*
X22026666Y-87463333D01*
X21788571Y-87463333D01*
X21693333Y-87510952D01*
X21645714Y-87558571D01*
X21598095Y-87653809D01*
X21598095Y-87891904D01*
X21645714Y-87987142D01*
X21693333Y-88034761D01*
X21788571Y-88082380D01*
X22026666Y-88082380D01*
X22121904Y-88034761D01*
X22169523Y-87987142D01*
X176474285Y-88082380D02*
X176474285Y-87082380D01*
X176236190Y-87082380D01*
X176093333Y-87130000D01*
X175998095Y-87225238D01*
X175950476Y-87320476D01*
X175902857Y-87510952D01*
X175902857Y-87653809D01*
X175950476Y-87844285D01*
X175998095Y-87939523D01*
X176093333Y-88034761D01*
X176236190Y-88082380D01*
X176474285Y-88082380D01*
X175521904Y-87177619D02*
X175474285Y-87130000D01*
X175379047Y-87082380D01*
X175140952Y-87082380D01*
X175045714Y-87130000D01*
X174998095Y-87177619D01*
X174950476Y-87272857D01*
X174950476Y-87368095D01*
X174998095Y-87510952D01*
X175569523Y-88082380D01*
X174950476Y-88082380D01*
X174617142Y-87082380D02*
X173998095Y-87082380D01*
X174331428Y-87463333D01*
X174188571Y-87463333D01*
X174093333Y-87510952D01*
X174045714Y-87558571D01*
X173998095Y-87653809D01*
X173998095Y-87891904D01*
X174045714Y-87987142D01*
X174093333Y-88034761D01*
X174188571Y-88082380D01*
X174474285Y-88082380D01*
X174569523Y-88034761D01*
X174617142Y-87987142D01*
X43124285Y-88082380D02*
X43124285Y-87082380D01*
X42886190Y-87082380D01*
X42743333Y-87130000D01*
X42648095Y-87225238D01*
X42600476Y-87320476D01*
X42552857Y-87510952D01*
X42552857Y-87653809D01*
X42600476Y-87844285D01*
X42648095Y-87939523D01*
X42743333Y-88034761D01*
X42886190Y-88082380D01*
X43124285Y-88082380D01*
X41600476Y-88082380D02*
X42171904Y-88082380D01*
X41886190Y-88082380D02*
X41886190Y-87082380D01*
X41981428Y-87225238D01*
X42076666Y-87320476D01*
X42171904Y-87368095D01*
X40743333Y-87082380D02*
X40933809Y-87082380D01*
X41029047Y-87130000D01*
X41076666Y-87177619D01*
X41171904Y-87320476D01*
X41219523Y-87510952D01*
X41219523Y-87891904D01*
X41171904Y-87987142D01*
X41124285Y-88034761D01*
X41029047Y-88082380D01*
X40838571Y-88082380D01*
X40743333Y-88034761D01*
X40695714Y-87987142D01*
X40648095Y-87891904D01*
X40648095Y-87653809D01*
X40695714Y-87558571D01*
X40743333Y-87510952D01*
X40838571Y-87463333D01*
X41029047Y-87463333D01*
X41124285Y-87510952D01*
X41171904Y-87558571D01*
X41219523Y-87653809D01*
X195524285Y-88082380D02*
X195524285Y-87082380D01*
X195286190Y-87082380D01*
X195143333Y-87130000D01*
X195048095Y-87225238D01*
X195000476Y-87320476D01*
X194952857Y-87510952D01*
X194952857Y-87653809D01*
X195000476Y-87844285D01*
X195048095Y-87939523D01*
X195143333Y-88034761D01*
X195286190Y-88082380D01*
X195524285Y-88082380D01*
X194571904Y-87177619D02*
X194524285Y-87130000D01*
X194429047Y-87082380D01*
X194190952Y-87082380D01*
X194095714Y-87130000D01*
X194048095Y-87177619D01*
X194000476Y-87272857D01*
X194000476Y-87368095D01*
X194048095Y-87510952D01*
X194619523Y-88082380D01*
X194000476Y-88082380D01*
X193143333Y-87415714D02*
X193143333Y-88082380D01*
X193381428Y-87034761D02*
X193619523Y-87749047D01*
X193000476Y-87749047D01*
X62174285Y-88082380D02*
X62174285Y-87082380D01*
X61936190Y-87082380D01*
X61793333Y-87130000D01*
X61698095Y-87225238D01*
X61650476Y-87320476D01*
X61602857Y-87510952D01*
X61602857Y-87653809D01*
X61650476Y-87844285D01*
X61698095Y-87939523D01*
X61793333Y-88034761D01*
X61936190Y-88082380D01*
X62174285Y-88082380D01*
X60650476Y-88082380D02*
X61221904Y-88082380D01*
X60936190Y-88082380D02*
X60936190Y-87082380D01*
X61031428Y-87225238D01*
X61126666Y-87320476D01*
X61221904Y-87368095D01*
X60317142Y-87082380D02*
X59650476Y-87082380D01*
X60079047Y-88082380D01*
X214574285Y-88082380D02*
X214574285Y-87082380D01*
X214336190Y-87082380D01*
X214193333Y-87130000D01*
X214098095Y-87225238D01*
X214050476Y-87320476D01*
X214002857Y-87510952D01*
X214002857Y-87653809D01*
X214050476Y-87844285D01*
X214098095Y-87939523D01*
X214193333Y-88034761D01*
X214336190Y-88082380D01*
X214574285Y-88082380D01*
X213621904Y-87177619D02*
X213574285Y-87130000D01*
X213479047Y-87082380D01*
X213240952Y-87082380D01*
X213145714Y-87130000D01*
X213098095Y-87177619D01*
X213050476Y-87272857D01*
X213050476Y-87368095D01*
X213098095Y-87510952D01*
X213669523Y-88082380D01*
X213050476Y-88082380D01*
X212145714Y-87082380D02*
X212621904Y-87082380D01*
X212669523Y-87558571D01*
X212621904Y-87510952D01*
X212526666Y-87463333D01*
X212288571Y-87463333D01*
X212193333Y-87510952D01*
X212145714Y-87558571D01*
X212098095Y-87653809D01*
X212098095Y-87891904D01*
X212145714Y-87987142D01*
X212193333Y-88034761D01*
X212288571Y-88082380D01*
X212526666Y-88082380D01*
X212621904Y-88034761D01*
X212669523Y-87987142D01*
X81224285Y-88082380D02*
X81224285Y-87082380D01*
X80986190Y-87082380D01*
X80843333Y-87130000D01*
X80748095Y-87225238D01*
X80700476Y-87320476D01*
X80652857Y-87510952D01*
X80652857Y-87653809D01*
X80700476Y-87844285D01*
X80748095Y-87939523D01*
X80843333Y-88034761D01*
X80986190Y-88082380D01*
X81224285Y-88082380D01*
X79700476Y-88082380D02*
X80271904Y-88082380D01*
X79986190Y-88082380D02*
X79986190Y-87082380D01*
X80081428Y-87225238D01*
X80176666Y-87320476D01*
X80271904Y-87368095D01*
X79129047Y-87510952D02*
X79224285Y-87463333D01*
X79271904Y-87415714D01*
X79319523Y-87320476D01*
X79319523Y-87272857D01*
X79271904Y-87177619D01*
X79224285Y-87130000D01*
X79129047Y-87082380D01*
X78938571Y-87082380D01*
X78843333Y-87130000D01*
X78795714Y-87177619D01*
X78748095Y-87272857D01*
X78748095Y-87320476D01*
X78795714Y-87415714D01*
X78843333Y-87463333D01*
X78938571Y-87510952D01*
X79129047Y-87510952D01*
X79224285Y-87558571D01*
X79271904Y-87606190D01*
X79319523Y-87701428D01*
X79319523Y-87891904D01*
X79271904Y-87987142D01*
X79224285Y-88034761D01*
X79129047Y-88082380D01*
X78938571Y-88082380D01*
X78843333Y-88034761D01*
X78795714Y-87987142D01*
X78748095Y-87891904D01*
X78748095Y-87701428D01*
X78795714Y-87606190D01*
X78843333Y-87558571D01*
X78938571Y-87510952D01*
X233624285Y-88082380D02*
X233624285Y-87082380D01*
X233386190Y-87082380D01*
X233243333Y-87130000D01*
X233148095Y-87225238D01*
X233100476Y-87320476D01*
X233052857Y-87510952D01*
X233052857Y-87653809D01*
X233100476Y-87844285D01*
X233148095Y-87939523D01*
X233243333Y-88034761D01*
X233386190Y-88082380D01*
X233624285Y-88082380D01*
X232671904Y-87177619D02*
X232624285Y-87130000D01*
X232529047Y-87082380D01*
X232290952Y-87082380D01*
X232195714Y-87130000D01*
X232148095Y-87177619D01*
X232100476Y-87272857D01*
X232100476Y-87368095D01*
X232148095Y-87510952D01*
X232719523Y-88082380D01*
X232100476Y-88082380D01*
X231243333Y-87082380D02*
X231433809Y-87082380D01*
X231529047Y-87130000D01*
X231576666Y-87177619D01*
X231671904Y-87320476D01*
X231719523Y-87510952D01*
X231719523Y-87891904D01*
X231671904Y-87987142D01*
X231624285Y-88034761D01*
X231529047Y-88082380D01*
X231338571Y-88082380D01*
X231243333Y-88034761D01*
X231195714Y-87987142D01*
X231148095Y-87891904D01*
X231148095Y-87653809D01*
X231195714Y-87558571D01*
X231243333Y-87510952D01*
X231338571Y-87463333D01*
X231529047Y-87463333D01*
X231624285Y-87510952D01*
X231671904Y-87558571D01*
X231719523Y-87653809D01*
X100274285Y-88082380D02*
X100274285Y-87082380D01*
X100036190Y-87082380D01*
X99893333Y-87130000D01*
X99798095Y-87225238D01*
X99750476Y-87320476D01*
X99702857Y-87510952D01*
X99702857Y-87653809D01*
X99750476Y-87844285D01*
X99798095Y-87939523D01*
X99893333Y-88034761D01*
X100036190Y-88082380D01*
X100274285Y-88082380D01*
X98750476Y-88082380D02*
X99321904Y-88082380D01*
X99036190Y-88082380D02*
X99036190Y-87082380D01*
X99131428Y-87225238D01*
X99226666Y-87320476D01*
X99321904Y-87368095D01*
X98274285Y-88082380D02*
X98083809Y-88082380D01*
X97988571Y-88034761D01*
X97940952Y-87987142D01*
X97845714Y-87844285D01*
X97798095Y-87653809D01*
X97798095Y-87272857D01*
X97845714Y-87177619D01*
X97893333Y-87130000D01*
X97988571Y-87082380D01*
X98179047Y-87082380D01*
X98274285Y-87130000D01*
X98321904Y-87177619D01*
X98369523Y-87272857D01*
X98369523Y-87510952D01*
X98321904Y-87606190D01*
X98274285Y-87653809D01*
X98179047Y-87701428D01*
X97988571Y-87701428D01*
X97893333Y-87653809D01*
X97845714Y-87606190D01*
X97798095Y-87510952D01*
X252674285Y-88082380D02*
X252674285Y-87082380D01*
X252436190Y-87082380D01*
X252293333Y-87130000D01*
X252198095Y-87225238D01*
X252150476Y-87320476D01*
X252102857Y-87510952D01*
X252102857Y-87653809D01*
X252150476Y-87844285D01*
X252198095Y-87939523D01*
X252293333Y-88034761D01*
X252436190Y-88082380D01*
X252674285Y-88082380D01*
X251721904Y-87177619D02*
X251674285Y-87130000D01*
X251579047Y-87082380D01*
X251340952Y-87082380D01*
X251245714Y-87130000D01*
X251198095Y-87177619D01*
X251150476Y-87272857D01*
X251150476Y-87368095D01*
X251198095Y-87510952D01*
X251769523Y-88082380D01*
X251150476Y-88082380D01*
X250817142Y-87082380D02*
X250150476Y-87082380D01*
X250579047Y-88082380D01*
X119324285Y-88082380D02*
X119324285Y-87082380D01*
X119086190Y-87082380D01*
X118943333Y-87130000D01*
X118848095Y-87225238D01*
X118800476Y-87320476D01*
X118752857Y-87510952D01*
X118752857Y-87653809D01*
X118800476Y-87844285D01*
X118848095Y-87939523D01*
X118943333Y-88034761D01*
X119086190Y-88082380D01*
X119324285Y-88082380D01*
X118371904Y-87177619D02*
X118324285Y-87130000D01*
X118229047Y-87082380D01*
X117990952Y-87082380D01*
X117895714Y-87130000D01*
X117848095Y-87177619D01*
X117800476Y-87272857D01*
X117800476Y-87368095D01*
X117848095Y-87510952D01*
X118419523Y-88082380D01*
X117800476Y-88082380D01*
X117181428Y-87082380D02*
X117086190Y-87082380D01*
X116990952Y-87130000D01*
X116943333Y-87177619D01*
X116895714Y-87272857D01*
X116848095Y-87463333D01*
X116848095Y-87701428D01*
X116895714Y-87891904D01*
X116943333Y-87987142D01*
X116990952Y-88034761D01*
X117086190Y-88082380D01*
X117181428Y-88082380D01*
X117276666Y-88034761D01*
X117324285Y-87987142D01*
X117371904Y-87891904D01*
X117419523Y-87701428D01*
X117419523Y-87463333D01*
X117371904Y-87272857D01*
X117324285Y-87177619D01*
X117276666Y-87130000D01*
X117181428Y-87082380D01*
X281249285Y-88082380D02*
X281249285Y-87082380D01*
X281011190Y-87082380D01*
X280868333Y-87130000D01*
X280773095Y-87225238D01*
X280725476Y-87320476D01*
X280677857Y-87510952D01*
X280677857Y-87653809D01*
X280725476Y-87844285D01*
X280773095Y-87939523D01*
X280868333Y-88034761D01*
X281011190Y-88082380D01*
X281249285Y-88082380D01*
X280296904Y-87177619D02*
X280249285Y-87130000D01*
X280154047Y-87082380D01*
X279915952Y-87082380D01*
X279820714Y-87130000D01*
X279773095Y-87177619D01*
X279725476Y-87272857D01*
X279725476Y-87368095D01*
X279773095Y-87510952D01*
X280344523Y-88082380D01*
X279725476Y-88082380D01*
X279154047Y-87510952D02*
X279249285Y-87463333D01*
X279296904Y-87415714D01*
X279344523Y-87320476D01*
X279344523Y-87272857D01*
X279296904Y-87177619D01*
X279249285Y-87130000D01*
X279154047Y-87082380D01*
X278963571Y-87082380D01*
X278868333Y-87130000D01*
X278820714Y-87177619D01*
X278773095Y-87272857D01*
X278773095Y-87320476D01*
X278820714Y-87415714D01*
X278868333Y-87463333D01*
X278963571Y-87510952D01*
X279154047Y-87510952D01*
X279249285Y-87558571D01*
X279296904Y-87606190D01*
X279344523Y-87701428D01*
X279344523Y-87891904D01*
X279296904Y-87987142D01*
X279249285Y-88034761D01*
X279154047Y-88082380D01*
X278963571Y-88082380D01*
X278868333Y-88034761D01*
X278820714Y-87987142D01*
X278773095Y-87891904D01*
X278773095Y-87701428D01*
X278820714Y-87606190D01*
X278868333Y-87558571D01*
X278963571Y-87510952D01*
X138374285Y-88082380D02*
X138374285Y-87082380D01*
X138136190Y-87082380D01*
X137993333Y-87130000D01*
X137898095Y-87225238D01*
X137850476Y-87320476D01*
X137802857Y-87510952D01*
X137802857Y-87653809D01*
X137850476Y-87844285D01*
X137898095Y-87939523D01*
X137993333Y-88034761D01*
X138136190Y-88082380D01*
X138374285Y-88082380D01*
X137421904Y-87177619D02*
X137374285Y-87130000D01*
X137279047Y-87082380D01*
X137040952Y-87082380D01*
X136945714Y-87130000D01*
X136898095Y-87177619D01*
X136850476Y-87272857D01*
X136850476Y-87368095D01*
X136898095Y-87510952D01*
X137469523Y-88082380D01*
X136850476Y-88082380D01*
X135898095Y-88082380D02*
X136469523Y-88082380D01*
X136183809Y-88082380D02*
X136183809Y-87082380D01*
X136279047Y-87225238D01*
X136374285Y-87320476D01*
X136469523Y-87368095D01*
X309824285Y-88082380D02*
X309824285Y-87082380D01*
X309586190Y-87082380D01*
X309443333Y-87130000D01*
X309348095Y-87225238D01*
X309300476Y-87320476D01*
X309252857Y-87510952D01*
X309252857Y-87653809D01*
X309300476Y-87844285D01*
X309348095Y-87939523D01*
X309443333Y-88034761D01*
X309586190Y-88082380D01*
X309824285Y-88082380D01*
X308871904Y-87177619D02*
X308824285Y-87130000D01*
X308729047Y-87082380D01*
X308490952Y-87082380D01*
X308395714Y-87130000D01*
X308348095Y-87177619D01*
X308300476Y-87272857D01*
X308300476Y-87368095D01*
X308348095Y-87510952D01*
X308919523Y-88082380D01*
X308300476Y-88082380D01*
X307824285Y-88082380D02*
X307633809Y-88082380D01*
X307538571Y-88034761D01*
X307490952Y-87987142D01*
X307395714Y-87844285D01*
X307348095Y-87653809D01*
X307348095Y-87272857D01*
X307395714Y-87177619D01*
X307443333Y-87130000D01*
X307538571Y-87082380D01*
X307729047Y-87082380D01*
X307824285Y-87130000D01*
X307871904Y-87177619D01*
X307919523Y-87272857D01*
X307919523Y-87510952D01*
X307871904Y-87606190D01*
X307824285Y-87653809D01*
X307729047Y-87701428D01*
X307538571Y-87701428D01*
X307443333Y-87653809D01*
X307395714Y-87606190D01*
X307348095Y-87510952D01*
X157424285Y-88082380D02*
X157424285Y-87082380D01*
X157186190Y-87082380D01*
X157043333Y-87130000D01*
X156948095Y-87225238D01*
X156900476Y-87320476D01*
X156852857Y-87510952D01*
X156852857Y-87653809D01*
X156900476Y-87844285D01*
X156948095Y-87939523D01*
X157043333Y-88034761D01*
X157186190Y-88082380D01*
X157424285Y-88082380D01*
X156471904Y-87177619D02*
X156424285Y-87130000D01*
X156329047Y-87082380D01*
X156090952Y-87082380D01*
X155995714Y-87130000D01*
X155948095Y-87177619D01*
X155900476Y-87272857D01*
X155900476Y-87368095D01*
X155948095Y-87510952D01*
X156519523Y-88082380D01*
X155900476Y-88082380D01*
X155519523Y-87177619D02*
X155471904Y-87130000D01*
X155376666Y-87082380D01*
X155138571Y-87082380D01*
X155043333Y-87130000D01*
X154995714Y-87177619D01*
X154948095Y-87272857D01*
X154948095Y-87368095D01*
X154995714Y-87510952D01*
X155567142Y-88082380D01*
X154948095Y-88082380D01*
X26455535Y-164282380D02*
X26455535Y-163282380D01*
X26217440Y-163282380D01*
X26074583Y-163330000D01*
X25979345Y-163425238D01*
X25931726Y-163520476D01*
X25884107Y-163710952D01*
X25884107Y-163853809D01*
X25931726Y-164044285D01*
X25979345Y-164139523D01*
X26074583Y-164234761D01*
X26217440Y-164282380D01*
X26455535Y-164282380D01*
X25550773Y-163282380D02*
X24931726Y-163282380D01*
X25265059Y-163663333D01*
X25122202Y-163663333D01*
X25026964Y-163710952D01*
X24979345Y-163758571D01*
X24931726Y-163853809D01*
X24931726Y-164091904D01*
X24979345Y-164187142D01*
X25026964Y-164234761D01*
X25122202Y-164282380D01*
X25407916Y-164282380D01*
X25503154Y-164234761D01*
X25550773Y-164187142D01*
X24312678Y-163282380D02*
X24217440Y-163282380D01*
X24122202Y-163330000D01*
X24074583Y-163377619D01*
X24026964Y-163472857D01*
X23979345Y-163663333D01*
X23979345Y-163901428D01*
X24026964Y-164091904D01*
X24074583Y-164187142D01*
X24122202Y-164234761D01*
X24217440Y-164282380D01*
X24312678Y-164282380D01*
X24407916Y-164234761D01*
X24455535Y-164187142D01*
X24503154Y-164091904D01*
X24550773Y-163901428D01*
X24550773Y-163663333D01*
X24503154Y-163472857D01*
X24455535Y-163377619D01*
X24407916Y-163330000D01*
X24312678Y-163282380D01*
X50268035Y-164282380D02*
X50268035Y-163282380D01*
X50029940Y-163282380D01*
X49887083Y-163330000D01*
X49791845Y-163425238D01*
X49744226Y-163520476D01*
X49696607Y-163710952D01*
X49696607Y-163853809D01*
X49744226Y-164044285D01*
X49791845Y-164139523D01*
X49887083Y-164234761D01*
X50029940Y-164282380D01*
X50268035Y-164282380D01*
X49363273Y-163282380D02*
X48744226Y-163282380D01*
X49077559Y-163663333D01*
X48934702Y-163663333D01*
X48839464Y-163710952D01*
X48791845Y-163758571D01*
X48744226Y-163853809D01*
X48744226Y-164091904D01*
X48791845Y-164187142D01*
X48839464Y-164234761D01*
X48934702Y-164282380D01*
X49220416Y-164282380D01*
X49315654Y-164234761D01*
X49363273Y-164187142D01*
X47791845Y-164282380D02*
X48363273Y-164282380D01*
X48077559Y-164282380D02*
X48077559Y-163282380D01*
X48172797Y-163425238D01*
X48268035Y-163520476D01*
X48363273Y-163568095D01*
X74080535Y-164282380D02*
X74080535Y-163282380D01*
X73842440Y-163282380D01*
X73699583Y-163330000D01*
X73604345Y-163425238D01*
X73556726Y-163520476D01*
X73509107Y-163710952D01*
X73509107Y-163853809D01*
X73556726Y-164044285D01*
X73604345Y-164139523D01*
X73699583Y-164234761D01*
X73842440Y-164282380D01*
X74080535Y-164282380D01*
X73175773Y-163282380D02*
X72556726Y-163282380D01*
X72890059Y-163663333D01*
X72747202Y-163663333D01*
X72651964Y-163710952D01*
X72604345Y-163758571D01*
X72556726Y-163853809D01*
X72556726Y-164091904D01*
X72604345Y-164187142D01*
X72651964Y-164234761D01*
X72747202Y-164282380D01*
X73032916Y-164282380D01*
X73128154Y-164234761D01*
X73175773Y-164187142D01*
X72175773Y-163377619D02*
X72128154Y-163330000D01*
X72032916Y-163282380D01*
X71794821Y-163282380D01*
X71699583Y-163330000D01*
X71651964Y-163377619D01*
X71604345Y-163472857D01*
X71604345Y-163568095D01*
X71651964Y-163710952D01*
X72223392Y-164282380D01*
X71604345Y-164282380D01*
X145518035Y-164282380D02*
X145518035Y-163282380D01*
X145279940Y-163282380D01*
X145137083Y-163330000D01*
X145041845Y-163425238D01*
X144994226Y-163520476D01*
X144946607Y-163710952D01*
X144946607Y-163853809D01*
X144994226Y-164044285D01*
X145041845Y-164139523D01*
X145137083Y-164234761D01*
X145279940Y-164282380D01*
X145518035Y-164282380D01*
X144613273Y-163282380D02*
X143994226Y-163282380D01*
X144327559Y-163663333D01*
X144184702Y-163663333D01*
X144089464Y-163710952D01*
X144041845Y-163758571D01*
X143994226Y-163853809D01*
X143994226Y-164091904D01*
X144041845Y-164187142D01*
X144089464Y-164234761D01*
X144184702Y-164282380D01*
X144470416Y-164282380D01*
X144565654Y-164234761D01*
X144613273Y-164187142D01*
X143660892Y-163282380D02*
X143041845Y-163282380D01*
X143375178Y-163663333D01*
X143232321Y-163663333D01*
X143137083Y-163710952D01*
X143089464Y-163758571D01*
X143041845Y-163853809D01*
X143041845Y-164091904D01*
X143089464Y-164187142D01*
X143137083Y-164234761D01*
X143232321Y-164282380D01*
X143518035Y-164282380D01*
X143613273Y-164234761D01*
X143660892Y-164187142D01*
X271724285Y-164282380D02*
X271724285Y-163282380D01*
X271486190Y-163282380D01*
X271343333Y-163330000D01*
X271248095Y-163425238D01*
X271200476Y-163520476D01*
X271152857Y-163710952D01*
X271152857Y-163853809D01*
X271200476Y-164044285D01*
X271248095Y-164139523D01*
X271343333Y-164234761D01*
X271486190Y-164282380D01*
X271724285Y-164282380D01*
X270819523Y-163282380D02*
X270200476Y-163282380D01*
X270533809Y-163663333D01*
X270390952Y-163663333D01*
X270295714Y-163710952D01*
X270248095Y-163758571D01*
X270200476Y-163853809D01*
X270200476Y-164091904D01*
X270248095Y-164187142D01*
X270295714Y-164234761D01*
X270390952Y-164282380D01*
X270676666Y-164282380D01*
X270771904Y-164234761D01*
X270819523Y-164187142D01*
X269343333Y-163282380D02*
X269533809Y-163282380D01*
X269629047Y-163330000D01*
X269676666Y-163377619D01*
X269771904Y-163520476D01*
X269819523Y-163710952D01*
X269819523Y-164091904D01*
X269771904Y-164187142D01*
X269724285Y-164234761D01*
X269629047Y-164282380D01*
X269438571Y-164282380D01*
X269343333Y-164234761D01*
X269295714Y-164187142D01*
X269248095Y-164091904D01*
X269248095Y-163853809D01*
X269295714Y-163758571D01*
X269343333Y-163710952D01*
X269438571Y-163663333D01*
X269629047Y-163663333D01*
X269724285Y-163710952D01*
X269771904Y-163758571D01*
X269819523Y-163853809D01*
X290774285Y-164282380D02*
X290774285Y-163282380D01*
X290536190Y-163282380D01*
X290393333Y-163330000D01*
X290298095Y-163425238D01*
X290250476Y-163520476D01*
X290202857Y-163710952D01*
X290202857Y-163853809D01*
X290250476Y-164044285D01*
X290298095Y-164139523D01*
X290393333Y-164234761D01*
X290536190Y-164282380D01*
X290774285Y-164282380D01*
X289869523Y-163282380D02*
X289250476Y-163282380D01*
X289583809Y-163663333D01*
X289440952Y-163663333D01*
X289345714Y-163710952D01*
X289298095Y-163758571D01*
X289250476Y-163853809D01*
X289250476Y-164091904D01*
X289298095Y-164187142D01*
X289345714Y-164234761D01*
X289440952Y-164282380D01*
X289726666Y-164282380D01*
X289821904Y-164234761D01*
X289869523Y-164187142D01*
X288917142Y-163282380D02*
X288250476Y-163282380D01*
X288679047Y-164282380D01*
X309824285Y-164282380D02*
X309824285Y-163282380D01*
X309586190Y-163282380D01*
X309443333Y-163330000D01*
X309348095Y-163425238D01*
X309300476Y-163520476D01*
X309252857Y-163710952D01*
X309252857Y-163853809D01*
X309300476Y-164044285D01*
X309348095Y-164139523D01*
X309443333Y-164234761D01*
X309586190Y-164282380D01*
X309824285Y-164282380D01*
X308919523Y-163282380D02*
X308300476Y-163282380D01*
X308633809Y-163663333D01*
X308490952Y-163663333D01*
X308395714Y-163710952D01*
X308348095Y-163758571D01*
X308300476Y-163853809D01*
X308300476Y-164091904D01*
X308348095Y-164187142D01*
X308395714Y-164234761D01*
X308490952Y-164282380D01*
X308776666Y-164282380D01*
X308871904Y-164234761D01*
X308919523Y-164187142D01*
X307729047Y-163710952D02*
X307824285Y-163663333D01*
X307871904Y-163615714D01*
X307919523Y-163520476D01*
X307919523Y-163472857D01*
X307871904Y-163377619D01*
X307824285Y-163330000D01*
X307729047Y-163282380D01*
X307538571Y-163282380D01*
X307443333Y-163330000D01*
X307395714Y-163377619D01*
X307348095Y-163472857D01*
X307348095Y-163520476D01*
X307395714Y-163615714D01*
X307443333Y-163663333D01*
X307538571Y-163710952D01*
X307729047Y-163710952D01*
X307824285Y-163758571D01*
X307871904Y-163806190D01*
X307919523Y-163901428D01*
X307919523Y-164091904D01*
X307871904Y-164187142D01*
X307824285Y-164234761D01*
X307729047Y-164282380D01*
X307538571Y-164282380D01*
X307443333Y-164234761D01*
X307395714Y-164187142D01*
X307348095Y-164091904D01*
X307348095Y-163901428D01*
X307395714Y-163806190D01*
X307443333Y-163758571D01*
X307538571Y-163710952D01*
X35980535Y-145232380D02*
X35980535Y-144232380D01*
X35742440Y-144232380D01*
X35599583Y-144280000D01*
X35504345Y-144375238D01*
X35456726Y-144470476D01*
X35409107Y-144660952D01*
X35409107Y-144803809D01*
X35456726Y-144994285D01*
X35504345Y-145089523D01*
X35599583Y-145184761D01*
X35742440Y-145232380D01*
X35980535Y-145232380D01*
X35075773Y-144232380D02*
X34456726Y-144232380D01*
X34790059Y-144613333D01*
X34647202Y-144613333D01*
X34551964Y-144660952D01*
X34504345Y-144708571D01*
X34456726Y-144803809D01*
X34456726Y-145041904D01*
X34504345Y-145137142D01*
X34551964Y-145184761D01*
X34647202Y-145232380D01*
X34932916Y-145232380D01*
X35028154Y-145184761D01*
X35075773Y-145137142D01*
X33980535Y-145232380D02*
X33790059Y-145232380D01*
X33694821Y-145184761D01*
X33647202Y-145137142D01*
X33551964Y-144994285D01*
X33504345Y-144803809D01*
X33504345Y-144422857D01*
X33551964Y-144327619D01*
X33599583Y-144280000D01*
X33694821Y-144232380D01*
X33885297Y-144232380D01*
X33980535Y-144280000D01*
X34028154Y-144327619D01*
X34075773Y-144422857D01*
X34075773Y-144660952D01*
X34028154Y-144756190D01*
X33980535Y-144803809D01*
X33885297Y-144851428D01*
X33694821Y-144851428D01*
X33599583Y-144803809D01*
X33551964Y-144756190D01*
X33504345Y-144660952D01*
X200286785Y-145232380D02*
X200286785Y-144232380D01*
X200048690Y-144232380D01*
X199905833Y-144280000D01*
X199810595Y-144375238D01*
X199762976Y-144470476D01*
X199715357Y-144660952D01*
X199715357Y-144803809D01*
X199762976Y-144994285D01*
X199810595Y-145089523D01*
X199905833Y-145184761D01*
X200048690Y-145232380D01*
X200286785Y-145232380D01*
X198858214Y-144565714D02*
X198858214Y-145232380D01*
X199096309Y-144184761D02*
X199334404Y-144899047D01*
X198715357Y-144899047D01*
X198429642Y-144232380D02*
X197762976Y-144232380D01*
X198191547Y-145232380D01*
X66936785Y-145232380D02*
X66936785Y-144232380D01*
X66698690Y-144232380D01*
X66555833Y-144280000D01*
X66460595Y-144375238D01*
X66412976Y-144470476D01*
X66365357Y-144660952D01*
X66365357Y-144803809D01*
X66412976Y-144994285D01*
X66460595Y-145089523D01*
X66555833Y-145184761D01*
X66698690Y-145232380D01*
X66936785Y-145232380D01*
X65508214Y-144565714D02*
X65508214Y-145232380D01*
X65746309Y-144184761D02*
X65984404Y-144899047D01*
X65365357Y-144899047D01*
X64793928Y-144232380D02*
X64698690Y-144232380D01*
X64603452Y-144280000D01*
X64555833Y-144327619D01*
X64508214Y-144422857D01*
X64460595Y-144613333D01*
X64460595Y-144851428D01*
X64508214Y-145041904D01*
X64555833Y-145137142D01*
X64603452Y-145184761D01*
X64698690Y-145232380D01*
X64793928Y-145232380D01*
X64889166Y-145184761D01*
X64936785Y-145137142D01*
X64984404Y-145041904D01*
X65032023Y-144851428D01*
X65032023Y-144613333D01*
X64984404Y-144422857D01*
X64936785Y-144327619D01*
X64889166Y-144280000D01*
X64793928Y-144232380D01*
X219336785Y-145232380D02*
X219336785Y-144232380D01*
X219098690Y-144232380D01*
X218955833Y-144280000D01*
X218860595Y-144375238D01*
X218812976Y-144470476D01*
X218765357Y-144660952D01*
X218765357Y-144803809D01*
X218812976Y-144994285D01*
X218860595Y-145089523D01*
X218955833Y-145184761D01*
X219098690Y-145232380D01*
X219336785Y-145232380D01*
X217908214Y-144565714D02*
X217908214Y-145232380D01*
X218146309Y-144184761D02*
X218384404Y-144899047D01*
X217765357Y-144899047D01*
X217241547Y-144660952D02*
X217336785Y-144613333D01*
X217384404Y-144565714D01*
X217432023Y-144470476D01*
X217432023Y-144422857D01*
X217384404Y-144327619D01*
X217336785Y-144280000D01*
X217241547Y-144232380D01*
X217051071Y-144232380D01*
X216955833Y-144280000D01*
X216908214Y-144327619D01*
X216860595Y-144422857D01*
X216860595Y-144470476D01*
X216908214Y-144565714D01*
X216955833Y-144613333D01*
X217051071Y-144660952D01*
X217241547Y-144660952D01*
X217336785Y-144708571D01*
X217384404Y-144756190D01*
X217432023Y-144851428D01*
X217432023Y-145041904D01*
X217384404Y-145137142D01*
X217336785Y-145184761D01*
X217241547Y-145232380D01*
X217051071Y-145232380D01*
X216955833Y-145184761D01*
X216908214Y-145137142D01*
X216860595Y-145041904D01*
X216860595Y-144851428D01*
X216908214Y-144756190D01*
X216955833Y-144708571D01*
X217051071Y-144660952D01*
X85986785Y-145232380D02*
X85986785Y-144232380D01*
X85748690Y-144232380D01*
X85605833Y-144280000D01*
X85510595Y-144375238D01*
X85462976Y-144470476D01*
X85415357Y-144660952D01*
X85415357Y-144803809D01*
X85462976Y-144994285D01*
X85510595Y-145089523D01*
X85605833Y-145184761D01*
X85748690Y-145232380D01*
X85986785Y-145232380D01*
X84558214Y-144565714D02*
X84558214Y-145232380D01*
X84796309Y-144184761D02*
X85034404Y-144899047D01*
X84415357Y-144899047D01*
X83510595Y-145232380D02*
X84082023Y-145232380D01*
X83796309Y-145232380D02*
X83796309Y-144232380D01*
X83891547Y-144375238D01*
X83986785Y-144470476D01*
X84082023Y-144518095D01*
X238386785Y-145232380D02*
X238386785Y-144232380D01*
X238148690Y-144232380D01*
X238005833Y-144280000D01*
X237910595Y-144375238D01*
X237862976Y-144470476D01*
X237815357Y-144660952D01*
X237815357Y-144803809D01*
X237862976Y-144994285D01*
X237910595Y-145089523D01*
X238005833Y-145184761D01*
X238148690Y-145232380D01*
X238386785Y-145232380D01*
X236958214Y-144565714D02*
X236958214Y-145232380D01*
X237196309Y-144184761D02*
X237434404Y-144899047D01*
X236815357Y-144899047D01*
X236386785Y-145232380D02*
X236196309Y-145232380D01*
X236101071Y-145184761D01*
X236053452Y-145137142D01*
X235958214Y-144994285D01*
X235910595Y-144803809D01*
X235910595Y-144422857D01*
X235958214Y-144327619D01*
X236005833Y-144280000D01*
X236101071Y-144232380D01*
X236291547Y-144232380D01*
X236386785Y-144280000D01*
X236434404Y-144327619D01*
X236482023Y-144422857D01*
X236482023Y-144660952D01*
X236434404Y-144756190D01*
X236386785Y-144803809D01*
X236291547Y-144851428D01*
X236101071Y-144851428D01*
X236005833Y-144803809D01*
X235958214Y-144756190D01*
X235910595Y-144660952D01*
X105036785Y-145232380D02*
X105036785Y-144232380D01*
X104798690Y-144232380D01*
X104655833Y-144280000D01*
X104560595Y-144375238D01*
X104512976Y-144470476D01*
X104465357Y-144660952D01*
X104465357Y-144803809D01*
X104512976Y-144994285D01*
X104560595Y-145089523D01*
X104655833Y-145184761D01*
X104798690Y-145232380D01*
X105036785Y-145232380D01*
X103608214Y-144565714D02*
X103608214Y-145232380D01*
X103846309Y-144184761D02*
X104084404Y-144899047D01*
X103465357Y-144899047D01*
X103132023Y-144327619D02*
X103084404Y-144280000D01*
X102989166Y-144232380D01*
X102751071Y-144232380D01*
X102655833Y-144280000D01*
X102608214Y-144327619D01*
X102560595Y-144422857D01*
X102560595Y-144518095D01*
X102608214Y-144660952D01*
X103179642Y-145232380D01*
X102560595Y-145232380D01*
X264580535Y-145232380D02*
X264580535Y-144232380D01*
X264342440Y-144232380D01*
X264199583Y-144280000D01*
X264104345Y-144375238D01*
X264056726Y-144470476D01*
X264009107Y-144660952D01*
X264009107Y-144803809D01*
X264056726Y-144994285D01*
X264104345Y-145089523D01*
X264199583Y-145184761D01*
X264342440Y-145232380D01*
X264580535Y-145232380D01*
X263104345Y-144232380D02*
X263580535Y-144232380D01*
X263628154Y-144708571D01*
X263580535Y-144660952D01*
X263485297Y-144613333D01*
X263247202Y-144613333D01*
X263151964Y-144660952D01*
X263104345Y-144708571D01*
X263056726Y-144803809D01*
X263056726Y-145041904D01*
X263104345Y-145137142D01*
X263151964Y-145184761D01*
X263247202Y-145232380D01*
X263485297Y-145232380D01*
X263580535Y-145184761D01*
X263628154Y-145137142D01*
X262437678Y-144232380D02*
X262342440Y-144232380D01*
X262247202Y-144280000D01*
X262199583Y-144327619D01*
X262151964Y-144422857D01*
X262104345Y-144613333D01*
X262104345Y-144851428D01*
X262151964Y-145041904D01*
X262199583Y-145137142D01*
X262247202Y-145184761D01*
X262342440Y-145232380D01*
X262437678Y-145232380D01*
X262532916Y-145184761D01*
X262580535Y-145137142D01*
X262628154Y-145041904D01*
X262675773Y-144851428D01*
X262675773Y-144613333D01*
X262628154Y-144422857D01*
X262580535Y-144327619D01*
X262532916Y-144280000D01*
X262437678Y-144232380D01*
X124086785Y-145232380D02*
X124086785Y-144232380D01*
X123848690Y-144232380D01*
X123705833Y-144280000D01*
X123610595Y-144375238D01*
X123562976Y-144470476D01*
X123515357Y-144660952D01*
X123515357Y-144803809D01*
X123562976Y-144994285D01*
X123610595Y-145089523D01*
X123705833Y-145184761D01*
X123848690Y-145232380D01*
X124086785Y-145232380D01*
X122658214Y-144565714D02*
X122658214Y-145232380D01*
X122896309Y-144184761D02*
X123134404Y-144899047D01*
X122515357Y-144899047D01*
X122229642Y-144232380D02*
X121610595Y-144232380D01*
X121943928Y-144613333D01*
X121801071Y-144613333D01*
X121705833Y-144660952D01*
X121658214Y-144708571D01*
X121610595Y-144803809D01*
X121610595Y-145041904D01*
X121658214Y-145137142D01*
X121705833Y-145184761D01*
X121801071Y-145232380D01*
X122086785Y-145232380D01*
X122182023Y-145184761D01*
X122229642Y-145137142D01*
X290774285Y-145232380D02*
X290774285Y-144232380D01*
X290536190Y-144232380D01*
X290393333Y-144280000D01*
X290298095Y-144375238D01*
X290250476Y-144470476D01*
X290202857Y-144660952D01*
X290202857Y-144803809D01*
X290250476Y-144994285D01*
X290298095Y-145089523D01*
X290393333Y-145184761D01*
X290536190Y-145232380D01*
X290774285Y-145232380D01*
X289298095Y-144232380D02*
X289774285Y-144232380D01*
X289821904Y-144708571D01*
X289774285Y-144660952D01*
X289679047Y-144613333D01*
X289440952Y-144613333D01*
X289345714Y-144660952D01*
X289298095Y-144708571D01*
X289250476Y-144803809D01*
X289250476Y-145041904D01*
X289298095Y-145137142D01*
X289345714Y-145184761D01*
X289440952Y-145232380D01*
X289679047Y-145232380D01*
X289774285Y-145184761D01*
X289821904Y-145137142D01*
X288298095Y-145232380D02*
X288869523Y-145232380D01*
X288583809Y-145232380D02*
X288583809Y-144232380D01*
X288679047Y-144375238D01*
X288774285Y-144470476D01*
X288869523Y-144518095D01*
X143136785Y-145232380D02*
X143136785Y-144232380D01*
X142898690Y-144232380D01*
X142755833Y-144280000D01*
X142660595Y-144375238D01*
X142612976Y-144470476D01*
X142565357Y-144660952D01*
X142565357Y-144803809D01*
X142612976Y-144994285D01*
X142660595Y-145089523D01*
X142755833Y-145184761D01*
X142898690Y-145232380D01*
X143136785Y-145232380D01*
X141708214Y-144565714D02*
X141708214Y-145232380D01*
X141946309Y-144184761D02*
X142184404Y-144899047D01*
X141565357Y-144899047D01*
X140755833Y-144565714D02*
X140755833Y-145232380D01*
X140993928Y-144184761D02*
X141232023Y-144899047D01*
X140612976Y-144899047D01*
X309824285Y-145232380D02*
X309824285Y-144232380D01*
X309586190Y-144232380D01*
X309443333Y-144280000D01*
X309348095Y-144375238D01*
X309300476Y-144470476D01*
X309252857Y-144660952D01*
X309252857Y-144803809D01*
X309300476Y-144994285D01*
X309348095Y-145089523D01*
X309443333Y-145184761D01*
X309586190Y-145232380D01*
X309824285Y-145232380D01*
X308348095Y-144232380D02*
X308824285Y-144232380D01*
X308871904Y-144708571D01*
X308824285Y-144660952D01*
X308729047Y-144613333D01*
X308490952Y-144613333D01*
X308395714Y-144660952D01*
X308348095Y-144708571D01*
X308300476Y-144803809D01*
X308300476Y-145041904D01*
X308348095Y-145137142D01*
X308395714Y-145184761D01*
X308490952Y-145232380D01*
X308729047Y-145232380D01*
X308824285Y-145184761D01*
X308871904Y-145137142D01*
X307919523Y-144327619D02*
X307871904Y-144280000D01*
X307776666Y-144232380D01*
X307538571Y-144232380D01*
X307443333Y-144280000D01*
X307395714Y-144327619D01*
X307348095Y-144422857D01*
X307348095Y-144518095D01*
X307395714Y-144660952D01*
X307967142Y-145232380D01*
X307348095Y-145232380D01*
X162186785Y-145232380D02*
X162186785Y-144232380D01*
X161948690Y-144232380D01*
X161805833Y-144280000D01*
X161710595Y-144375238D01*
X161662976Y-144470476D01*
X161615357Y-144660952D01*
X161615357Y-144803809D01*
X161662976Y-144994285D01*
X161710595Y-145089523D01*
X161805833Y-145184761D01*
X161948690Y-145232380D01*
X162186785Y-145232380D01*
X160758214Y-144565714D02*
X160758214Y-145232380D01*
X160996309Y-144184761D02*
X161234404Y-144899047D01*
X160615357Y-144899047D01*
X159758214Y-144232380D02*
X160234404Y-144232380D01*
X160282023Y-144708571D01*
X160234404Y-144660952D01*
X160139166Y-144613333D01*
X159901071Y-144613333D01*
X159805833Y-144660952D01*
X159758214Y-144708571D01*
X159710595Y-144803809D01*
X159710595Y-145041904D01*
X159758214Y-145137142D01*
X159805833Y-145184761D01*
X159901071Y-145232380D01*
X160139166Y-145232380D01*
X160234404Y-145184761D01*
X160282023Y-145137142D01*
X181236785Y-145232380D02*
X181236785Y-144232380D01*
X180998690Y-144232380D01*
X180855833Y-144280000D01*
X180760595Y-144375238D01*
X180712976Y-144470476D01*
X180665357Y-144660952D01*
X180665357Y-144803809D01*
X180712976Y-144994285D01*
X180760595Y-145089523D01*
X180855833Y-145184761D01*
X180998690Y-145232380D01*
X181236785Y-145232380D01*
X179808214Y-144565714D02*
X179808214Y-145232380D01*
X180046309Y-144184761D02*
X180284404Y-144899047D01*
X179665357Y-144899047D01*
X178855833Y-144232380D02*
X179046309Y-144232380D01*
X179141547Y-144280000D01*
X179189166Y-144327619D01*
X179284404Y-144470476D01*
X179332023Y-144660952D01*
X179332023Y-145041904D01*
X179284404Y-145137142D01*
X179236785Y-145184761D01*
X179141547Y-145232380D01*
X178951071Y-145232380D01*
X178855833Y-145184761D01*
X178808214Y-145137142D01*
X178760595Y-145041904D01*
X178760595Y-144803809D01*
X178808214Y-144708571D01*
X178855833Y-144660952D01*
X178951071Y-144613333D01*
X179141547Y-144613333D01*
X179236785Y-144660952D01*
X179284404Y-144708571D01*
X179332023Y-144803809D01*
X31218035Y-126182380D02*
X31218035Y-125182380D01*
X30979940Y-125182380D01*
X30837083Y-125230000D01*
X30741845Y-125325238D01*
X30694226Y-125420476D01*
X30646607Y-125610952D01*
X30646607Y-125753809D01*
X30694226Y-125944285D01*
X30741845Y-126039523D01*
X30837083Y-126134761D01*
X30979940Y-126182380D01*
X31218035Y-126182380D01*
X29741845Y-125182380D02*
X30218035Y-125182380D01*
X30265654Y-125658571D01*
X30218035Y-125610952D01*
X30122797Y-125563333D01*
X29884702Y-125563333D01*
X29789464Y-125610952D01*
X29741845Y-125658571D01*
X29694226Y-125753809D01*
X29694226Y-125991904D01*
X29741845Y-126087142D01*
X29789464Y-126134761D01*
X29884702Y-126182380D01*
X30122797Y-126182380D01*
X30218035Y-126134761D01*
X30265654Y-126087142D01*
X29360892Y-125182380D02*
X28741845Y-125182380D01*
X29075178Y-125563333D01*
X28932321Y-125563333D01*
X28837083Y-125610952D01*
X28789464Y-125658571D01*
X28741845Y-125753809D01*
X28741845Y-125991904D01*
X28789464Y-126087142D01*
X28837083Y-126134761D01*
X28932321Y-126182380D01*
X29218035Y-126182380D01*
X29313273Y-126134761D01*
X29360892Y-126087142D01*
X190761785Y-126182380D02*
X190761785Y-125182380D01*
X190523690Y-125182380D01*
X190380833Y-125230000D01*
X190285595Y-125325238D01*
X190237976Y-125420476D01*
X190190357Y-125610952D01*
X190190357Y-125753809D01*
X190237976Y-125944285D01*
X190285595Y-126039523D01*
X190380833Y-126134761D01*
X190523690Y-126182380D01*
X190761785Y-126182380D01*
X189333214Y-125182380D02*
X189523690Y-125182380D01*
X189618928Y-125230000D01*
X189666547Y-125277619D01*
X189761785Y-125420476D01*
X189809404Y-125610952D01*
X189809404Y-125991904D01*
X189761785Y-126087142D01*
X189714166Y-126134761D01*
X189618928Y-126182380D01*
X189428452Y-126182380D01*
X189333214Y-126134761D01*
X189285595Y-126087142D01*
X189237976Y-125991904D01*
X189237976Y-125753809D01*
X189285595Y-125658571D01*
X189333214Y-125610952D01*
X189428452Y-125563333D01*
X189618928Y-125563333D01*
X189714166Y-125610952D01*
X189761785Y-125658571D01*
X189809404Y-125753809D01*
X188285595Y-126182380D02*
X188857023Y-126182380D01*
X188571309Y-126182380D02*
X188571309Y-125182380D01*
X188666547Y-125325238D01*
X188761785Y-125420476D01*
X188857023Y-125468095D01*
X57411785Y-126182380D02*
X57411785Y-125182380D01*
X57173690Y-125182380D01*
X57030833Y-125230000D01*
X56935595Y-125325238D01*
X56887976Y-125420476D01*
X56840357Y-125610952D01*
X56840357Y-125753809D01*
X56887976Y-125944285D01*
X56935595Y-126039523D01*
X57030833Y-126134761D01*
X57173690Y-126182380D01*
X57411785Y-126182380D01*
X55935595Y-125182380D02*
X56411785Y-125182380D01*
X56459404Y-125658571D01*
X56411785Y-125610952D01*
X56316547Y-125563333D01*
X56078452Y-125563333D01*
X55983214Y-125610952D01*
X55935595Y-125658571D01*
X55887976Y-125753809D01*
X55887976Y-125991904D01*
X55935595Y-126087142D01*
X55983214Y-126134761D01*
X56078452Y-126182380D01*
X56316547Y-126182380D01*
X56411785Y-126134761D01*
X56459404Y-126087142D01*
X55030833Y-125515714D02*
X55030833Y-126182380D01*
X55268928Y-125134761D02*
X55507023Y-125849047D01*
X54887976Y-125849047D01*
X209811785Y-126182380D02*
X209811785Y-125182380D01*
X209573690Y-125182380D01*
X209430833Y-125230000D01*
X209335595Y-125325238D01*
X209287976Y-125420476D01*
X209240357Y-125610952D01*
X209240357Y-125753809D01*
X209287976Y-125944285D01*
X209335595Y-126039523D01*
X209430833Y-126134761D01*
X209573690Y-126182380D01*
X209811785Y-126182380D01*
X208383214Y-125182380D02*
X208573690Y-125182380D01*
X208668928Y-125230000D01*
X208716547Y-125277619D01*
X208811785Y-125420476D01*
X208859404Y-125610952D01*
X208859404Y-125991904D01*
X208811785Y-126087142D01*
X208764166Y-126134761D01*
X208668928Y-126182380D01*
X208478452Y-126182380D01*
X208383214Y-126134761D01*
X208335595Y-126087142D01*
X208287976Y-125991904D01*
X208287976Y-125753809D01*
X208335595Y-125658571D01*
X208383214Y-125610952D01*
X208478452Y-125563333D01*
X208668928Y-125563333D01*
X208764166Y-125610952D01*
X208811785Y-125658571D01*
X208859404Y-125753809D01*
X207907023Y-125277619D02*
X207859404Y-125230000D01*
X207764166Y-125182380D01*
X207526071Y-125182380D01*
X207430833Y-125230000D01*
X207383214Y-125277619D01*
X207335595Y-125372857D01*
X207335595Y-125468095D01*
X207383214Y-125610952D01*
X207954642Y-126182380D01*
X207335595Y-126182380D01*
X76461785Y-126182380D02*
X76461785Y-125182380D01*
X76223690Y-125182380D01*
X76080833Y-125230000D01*
X75985595Y-125325238D01*
X75937976Y-125420476D01*
X75890357Y-125610952D01*
X75890357Y-125753809D01*
X75937976Y-125944285D01*
X75985595Y-126039523D01*
X76080833Y-126134761D01*
X76223690Y-126182380D01*
X76461785Y-126182380D01*
X74985595Y-125182380D02*
X75461785Y-125182380D01*
X75509404Y-125658571D01*
X75461785Y-125610952D01*
X75366547Y-125563333D01*
X75128452Y-125563333D01*
X75033214Y-125610952D01*
X74985595Y-125658571D01*
X74937976Y-125753809D01*
X74937976Y-125991904D01*
X74985595Y-126087142D01*
X75033214Y-126134761D01*
X75128452Y-126182380D01*
X75366547Y-126182380D01*
X75461785Y-126134761D01*
X75509404Y-126087142D01*
X74033214Y-125182380D02*
X74509404Y-125182380D01*
X74557023Y-125658571D01*
X74509404Y-125610952D01*
X74414166Y-125563333D01*
X74176071Y-125563333D01*
X74080833Y-125610952D01*
X74033214Y-125658571D01*
X73985595Y-125753809D01*
X73985595Y-125991904D01*
X74033214Y-126087142D01*
X74080833Y-126134761D01*
X74176071Y-126182380D01*
X74414166Y-126182380D01*
X74509404Y-126134761D01*
X74557023Y-126087142D01*
X228861785Y-126182380D02*
X228861785Y-125182380D01*
X228623690Y-125182380D01*
X228480833Y-125230000D01*
X228385595Y-125325238D01*
X228337976Y-125420476D01*
X228290357Y-125610952D01*
X228290357Y-125753809D01*
X228337976Y-125944285D01*
X228385595Y-126039523D01*
X228480833Y-126134761D01*
X228623690Y-126182380D01*
X228861785Y-126182380D01*
X227433214Y-125182380D02*
X227623690Y-125182380D01*
X227718928Y-125230000D01*
X227766547Y-125277619D01*
X227861785Y-125420476D01*
X227909404Y-125610952D01*
X227909404Y-125991904D01*
X227861785Y-126087142D01*
X227814166Y-126134761D01*
X227718928Y-126182380D01*
X227528452Y-126182380D01*
X227433214Y-126134761D01*
X227385595Y-126087142D01*
X227337976Y-125991904D01*
X227337976Y-125753809D01*
X227385595Y-125658571D01*
X227433214Y-125610952D01*
X227528452Y-125563333D01*
X227718928Y-125563333D01*
X227814166Y-125610952D01*
X227861785Y-125658571D01*
X227909404Y-125753809D01*
X227004642Y-125182380D02*
X226385595Y-125182380D01*
X226718928Y-125563333D01*
X226576071Y-125563333D01*
X226480833Y-125610952D01*
X226433214Y-125658571D01*
X226385595Y-125753809D01*
X226385595Y-125991904D01*
X226433214Y-126087142D01*
X226480833Y-126134761D01*
X226576071Y-126182380D01*
X226861785Y-126182380D01*
X226957023Y-126134761D01*
X227004642Y-126087142D01*
X95511785Y-126182380D02*
X95511785Y-125182380D01*
X95273690Y-125182380D01*
X95130833Y-125230000D01*
X95035595Y-125325238D01*
X94987976Y-125420476D01*
X94940357Y-125610952D01*
X94940357Y-125753809D01*
X94987976Y-125944285D01*
X95035595Y-126039523D01*
X95130833Y-126134761D01*
X95273690Y-126182380D01*
X95511785Y-126182380D01*
X94035595Y-125182380D02*
X94511785Y-125182380D01*
X94559404Y-125658571D01*
X94511785Y-125610952D01*
X94416547Y-125563333D01*
X94178452Y-125563333D01*
X94083214Y-125610952D01*
X94035595Y-125658571D01*
X93987976Y-125753809D01*
X93987976Y-125991904D01*
X94035595Y-126087142D01*
X94083214Y-126134761D01*
X94178452Y-126182380D01*
X94416547Y-126182380D01*
X94511785Y-126134761D01*
X94559404Y-126087142D01*
X93130833Y-125182380D02*
X93321309Y-125182380D01*
X93416547Y-125230000D01*
X93464166Y-125277619D01*
X93559404Y-125420476D01*
X93607023Y-125610952D01*
X93607023Y-125991904D01*
X93559404Y-126087142D01*
X93511785Y-126134761D01*
X93416547Y-126182380D01*
X93226071Y-126182380D01*
X93130833Y-126134761D01*
X93083214Y-126087142D01*
X93035595Y-125991904D01*
X93035595Y-125753809D01*
X93083214Y-125658571D01*
X93130833Y-125610952D01*
X93226071Y-125563333D01*
X93416547Y-125563333D01*
X93511785Y-125610952D01*
X93559404Y-125658571D01*
X93607023Y-125753809D01*
X247911785Y-126182380D02*
X247911785Y-125182380D01*
X247673690Y-125182380D01*
X247530833Y-125230000D01*
X247435595Y-125325238D01*
X247387976Y-125420476D01*
X247340357Y-125610952D01*
X247340357Y-125753809D01*
X247387976Y-125944285D01*
X247435595Y-126039523D01*
X247530833Y-126134761D01*
X247673690Y-126182380D01*
X247911785Y-126182380D01*
X246483214Y-125182380D02*
X246673690Y-125182380D01*
X246768928Y-125230000D01*
X246816547Y-125277619D01*
X246911785Y-125420476D01*
X246959404Y-125610952D01*
X246959404Y-125991904D01*
X246911785Y-126087142D01*
X246864166Y-126134761D01*
X246768928Y-126182380D01*
X246578452Y-126182380D01*
X246483214Y-126134761D01*
X246435595Y-126087142D01*
X246387976Y-125991904D01*
X246387976Y-125753809D01*
X246435595Y-125658571D01*
X246483214Y-125610952D01*
X246578452Y-125563333D01*
X246768928Y-125563333D01*
X246864166Y-125610952D01*
X246911785Y-125658571D01*
X246959404Y-125753809D01*
X245530833Y-125515714D02*
X245530833Y-126182380D01*
X245768928Y-125134761D02*
X246007023Y-125849047D01*
X245387976Y-125849047D01*
X114561785Y-126182380D02*
X114561785Y-125182380D01*
X114323690Y-125182380D01*
X114180833Y-125230000D01*
X114085595Y-125325238D01*
X114037976Y-125420476D01*
X113990357Y-125610952D01*
X113990357Y-125753809D01*
X114037976Y-125944285D01*
X114085595Y-126039523D01*
X114180833Y-126134761D01*
X114323690Y-126182380D01*
X114561785Y-126182380D01*
X113085595Y-125182380D02*
X113561785Y-125182380D01*
X113609404Y-125658571D01*
X113561785Y-125610952D01*
X113466547Y-125563333D01*
X113228452Y-125563333D01*
X113133214Y-125610952D01*
X113085595Y-125658571D01*
X113037976Y-125753809D01*
X113037976Y-125991904D01*
X113085595Y-126087142D01*
X113133214Y-126134761D01*
X113228452Y-126182380D01*
X113466547Y-126182380D01*
X113561785Y-126134761D01*
X113609404Y-126087142D01*
X112704642Y-125182380D02*
X112037976Y-125182380D01*
X112466547Y-126182380D01*
X278868035Y-126182380D02*
X278868035Y-125182380D01*
X278629940Y-125182380D01*
X278487083Y-125230000D01*
X278391845Y-125325238D01*
X278344226Y-125420476D01*
X278296607Y-125610952D01*
X278296607Y-125753809D01*
X278344226Y-125944285D01*
X278391845Y-126039523D01*
X278487083Y-126134761D01*
X278629940Y-126182380D01*
X278868035Y-126182380D01*
X277439464Y-125182380D02*
X277629940Y-125182380D01*
X277725178Y-125230000D01*
X277772797Y-125277619D01*
X277868035Y-125420476D01*
X277915654Y-125610952D01*
X277915654Y-125991904D01*
X277868035Y-126087142D01*
X277820416Y-126134761D01*
X277725178Y-126182380D01*
X277534702Y-126182380D01*
X277439464Y-126134761D01*
X277391845Y-126087142D01*
X277344226Y-125991904D01*
X277344226Y-125753809D01*
X277391845Y-125658571D01*
X277439464Y-125610952D01*
X277534702Y-125563333D01*
X277725178Y-125563333D01*
X277820416Y-125610952D01*
X277868035Y-125658571D01*
X277915654Y-125753809D01*
X276439464Y-125182380D02*
X276915654Y-125182380D01*
X276963273Y-125658571D01*
X276915654Y-125610952D01*
X276820416Y-125563333D01*
X276582321Y-125563333D01*
X276487083Y-125610952D01*
X276439464Y-125658571D01*
X276391845Y-125753809D01*
X276391845Y-125991904D01*
X276439464Y-126087142D01*
X276487083Y-126134761D01*
X276582321Y-126182380D01*
X276820416Y-126182380D01*
X276915654Y-126134761D01*
X276963273Y-126087142D01*
X133611785Y-126182380D02*
X133611785Y-125182380D01*
X133373690Y-125182380D01*
X133230833Y-125230000D01*
X133135595Y-125325238D01*
X133087976Y-125420476D01*
X133040357Y-125610952D01*
X133040357Y-125753809D01*
X133087976Y-125944285D01*
X133135595Y-126039523D01*
X133230833Y-126134761D01*
X133373690Y-126182380D01*
X133611785Y-126182380D01*
X132135595Y-125182380D02*
X132611785Y-125182380D01*
X132659404Y-125658571D01*
X132611785Y-125610952D01*
X132516547Y-125563333D01*
X132278452Y-125563333D01*
X132183214Y-125610952D01*
X132135595Y-125658571D01*
X132087976Y-125753809D01*
X132087976Y-125991904D01*
X132135595Y-126087142D01*
X132183214Y-126134761D01*
X132278452Y-126182380D01*
X132516547Y-126182380D01*
X132611785Y-126134761D01*
X132659404Y-126087142D01*
X131516547Y-125610952D02*
X131611785Y-125563333D01*
X131659404Y-125515714D01*
X131707023Y-125420476D01*
X131707023Y-125372857D01*
X131659404Y-125277619D01*
X131611785Y-125230000D01*
X131516547Y-125182380D01*
X131326071Y-125182380D01*
X131230833Y-125230000D01*
X131183214Y-125277619D01*
X131135595Y-125372857D01*
X131135595Y-125420476D01*
X131183214Y-125515714D01*
X131230833Y-125563333D01*
X131326071Y-125610952D01*
X131516547Y-125610952D01*
X131611785Y-125658571D01*
X131659404Y-125706190D01*
X131707023Y-125801428D01*
X131707023Y-125991904D01*
X131659404Y-126087142D01*
X131611785Y-126134761D01*
X131516547Y-126182380D01*
X131326071Y-126182380D01*
X131230833Y-126134761D01*
X131183214Y-126087142D01*
X131135595Y-125991904D01*
X131135595Y-125801428D01*
X131183214Y-125706190D01*
X131230833Y-125658571D01*
X131326071Y-125610952D01*
X309824285Y-125547380D02*
X309824285Y-124547380D01*
X309586190Y-124547380D01*
X309443333Y-124595000D01*
X309348095Y-124690238D01*
X309300476Y-124785476D01*
X309252857Y-124975952D01*
X309252857Y-125118809D01*
X309300476Y-125309285D01*
X309348095Y-125404523D01*
X309443333Y-125499761D01*
X309586190Y-125547380D01*
X309824285Y-125547380D01*
X308395714Y-124547380D02*
X308586190Y-124547380D01*
X308681428Y-124595000D01*
X308729047Y-124642619D01*
X308824285Y-124785476D01*
X308871904Y-124975952D01*
X308871904Y-125356904D01*
X308824285Y-125452142D01*
X308776666Y-125499761D01*
X308681428Y-125547380D01*
X308490952Y-125547380D01*
X308395714Y-125499761D01*
X308348095Y-125452142D01*
X308300476Y-125356904D01*
X308300476Y-125118809D01*
X308348095Y-125023571D01*
X308395714Y-124975952D01*
X308490952Y-124928333D01*
X308681428Y-124928333D01*
X308776666Y-124975952D01*
X308824285Y-125023571D01*
X308871904Y-125118809D01*
X307443333Y-124547380D02*
X307633809Y-124547380D01*
X307729047Y-124595000D01*
X307776666Y-124642619D01*
X307871904Y-124785476D01*
X307919523Y-124975952D01*
X307919523Y-125356904D01*
X307871904Y-125452142D01*
X307824285Y-125499761D01*
X307729047Y-125547380D01*
X307538571Y-125547380D01*
X307443333Y-125499761D01*
X307395714Y-125452142D01*
X307348095Y-125356904D01*
X307348095Y-125118809D01*
X307395714Y-125023571D01*
X307443333Y-124975952D01*
X307538571Y-124928333D01*
X307729047Y-124928333D01*
X307824285Y-124975952D01*
X307871904Y-125023571D01*
X307919523Y-125118809D01*
X152661785Y-126182380D02*
X152661785Y-125182380D01*
X152423690Y-125182380D01*
X152280833Y-125230000D01*
X152185595Y-125325238D01*
X152137976Y-125420476D01*
X152090357Y-125610952D01*
X152090357Y-125753809D01*
X152137976Y-125944285D01*
X152185595Y-126039523D01*
X152280833Y-126134761D01*
X152423690Y-126182380D01*
X152661785Y-126182380D01*
X151185595Y-125182380D02*
X151661785Y-125182380D01*
X151709404Y-125658571D01*
X151661785Y-125610952D01*
X151566547Y-125563333D01*
X151328452Y-125563333D01*
X151233214Y-125610952D01*
X151185595Y-125658571D01*
X151137976Y-125753809D01*
X151137976Y-125991904D01*
X151185595Y-126087142D01*
X151233214Y-126134761D01*
X151328452Y-126182380D01*
X151566547Y-126182380D01*
X151661785Y-126134761D01*
X151709404Y-126087142D01*
X150661785Y-126182380D02*
X150471309Y-126182380D01*
X150376071Y-126134761D01*
X150328452Y-126087142D01*
X150233214Y-125944285D01*
X150185595Y-125753809D01*
X150185595Y-125372857D01*
X150233214Y-125277619D01*
X150280833Y-125230000D01*
X150376071Y-125182380D01*
X150566547Y-125182380D01*
X150661785Y-125230000D01*
X150709404Y-125277619D01*
X150757023Y-125372857D01*
X150757023Y-125610952D01*
X150709404Y-125706190D01*
X150661785Y-125753809D01*
X150566547Y-125801428D01*
X150376071Y-125801428D01*
X150280833Y-125753809D01*
X150233214Y-125706190D01*
X150185595Y-125610952D01*
X171711785Y-126182380D02*
X171711785Y-125182380D01*
X171473690Y-125182380D01*
X171330833Y-125230000D01*
X171235595Y-125325238D01*
X171187976Y-125420476D01*
X171140357Y-125610952D01*
X171140357Y-125753809D01*
X171187976Y-125944285D01*
X171235595Y-126039523D01*
X171330833Y-126134761D01*
X171473690Y-126182380D01*
X171711785Y-126182380D01*
X170283214Y-125182380D02*
X170473690Y-125182380D01*
X170568928Y-125230000D01*
X170616547Y-125277619D01*
X170711785Y-125420476D01*
X170759404Y-125610952D01*
X170759404Y-125991904D01*
X170711785Y-126087142D01*
X170664166Y-126134761D01*
X170568928Y-126182380D01*
X170378452Y-126182380D01*
X170283214Y-126134761D01*
X170235595Y-126087142D01*
X170187976Y-125991904D01*
X170187976Y-125753809D01*
X170235595Y-125658571D01*
X170283214Y-125610952D01*
X170378452Y-125563333D01*
X170568928Y-125563333D01*
X170664166Y-125610952D01*
X170711785Y-125658571D01*
X170759404Y-125753809D01*
X169568928Y-125182380D02*
X169473690Y-125182380D01*
X169378452Y-125230000D01*
X169330833Y-125277619D01*
X169283214Y-125372857D01*
X169235595Y-125563333D01*
X169235595Y-125801428D01*
X169283214Y-125991904D01*
X169330833Y-126087142D01*
X169378452Y-126134761D01*
X169473690Y-126182380D01*
X169568928Y-126182380D01*
X169664166Y-126134761D01*
X169711785Y-126087142D01*
X169759404Y-125991904D01*
X169807023Y-125801428D01*
X169807023Y-125563333D01*
X169759404Y-125372857D01*
X169711785Y-125277619D01*
X169664166Y-125230000D01*
X169568928Y-125182380D01*
X28836785Y-107132380D02*
X28836785Y-106132380D01*
X28598690Y-106132380D01*
X28455833Y-106180000D01*
X28360595Y-106275238D01*
X28312976Y-106370476D01*
X28265357Y-106560952D01*
X28265357Y-106703809D01*
X28312976Y-106894285D01*
X28360595Y-106989523D01*
X28455833Y-107084761D01*
X28598690Y-107132380D01*
X28836785Y-107132380D01*
X27408214Y-106132380D02*
X27598690Y-106132380D01*
X27693928Y-106180000D01*
X27741547Y-106227619D01*
X27836785Y-106370476D01*
X27884404Y-106560952D01*
X27884404Y-106941904D01*
X27836785Y-107037142D01*
X27789166Y-107084761D01*
X27693928Y-107132380D01*
X27503452Y-107132380D01*
X27408214Y-107084761D01*
X27360595Y-107037142D01*
X27312976Y-106941904D01*
X27312976Y-106703809D01*
X27360595Y-106608571D01*
X27408214Y-106560952D01*
X27503452Y-106513333D01*
X27693928Y-106513333D01*
X27789166Y-106560952D01*
X27836785Y-106608571D01*
X27884404Y-106703809D01*
X26979642Y-106132380D02*
X26312976Y-106132380D01*
X26741547Y-107132380D01*
X185999285Y-107132380D02*
X185999285Y-106132380D01*
X185761190Y-106132380D01*
X185618333Y-106180000D01*
X185523095Y-106275238D01*
X185475476Y-106370476D01*
X185427857Y-106560952D01*
X185427857Y-106703809D01*
X185475476Y-106894285D01*
X185523095Y-106989523D01*
X185618333Y-107084761D01*
X185761190Y-107132380D01*
X185999285Y-107132380D01*
X185094523Y-106132380D02*
X184427857Y-106132380D01*
X184856428Y-107132380D01*
X183570714Y-106132380D02*
X184046904Y-106132380D01*
X184094523Y-106608571D01*
X184046904Y-106560952D01*
X183951666Y-106513333D01*
X183713571Y-106513333D01*
X183618333Y-106560952D01*
X183570714Y-106608571D01*
X183523095Y-106703809D01*
X183523095Y-106941904D01*
X183570714Y-107037142D01*
X183618333Y-107084761D01*
X183713571Y-107132380D01*
X183951666Y-107132380D01*
X184046904Y-107084761D01*
X184094523Y-107037142D01*
X52649285Y-107132380D02*
X52649285Y-106132380D01*
X52411190Y-106132380D01*
X52268333Y-106180000D01*
X52173095Y-106275238D01*
X52125476Y-106370476D01*
X52077857Y-106560952D01*
X52077857Y-106703809D01*
X52125476Y-106894285D01*
X52173095Y-106989523D01*
X52268333Y-107084761D01*
X52411190Y-107132380D01*
X52649285Y-107132380D01*
X51220714Y-106132380D02*
X51411190Y-106132380D01*
X51506428Y-106180000D01*
X51554047Y-106227619D01*
X51649285Y-106370476D01*
X51696904Y-106560952D01*
X51696904Y-106941904D01*
X51649285Y-107037142D01*
X51601666Y-107084761D01*
X51506428Y-107132380D01*
X51315952Y-107132380D01*
X51220714Y-107084761D01*
X51173095Y-107037142D01*
X51125476Y-106941904D01*
X51125476Y-106703809D01*
X51173095Y-106608571D01*
X51220714Y-106560952D01*
X51315952Y-106513333D01*
X51506428Y-106513333D01*
X51601666Y-106560952D01*
X51649285Y-106608571D01*
X51696904Y-106703809D01*
X50554047Y-106560952D02*
X50649285Y-106513333D01*
X50696904Y-106465714D01*
X50744523Y-106370476D01*
X50744523Y-106322857D01*
X50696904Y-106227619D01*
X50649285Y-106180000D01*
X50554047Y-106132380D01*
X50363571Y-106132380D01*
X50268333Y-106180000D01*
X50220714Y-106227619D01*
X50173095Y-106322857D01*
X50173095Y-106370476D01*
X50220714Y-106465714D01*
X50268333Y-106513333D01*
X50363571Y-106560952D01*
X50554047Y-106560952D01*
X50649285Y-106608571D01*
X50696904Y-106656190D01*
X50744523Y-106751428D01*
X50744523Y-106941904D01*
X50696904Y-107037142D01*
X50649285Y-107084761D01*
X50554047Y-107132380D01*
X50363571Y-107132380D01*
X50268333Y-107084761D01*
X50220714Y-107037142D01*
X50173095Y-106941904D01*
X50173095Y-106751428D01*
X50220714Y-106656190D01*
X50268333Y-106608571D01*
X50363571Y-106560952D01*
X205049285Y-107132380D02*
X205049285Y-106132380D01*
X204811190Y-106132380D01*
X204668333Y-106180000D01*
X204573095Y-106275238D01*
X204525476Y-106370476D01*
X204477857Y-106560952D01*
X204477857Y-106703809D01*
X204525476Y-106894285D01*
X204573095Y-106989523D01*
X204668333Y-107084761D01*
X204811190Y-107132380D01*
X205049285Y-107132380D01*
X204144523Y-106132380D02*
X203477857Y-106132380D01*
X203906428Y-107132380D01*
X202668333Y-106132380D02*
X202858809Y-106132380D01*
X202954047Y-106180000D01*
X203001666Y-106227619D01*
X203096904Y-106370476D01*
X203144523Y-106560952D01*
X203144523Y-106941904D01*
X203096904Y-107037142D01*
X203049285Y-107084761D01*
X202954047Y-107132380D01*
X202763571Y-107132380D01*
X202668333Y-107084761D01*
X202620714Y-107037142D01*
X202573095Y-106941904D01*
X202573095Y-106703809D01*
X202620714Y-106608571D01*
X202668333Y-106560952D01*
X202763571Y-106513333D01*
X202954047Y-106513333D01*
X203049285Y-106560952D01*
X203096904Y-106608571D01*
X203144523Y-106703809D01*
X71699285Y-107132380D02*
X71699285Y-106132380D01*
X71461190Y-106132380D01*
X71318333Y-106180000D01*
X71223095Y-106275238D01*
X71175476Y-106370476D01*
X71127857Y-106560952D01*
X71127857Y-106703809D01*
X71175476Y-106894285D01*
X71223095Y-106989523D01*
X71318333Y-107084761D01*
X71461190Y-107132380D01*
X71699285Y-107132380D01*
X70270714Y-106132380D02*
X70461190Y-106132380D01*
X70556428Y-106180000D01*
X70604047Y-106227619D01*
X70699285Y-106370476D01*
X70746904Y-106560952D01*
X70746904Y-106941904D01*
X70699285Y-107037142D01*
X70651666Y-107084761D01*
X70556428Y-107132380D01*
X70365952Y-107132380D01*
X70270714Y-107084761D01*
X70223095Y-107037142D01*
X70175476Y-106941904D01*
X70175476Y-106703809D01*
X70223095Y-106608571D01*
X70270714Y-106560952D01*
X70365952Y-106513333D01*
X70556428Y-106513333D01*
X70651666Y-106560952D01*
X70699285Y-106608571D01*
X70746904Y-106703809D01*
X69699285Y-107132380D02*
X69508809Y-107132380D01*
X69413571Y-107084761D01*
X69365952Y-107037142D01*
X69270714Y-106894285D01*
X69223095Y-106703809D01*
X69223095Y-106322857D01*
X69270714Y-106227619D01*
X69318333Y-106180000D01*
X69413571Y-106132380D01*
X69604047Y-106132380D01*
X69699285Y-106180000D01*
X69746904Y-106227619D01*
X69794523Y-106322857D01*
X69794523Y-106560952D01*
X69746904Y-106656190D01*
X69699285Y-106703809D01*
X69604047Y-106751428D01*
X69413571Y-106751428D01*
X69318333Y-106703809D01*
X69270714Y-106656190D01*
X69223095Y-106560952D01*
X224099285Y-107132380D02*
X224099285Y-106132380D01*
X223861190Y-106132380D01*
X223718333Y-106180000D01*
X223623095Y-106275238D01*
X223575476Y-106370476D01*
X223527857Y-106560952D01*
X223527857Y-106703809D01*
X223575476Y-106894285D01*
X223623095Y-106989523D01*
X223718333Y-107084761D01*
X223861190Y-107132380D01*
X224099285Y-107132380D01*
X223194523Y-106132380D02*
X222527857Y-106132380D01*
X222956428Y-107132380D01*
X222242142Y-106132380D02*
X221575476Y-106132380D01*
X222004047Y-107132380D01*
X90749285Y-107132380D02*
X90749285Y-106132380D01*
X90511190Y-106132380D01*
X90368333Y-106180000D01*
X90273095Y-106275238D01*
X90225476Y-106370476D01*
X90177857Y-106560952D01*
X90177857Y-106703809D01*
X90225476Y-106894285D01*
X90273095Y-106989523D01*
X90368333Y-107084761D01*
X90511190Y-107132380D01*
X90749285Y-107132380D01*
X89844523Y-106132380D02*
X89177857Y-106132380D01*
X89606428Y-107132380D01*
X88606428Y-106132380D02*
X88511190Y-106132380D01*
X88415952Y-106180000D01*
X88368333Y-106227619D01*
X88320714Y-106322857D01*
X88273095Y-106513333D01*
X88273095Y-106751428D01*
X88320714Y-106941904D01*
X88368333Y-107037142D01*
X88415952Y-107084761D01*
X88511190Y-107132380D01*
X88606428Y-107132380D01*
X88701666Y-107084761D01*
X88749285Y-107037142D01*
X88796904Y-106941904D01*
X88844523Y-106751428D01*
X88844523Y-106513333D01*
X88796904Y-106322857D01*
X88749285Y-106227619D01*
X88701666Y-106180000D01*
X88606428Y-106132380D01*
X243149285Y-107132380D02*
X243149285Y-106132380D01*
X242911190Y-106132380D01*
X242768333Y-106180000D01*
X242673095Y-106275238D01*
X242625476Y-106370476D01*
X242577857Y-106560952D01*
X242577857Y-106703809D01*
X242625476Y-106894285D01*
X242673095Y-106989523D01*
X242768333Y-107084761D01*
X242911190Y-107132380D01*
X243149285Y-107132380D01*
X242244523Y-106132380D02*
X241577857Y-106132380D01*
X242006428Y-107132380D01*
X241054047Y-106560952D02*
X241149285Y-106513333D01*
X241196904Y-106465714D01*
X241244523Y-106370476D01*
X241244523Y-106322857D01*
X241196904Y-106227619D01*
X241149285Y-106180000D01*
X241054047Y-106132380D01*
X240863571Y-106132380D01*
X240768333Y-106180000D01*
X240720714Y-106227619D01*
X240673095Y-106322857D01*
X240673095Y-106370476D01*
X240720714Y-106465714D01*
X240768333Y-106513333D01*
X240863571Y-106560952D01*
X241054047Y-106560952D01*
X241149285Y-106608571D01*
X241196904Y-106656190D01*
X241244523Y-106751428D01*
X241244523Y-106941904D01*
X241196904Y-107037142D01*
X241149285Y-107084761D01*
X241054047Y-107132380D01*
X240863571Y-107132380D01*
X240768333Y-107084761D01*
X240720714Y-107037142D01*
X240673095Y-106941904D01*
X240673095Y-106751428D01*
X240720714Y-106656190D01*
X240768333Y-106608571D01*
X240863571Y-106560952D01*
X109799285Y-107132380D02*
X109799285Y-106132380D01*
X109561190Y-106132380D01*
X109418333Y-106180000D01*
X109323095Y-106275238D01*
X109275476Y-106370476D01*
X109227857Y-106560952D01*
X109227857Y-106703809D01*
X109275476Y-106894285D01*
X109323095Y-106989523D01*
X109418333Y-107084761D01*
X109561190Y-107132380D01*
X109799285Y-107132380D01*
X108894523Y-106132380D02*
X108227857Y-106132380D01*
X108656428Y-107132380D01*
X107323095Y-107132380D02*
X107894523Y-107132380D01*
X107608809Y-107132380D02*
X107608809Y-106132380D01*
X107704047Y-106275238D01*
X107799285Y-106370476D01*
X107894523Y-106418095D01*
X262199285Y-107132380D02*
X262199285Y-106132380D01*
X261961190Y-106132380D01*
X261818333Y-106180000D01*
X261723095Y-106275238D01*
X261675476Y-106370476D01*
X261627857Y-106560952D01*
X261627857Y-106703809D01*
X261675476Y-106894285D01*
X261723095Y-106989523D01*
X261818333Y-107084761D01*
X261961190Y-107132380D01*
X262199285Y-107132380D01*
X261294523Y-106132380D02*
X260627857Y-106132380D01*
X261056428Y-107132380D01*
X260199285Y-107132380D02*
X260008809Y-107132380D01*
X259913571Y-107084761D01*
X259865952Y-107037142D01*
X259770714Y-106894285D01*
X259723095Y-106703809D01*
X259723095Y-106322857D01*
X259770714Y-106227619D01*
X259818333Y-106180000D01*
X259913571Y-106132380D01*
X260104047Y-106132380D01*
X260199285Y-106180000D01*
X260246904Y-106227619D01*
X260294523Y-106322857D01*
X260294523Y-106560952D01*
X260246904Y-106656190D01*
X260199285Y-106703809D01*
X260104047Y-106751428D01*
X259913571Y-106751428D01*
X259818333Y-106703809D01*
X259770714Y-106656190D01*
X259723095Y-106560952D01*
X128849285Y-106497380D02*
X128849285Y-105497380D01*
X128611190Y-105497380D01*
X128468333Y-105545000D01*
X128373095Y-105640238D01*
X128325476Y-105735476D01*
X128277857Y-105925952D01*
X128277857Y-106068809D01*
X128325476Y-106259285D01*
X128373095Y-106354523D01*
X128468333Y-106449761D01*
X128611190Y-106497380D01*
X128849285Y-106497380D01*
X127944523Y-105497380D02*
X127277857Y-105497380D01*
X127706428Y-106497380D01*
X126944523Y-105592619D02*
X126896904Y-105545000D01*
X126801666Y-105497380D01*
X126563571Y-105497380D01*
X126468333Y-105545000D01*
X126420714Y-105592619D01*
X126373095Y-105687857D01*
X126373095Y-105783095D01*
X126420714Y-105925952D01*
X126992142Y-106497380D01*
X126373095Y-106497380D01*
X286011785Y-107132380D02*
X286011785Y-106132380D01*
X285773690Y-106132380D01*
X285630833Y-106180000D01*
X285535595Y-106275238D01*
X285487976Y-106370476D01*
X285440357Y-106560952D01*
X285440357Y-106703809D01*
X285487976Y-106894285D01*
X285535595Y-106989523D01*
X285630833Y-107084761D01*
X285773690Y-107132380D01*
X286011785Y-107132380D01*
X284868928Y-106560952D02*
X284964166Y-106513333D01*
X285011785Y-106465714D01*
X285059404Y-106370476D01*
X285059404Y-106322857D01*
X285011785Y-106227619D01*
X284964166Y-106180000D01*
X284868928Y-106132380D01*
X284678452Y-106132380D01*
X284583214Y-106180000D01*
X284535595Y-106227619D01*
X284487976Y-106322857D01*
X284487976Y-106370476D01*
X284535595Y-106465714D01*
X284583214Y-106513333D01*
X284678452Y-106560952D01*
X284868928Y-106560952D01*
X284964166Y-106608571D01*
X285011785Y-106656190D01*
X285059404Y-106751428D01*
X285059404Y-106941904D01*
X285011785Y-107037142D01*
X284964166Y-107084761D01*
X284868928Y-107132380D01*
X284678452Y-107132380D01*
X284583214Y-107084761D01*
X284535595Y-107037142D01*
X284487976Y-106941904D01*
X284487976Y-106751428D01*
X284535595Y-106656190D01*
X284583214Y-106608571D01*
X284678452Y-106560952D01*
X283868928Y-106132380D02*
X283773690Y-106132380D01*
X283678452Y-106180000D01*
X283630833Y-106227619D01*
X283583214Y-106322857D01*
X283535595Y-106513333D01*
X283535595Y-106751428D01*
X283583214Y-106941904D01*
X283630833Y-107037142D01*
X283678452Y-107084761D01*
X283773690Y-107132380D01*
X283868928Y-107132380D01*
X283964166Y-107084761D01*
X284011785Y-107037142D01*
X284059404Y-106941904D01*
X284107023Y-106751428D01*
X284107023Y-106513333D01*
X284059404Y-106322857D01*
X284011785Y-106227619D01*
X283964166Y-106180000D01*
X283868928Y-106132380D01*
X147899285Y-107132380D02*
X147899285Y-106132380D01*
X147661190Y-106132380D01*
X147518333Y-106180000D01*
X147423095Y-106275238D01*
X147375476Y-106370476D01*
X147327857Y-106560952D01*
X147327857Y-106703809D01*
X147375476Y-106894285D01*
X147423095Y-106989523D01*
X147518333Y-107084761D01*
X147661190Y-107132380D01*
X147899285Y-107132380D01*
X146994523Y-106132380D02*
X146327857Y-106132380D01*
X146756428Y-107132380D01*
X146042142Y-106132380D02*
X145423095Y-106132380D01*
X145756428Y-106513333D01*
X145613571Y-106513333D01*
X145518333Y-106560952D01*
X145470714Y-106608571D01*
X145423095Y-106703809D01*
X145423095Y-106941904D01*
X145470714Y-107037142D01*
X145518333Y-107084761D01*
X145613571Y-107132380D01*
X145899285Y-107132380D01*
X145994523Y-107084761D01*
X146042142Y-107037142D01*
X309824285Y-107132380D02*
X309824285Y-106132380D01*
X309586190Y-106132380D01*
X309443333Y-106180000D01*
X309348095Y-106275238D01*
X309300476Y-106370476D01*
X309252857Y-106560952D01*
X309252857Y-106703809D01*
X309300476Y-106894285D01*
X309348095Y-106989523D01*
X309443333Y-107084761D01*
X309586190Y-107132380D01*
X309824285Y-107132380D01*
X308681428Y-106560952D02*
X308776666Y-106513333D01*
X308824285Y-106465714D01*
X308871904Y-106370476D01*
X308871904Y-106322857D01*
X308824285Y-106227619D01*
X308776666Y-106180000D01*
X308681428Y-106132380D01*
X308490952Y-106132380D01*
X308395714Y-106180000D01*
X308348095Y-106227619D01*
X308300476Y-106322857D01*
X308300476Y-106370476D01*
X308348095Y-106465714D01*
X308395714Y-106513333D01*
X308490952Y-106560952D01*
X308681428Y-106560952D01*
X308776666Y-106608571D01*
X308824285Y-106656190D01*
X308871904Y-106751428D01*
X308871904Y-106941904D01*
X308824285Y-107037142D01*
X308776666Y-107084761D01*
X308681428Y-107132380D01*
X308490952Y-107132380D01*
X308395714Y-107084761D01*
X308348095Y-107037142D01*
X308300476Y-106941904D01*
X308300476Y-106751428D01*
X308348095Y-106656190D01*
X308395714Y-106608571D01*
X308490952Y-106560952D01*
X307348095Y-107132380D02*
X307919523Y-107132380D01*
X307633809Y-107132380D02*
X307633809Y-106132380D01*
X307729047Y-106275238D01*
X307824285Y-106370476D01*
X307919523Y-106418095D01*
X166949285Y-107132380D02*
X166949285Y-106132380D01*
X166711190Y-106132380D01*
X166568333Y-106180000D01*
X166473095Y-106275238D01*
X166425476Y-106370476D01*
X166377857Y-106560952D01*
X166377857Y-106703809D01*
X166425476Y-106894285D01*
X166473095Y-106989523D01*
X166568333Y-107084761D01*
X166711190Y-107132380D01*
X166949285Y-107132380D01*
X166044523Y-106132380D02*
X165377857Y-106132380D01*
X165806428Y-107132380D01*
X164568333Y-106465714D02*
X164568333Y-107132380D01*
X164806428Y-106084761D02*
X165044523Y-106799047D01*
X164425476Y-106799047D01*
X61293333Y-46442380D02*
X61293333Y-47156666D01*
X61340952Y-47299523D01*
X61436190Y-47394761D01*
X61579047Y-47442380D01*
X61674285Y-47442380D01*
X60293333Y-47442380D02*
X60864761Y-47442380D01*
X60579047Y-47442380D02*
X60579047Y-46442380D01*
X60674285Y-46585238D01*
X60769523Y-46680476D01*
X60864761Y-46728095D01*
X164537380Y-49522142D02*
X164061190Y-49188809D01*
X164537380Y-48950714D02*
X163537380Y-48950714D01*
X163537380Y-49331666D01*
X163585000Y-49426904D01*
X163632619Y-49474523D01*
X163727857Y-49522142D01*
X163870714Y-49522142D01*
X163965952Y-49474523D01*
X164013571Y-49426904D01*
X164061190Y-49331666D01*
X164061190Y-48950714D01*
X164537380Y-50474523D02*
X164537380Y-49903095D01*
X164537380Y-50188809D02*
X163537380Y-50188809D01*
X163680238Y-50093571D01*
X163775476Y-49998333D01*
X163823095Y-49903095D01*
X163632619Y-50855476D02*
X163585000Y-50903095D01*
X163537380Y-50998333D01*
X163537380Y-51236428D01*
X163585000Y-51331666D01*
X163632619Y-51379285D01*
X163727857Y-51426904D01*
X163823095Y-51426904D01*
X163965952Y-51379285D01*
X164537380Y-50807857D01*
X164537380Y-51426904D01*
X164537380Y-44505714D02*
X163537380Y-44505714D01*
X163537380Y-44743809D01*
X163585000Y-44886666D01*
X163680238Y-44981904D01*
X163775476Y-45029523D01*
X163965952Y-45077142D01*
X164108809Y-45077142D01*
X164299285Y-45029523D01*
X164394523Y-44981904D01*
X164489761Y-44886666D01*
X164537380Y-44743809D01*
X164537380Y-44505714D01*
X163965952Y-45648571D02*
X163918333Y-45553333D01*
X163870714Y-45505714D01*
X163775476Y-45458095D01*
X163727857Y-45458095D01*
X163632619Y-45505714D01*
X163585000Y-45553333D01*
X163537380Y-45648571D01*
X163537380Y-45839047D01*
X163585000Y-45934285D01*
X163632619Y-45981904D01*
X163727857Y-46029523D01*
X163775476Y-46029523D01*
X163870714Y-45981904D01*
X163918333Y-45934285D01*
X163965952Y-45839047D01*
X163965952Y-45648571D01*
X164013571Y-45553333D01*
X164061190Y-45505714D01*
X164156428Y-45458095D01*
X164346904Y-45458095D01*
X164442142Y-45505714D01*
X164489761Y-45553333D01*
X164537380Y-45648571D01*
X164537380Y-45839047D01*
X164489761Y-45934285D01*
X164442142Y-45981904D01*
X164346904Y-46029523D01*
X164156428Y-46029523D01*
X164061190Y-45981904D01*
X164013571Y-45934285D01*
X163965952Y-45839047D01*
X163632619Y-46410476D02*
X163585000Y-46458095D01*
X163537380Y-46553333D01*
X163537380Y-46791428D01*
X163585000Y-46886666D01*
X163632619Y-46934285D01*
X163727857Y-46981904D01*
X163823095Y-46981904D01*
X163965952Y-46934285D01*
X164537380Y-46362857D01*
X164537380Y-46981904D01*
M02*
