M48
; DRILL file {KiCad 5.1.5-52549c5~84~ubuntu18.04.1} date Mon 23 Mar 2020 08:00:17 PM CDT
; FORMAT={-:-/ absolute / inch / decimal}
; #@! TF.CreationDate,2020-03-23T20:00:17-05:00
; #@! TF.GenerationSoftware,Kicad,Pcbnew,5.1.5-52549c5~84~ubuntu18.04.1
FMAT,2
INCH
T1C0.0118
T2C0.0157
T3C0.0197
T4C0.0591
T5C0.0390
T6C0.0669
T7C0.0866
T8C0.1201
T9C0.1575
%
G90
G05
T1
X0.6654Y-3.6467
X0.8228Y-3.6467
X0.8619Y-2.8497
X0.8622Y-2.4262
X0.949Y-2.5469
X0.949Y-2.6375
X1.0295Y-3.4006
X1.0689Y-2.9577
X1.0984Y-2.9577
X1.128Y-2.81
X1.128Y-2.8986
X1.128Y-2.9281
X1.1444Y-2.7169
X1.1673Y-2.1014
X1.1673Y-2.5935
X1.2362Y-3.0659
X1.2362Y-3.5974
X1.2441Y-1.8317
X1.2528Y-2.8431
X1.2581Y-2.9069
X1.2755Y-3.4006
X1.2952Y-3.4498
X1.2953Y-3.5974
X1.3149Y-3.499
X1.3346Y-3.5482
X1.3425Y-2.5837
X1.3543Y-3.5974
X1.3622Y-2.8593
X1.3756Y-2.6183
X1.4094Y-2.5443
X1.4232Y-3.0659
X1.4335Y-2.7427
X1.4335Y-2.5802
X1.4478Y-2.1142
X1.4528Y-3.5482
X1.4528Y-3.5974
X1.4528Y-3.6467
X1.4528Y-3.6959
X1.4772Y-2.1142
X1.4882Y-2.3474
X1.4899Y-2.202
X1.4915Y-2.5802
X1.4915Y-2.6184
X1.4915Y-2.6566
X1.4917Y-2.6947
X1.4961Y-2.3789
X1.5039Y-2.4104
X1.5118Y-2.4419
X1.5197Y-2.4734
X1.5337Y-2.1582
X1.5413Y-2.9478
X1.5472Y-2.6978
X1.5591Y-2.4734
X1.5709Y-2.9183
X1.5748Y-2.6207
X1.5984Y-2.127
X1.5984Y-2.4734
X1.6004Y-2.8888
X1.625Y-2.5801
X1.6299Y-2.8593
X1.6339Y-2.0915
X1.6594Y-2.8297
X1.6811Y-1.8317
X1.685Y-2.7864
X1.7087Y-2.7608
X1.7972Y-2.1604
X1.7972Y-2.2195
X1.7972Y-2.2785
X1.8091Y-2.6093
X1.8465Y-2.19
X1.8465Y-2.249
X1.8465Y-2.3081
X1.8583Y-2.6093
X1.876Y-2.564
X1.9055Y-2.3081
X1.9843Y-3.0659
X2.0039Y-2.564
X2.0551Y-2.3829
X2.1142Y-2.875
X2.1417Y-2.9085
X2.1437Y-1.999
X2.1732Y-2.249
X2.1732Y-2.875
X2.2028Y-2.875
X2.3031Y-2.0167
X2.3031Y-2.0482
X2.375Y-1.975
X2.4193Y-4.3711
X2.425Y-2.025
X2.425Y-2.075
X2.4488Y-4.4203
X2.4567Y-2.6703
X2.465Y-3.375
X2.4783Y-4.1742
X2.4882Y-2.2746
X2.4882Y-2.3829
X2.4961Y-2.6467
X2.5079Y-2.0797
X2.5079Y-4.2234
X2.5236Y-2.1112
X2.5354Y-2.623
X2.5354Y-2.7411
X2.5571Y-2.9341
X2.5748Y-2.5994
X2.5748Y-2.7175
X2.6142Y-2.6939
X2.6457Y-2.9636
X2.7028Y-2.9085
X2.7047Y-3.0423
X2.752Y-2.3967
X2.8031Y-2.6978
X2.8031Y-2.7372
X2.811Y-2.3967
X2.811Y-2.4754
X2.8119Y-2.6375
X2.8119Y-2.8
X2.8799Y-2.6132
X2.8799Y-2.6624
X2.8819Y-2.7372
X2.9213Y-2.6978
X3.0131Y-2.425
X3.0869Y-2.425
X3.1555Y-2.2746
X3.215Y-3.375
X3.2244Y-2.3081
X3.2264Y-4.2726
X3.2559Y-4.3219
X3.965Y-3.375
X4.1201Y-2.8494
X4.2185Y-2.8494
X4.5827Y-2.3474
X4.5881Y-2.55
X4.6437Y-2.875
X4.6437Y-3.0423
X4.6618Y-2.725
X4.715Y-3.375
X4.8665Y-2.6183
X4.8665Y-2.6947
X4.8744Y-2.0
X4.998Y-2.314
X5.0Y-2.5801
X5.0965Y-2.501
X5.84Y-4.125
X6.5217Y-2.3474
X6.59Y-4.125
X6.6122Y-2.314
X7.34Y-4.125
X7.8996Y-2.436
X7.9016Y-2.875
X7.9587Y-2.3474
X7.9631Y-2.55
X8.037Y-2.725
X8.0787Y-2.875
X8.09Y-4.125
X8.2417Y-2.6187
X8.2417Y-2.6947
X8.375Y-2.5801
X8.375Y-2.6539
X8.3839Y-2.314
X9.6732Y-2.2057
X10.34Y-2.25
X11.09Y-2.25
X11.2165Y-2.377
X11.2775Y-4.125
X11.3381Y-2.55
X11.4118Y-2.725
X11.6165Y-2.6183
X11.6165Y-2.6947
X11.75Y-2.5802
X12.215Y-4.125
T2
X1.3523Y-1.9961
X1.368Y-1.9685
X1.3838Y-1.9961
X1.3995Y-1.9685
X1.4153Y-1.9961
X1.431Y-1.9685
X1.4468Y-1.9961
X1.4782Y-1.9961
X1.494Y-1.9685
X1.5097Y-1.9961
X1.5255Y-1.9685
X1.5412Y-1.9961
X1.557Y-1.9685
X1.5727Y-1.9961
T4
X10.875Y-3.1
X11.125Y-3.0
X10.2188Y-5.35
X10.4688Y-5.25
X10.125Y-3.85
X10.375Y-3.75
X9.0Y-3.1
X9.25Y-3.0
X6.5625Y-4.6
X6.8125Y-4.5
X2.0625Y-4.6
X2.3125Y-4.5
X6.1875Y-5.35
X6.4375Y-5.25
X9.375Y-1.975
X9.625Y-1.875
X0.75Y-3.1
X1.0Y-3.0
X12.0Y-3.1
X12.25Y-3.0
X3.75Y-3.1
X4.0Y-3.0
X7.5Y-3.1
X7.75Y-3.0
X2.625Y-1.975
X2.875Y-1.875
X8.4375Y-6.1
X8.6875Y-6.0
X0.9375Y-3.85
X1.1875Y-3.75
X2.7188Y-6.1
X2.9688Y-6.0
X8.25Y-3.1
X8.5Y-3.0
X12.0Y-5.35
X12.25Y-5.25
X8.625Y-3.85
X8.875Y-3.75
X3.375Y-1.975
X3.625Y-1.875
X10.875Y-1.975
X11.125Y-1.875
X9.1875Y-5.35
X9.4375Y-5.25
X1.7812Y-6.1
X2.0312Y-6.0
X4.875Y-3.85
X5.125Y-3.75
X9.75Y-3.1
X10.0Y-3.0
X2.25Y-3.1
X2.5Y-3.0
X6.9375Y-5.35
X7.1875Y-5.25
X7.125Y-3.85
X7.375Y-3.75
X10.5Y-6.1
X10.75Y-6.0
X3.5625Y-4.6
X3.8125Y-4.5
X5.0625Y-4.6
X5.3125Y-4.5
X12.0Y-1.975
X12.25Y-1.875
X7.6875Y-5.35
X7.9375Y-5.25
X6.0Y-1.975
X6.25Y-1.875
X4.6875Y-5.35
X4.9375Y-5.25
X12.0Y-6.1
X12.25Y-6.0
X8.0625Y-4.6
X8.3125Y-4.5
X8.4375Y-5.35
X8.6875Y-5.25
X1.5Y-3.1
X1.75Y-3.0
X6.0Y-3.1
X6.25Y-3.0
X5.25Y-1.975
X5.5Y-1.875
X6.75Y-1.975
X7.0Y-1.875
X2.8125Y-4.6
X3.0625Y-4.5
X1.0312Y-4.6
X1.2812Y-4.5
X6.75Y-3.1
X7.0Y-3.0
X3.375Y-3.85
X3.625Y-3.75
X9.5625Y-4.6
X9.8125Y-4.5
X12.0Y-4.6
X12.25Y-4.5
X2.4375Y-5.35
X2.6875Y-5.25
X11.25Y-6.1
X11.5Y-6.0
X3.1875Y-5.35
X3.4375Y-5.25
X5.25Y-3.1
X5.5Y-3.0
X0.8438Y-6.1
X1.0938Y-6.0
X1.875Y-3.85
X2.125Y-3.75
X9.5625Y-6.1
X9.8125Y-6.0
X8.8125Y-4.6
X9.0625Y-4.5
X10.125Y-1.975
X10.375Y-1.875
X3.0Y-3.1
X3.25Y-3.0
X9.375Y-3.85
X9.625Y-3.75
X6.375Y-3.85
X6.625Y-3.75
X1.875Y-1.975
X2.125Y-1.875
X11.25Y-5.35
X11.5Y-5.25
X4.3125Y-4.6
X4.5625Y-4.5
X4.5Y-3.1
X4.75Y-3.0
X12.0Y-3.85
X12.25Y-3.75
X3.9375Y-5.35
X4.1875Y-5.25
X4.125Y-3.85
X4.375Y-3.75
X0.75Y-1.975
X1.0Y-1.875
X7.3125Y-4.6
X7.5625Y-4.5
X5.4375Y-5.35
X5.6875Y-5.25
X7.875Y-3.85
X8.125Y-3.75
X1.2188Y-5.35
X1.4688Y-5.25
X11.0625Y-3.85
X11.3125Y-3.75
X8.6255Y-1.975
X8.8755Y-1.875
X4.125Y-1.975
X4.375Y-1.875
X7.5Y-1.975
X7.75Y-1.875
X5.8125Y-4.6
X6.0625Y-4.5
X5.625Y-3.85
X5.875Y-3.75
X5.5312Y-6.1
X5.7812Y-6.0
X2.625Y-3.85
X2.875Y-3.75
X10.7812Y-4.6
X11.0312Y-4.5
T5
X2.36Y-2.225
X2.4Y-1.925
X2.44Y-2.225
T6
X9.5125Y-4.7
X9.9125Y-4.7
X11.95Y-4.7
X12.35Y-4.7
X2.3875Y-5.45
X2.7875Y-5.45
X11.2Y-6.2
X11.6Y-6.2
X3.1375Y-5.45
X3.5375Y-5.45
X5.2Y-3.2
X5.6Y-3.2
X0.7937Y-6.2
X1.1937Y-6.2
X1.825Y-3.95
X2.225Y-3.95
X9.5125Y-6.2
X9.9125Y-6.2
X8.7625Y-4.7
X9.1625Y-4.7
X10.075Y-2.075
X10.475Y-2.075
X2.95Y-3.2
X3.35Y-3.2
X9.325Y-3.95
X9.725Y-3.95
X6.325Y-3.95
X6.725Y-3.95
X1.825Y-2.075
X2.225Y-2.075
X11.2Y-5.45
X11.6Y-5.45
X4.2625Y-4.7
X4.6625Y-4.7
X4.45Y-3.2
X4.85Y-3.2
X11.95Y-3.95
X12.35Y-3.95
X3.8875Y-5.45
X4.2875Y-5.45
X4.075Y-3.95
X4.475Y-3.95
X0.7Y-2.075
X1.1Y-2.075
X7.2625Y-4.7
X7.6625Y-4.7
X5.3875Y-5.45
X5.7875Y-5.45
X7.825Y-3.95
X8.225Y-3.95
X1.1687Y-5.45
X1.5687Y-5.45
X11.0125Y-3.95
X11.4125Y-3.95
X8.5755Y-2.075
X8.9755Y-2.075
X4.075Y-2.075
X4.475Y-2.075
X7.45Y-2.075
X7.85Y-2.075
X5.7625Y-4.7
X6.1625Y-4.7
X5.575Y-3.95
X5.975Y-3.95
X5.4813Y-6.2
X5.8812Y-6.2
X2.575Y-3.95
X2.975Y-3.95
X10.7312Y-4.7
X11.1312Y-4.7
X10.825Y-3.2
X11.225Y-3.2
X10.1687Y-5.45
X10.5687Y-5.45
X10.075Y-3.95
X10.475Y-3.95
X8.95Y-3.2
X9.35Y-3.2
X6.5125Y-4.7
X6.9125Y-4.7
X2.0125Y-4.7
X2.4125Y-4.7
X6.1375Y-5.45
X6.5375Y-5.45
X9.325Y-2.075
X9.725Y-2.075
X0.7Y-3.2
X1.1Y-3.2
X11.95Y-3.2
X12.35Y-3.2
X3.7Y-3.2
X4.1Y-3.2
X7.45Y-3.2
X7.85Y-3.2
X2.575Y-2.075
X2.975Y-2.075
X8.3875Y-6.2
X8.7875Y-6.2
X0.8875Y-3.95
X1.2875Y-3.95
X2.6687Y-6.2
X3.0688Y-6.2
X8.2Y-3.2
X8.6Y-3.2
X11.95Y-5.45
X12.35Y-5.45
X8.575Y-3.95
X8.975Y-3.95
X3.325Y-2.075
X3.725Y-2.075
X10.825Y-2.075
X11.225Y-2.075
X9.1375Y-5.45
X9.5375Y-5.45
X1.7312Y-6.2
X2.1313Y-6.2
X4.825Y-3.95
X5.225Y-3.95
X9.7Y-3.2
X10.1Y-3.2
X2.2Y-3.2
X2.6Y-3.2
X6.8875Y-5.45
X7.2875Y-5.45
X7.075Y-3.95
X7.475Y-3.95
X10.45Y-6.2
X10.85Y-6.2
X3.5125Y-4.7
X3.9125Y-4.7
X5.0125Y-4.7
X5.4125Y-4.7
X11.95Y-2.075
X12.35Y-2.075
X7.6375Y-5.45
X8.0375Y-5.45
X5.95Y-2.075
X6.35Y-2.075
X4.6375Y-5.45
X5.0375Y-5.45
X11.95Y-6.2
X12.35Y-6.2
X8.0125Y-4.7
X8.4125Y-4.7
X8.3875Y-5.45
X8.7875Y-5.45
X1.45Y-3.2
X1.85Y-3.2
X5.95Y-3.2
X6.35Y-3.2
X5.2Y-2.075
X5.6Y-2.075
X6.7Y-2.075
X7.1Y-2.075
X2.7625Y-4.7
X3.1625Y-4.7
X0.9812Y-4.7
X1.3812Y-4.7
X6.7Y-3.2
X7.1Y-3.2
X3.325Y-3.95
X3.725Y-3.95
T7
X2.5866Y-4.7254
X1.563Y-3.9774
X7.8305Y-4.7157
X4.437Y-6.2608
X10.815Y-2.6407
X0.6969Y-5.4341
X10.815Y-5.4734
X6.1496Y-3.5837
X4.0433Y-2.6407
X11.5236Y-4.7254
T8
X0.9002Y-5.1744
X1.8373Y-5.1744
X3.7127Y-5.9244
X7.6498Y-5.9244
X10.4627Y-4.4244
X11.3998Y-4.4244
X10.5565Y-2.9244
X11.4935Y-2.9244
T9
X11.4Y-5.45
X4.4625Y-4.7
X4.65Y-3.2
X12.15Y-3.95
X4.0875Y-5.45
X4.275Y-3.95
X0.9Y-2.075
X7.4625Y-4.7
X5.5875Y-5.45
X8.025Y-3.95
X0.9002Y-5.7744
X1.3687Y-5.45
X1.8373Y-5.7744
X11.2125Y-3.95
X8.7755Y-2.075
X4.275Y-2.075
X7.65Y-2.075
X5.9625Y-4.7
X5.775Y-3.95
X3.7127Y-6.5244
X5.6812Y-6.2
X7.6498Y-6.5244
X2.775Y-3.95
X10.4627Y-5.0244
X10.9313Y-4.7
X11.3998Y-5.0244
X10.5565Y-3.5244
X11.025Y-3.2
X11.4935Y-3.5244
X10.3688Y-5.45
X10.275Y-3.95
X9.15Y-3.2
X6.7125Y-4.7
X2.2125Y-4.7
X6.3375Y-5.45
X9.525Y-2.075
X0.9Y-3.2
X12.15Y-3.2
X3.9Y-3.2
X7.65Y-3.2
X2.775Y-2.075
X8.5875Y-6.2
X1.0875Y-3.95
X2.8687Y-6.2
X8.4Y-3.2
X12.15Y-5.45
X8.775Y-3.95
X3.525Y-2.075
X11.025Y-2.075
X9.3375Y-5.45
X1.9312Y-6.2
X5.025Y-3.95
X9.9Y-3.2
X2.4Y-3.2
X7.0875Y-5.45
X7.275Y-3.95
X10.65Y-6.2
X3.7125Y-4.7
X5.2125Y-4.7
X12.15Y-2.075
X7.8375Y-5.45
X6.15Y-2.075
X4.8375Y-5.45
X12.15Y-6.2
X8.2125Y-4.7
X8.5875Y-5.45
X1.65Y-3.2
X6.15Y-3.2
X5.4Y-2.075
X6.9Y-2.075
X2.9625Y-4.7
X1.1812Y-4.7
X6.9Y-3.2
X3.525Y-3.95
X9.7125Y-4.7
X12.15Y-4.7
X2.5875Y-5.45
X11.4Y-6.2
X3.3375Y-5.45
X5.4Y-3.2
X0.9938Y-6.2
X2.025Y-3.95
X9.7125Y-6.2
X8.9625Y-4.7
X10.275Y-2.075
X3.15Y-3.2
X9.525Y-3.95
X6.525Y-3.95
X2.025Y-2.075
T3
G00X1.2944Y-1.7764
M15
G01X1.2944Y-1.7528
M16
G05
G00X1.2944Y-1.9626
M15
G01X1.2944Y-1.939
M16
G05
G00X1.6306Y-1.7764
M15
G01X1.6306Y-1.7528
M16
G05
G00X1.6306Y-1.9626
M15
G01X1.6306Y-1.939
M16
G05
T0
M30
