G04 #@! TF.GenerationSoftware,KiCad,Pcbnew,5.1.5-52549c5~84~ubuntu18.04.1*
G04 #@! TF.CreationDate,2020-03-23T20:00:11-05:00*
G04 #@! TF.ProjectId,keyboard-cherry-mx-pcb-mounted,6b657962-6f61-4726-942d-636865727279,rev?*
G04 #@! TF.SameCoordinates,Original*
G04 #@! TF.FileFunction,Copper,L1,Top*
G04 #@! TF.FilePolarity,Positive*
%FSLAX46Y46*%
G04 Gerber Fmt 4.6, Leading zero omitted, Abs format (unit mm)*
G04 Created by KiCad (PCBNEW 5.1.5-52549c5~84~ubuntu18.04.1) date 2020-03-23 20:00:11*
%MOMM*%
%LPD*%
G04 APERTURE LIST*
%ADD10C,2.200000*%
%ADD11C,0.100000*%
%ADD12C,0.600000*%
%ADD13O,0.800000X1.400000*%
%ADD14R,0.300000X1.200000*%
%ADD15R,0.685800X0.736600*%
%ADD16R,2.000000X3.800000*%
%ADD17R,2.000000X1.500000*%
%ADD18R,0.300000X0.300000*%
%ADD19C,0.400000*%
%ADD20C,0.250000*%
%ADD21C,0.150000*%
%ADD22C,0.127000*%
%ADD23C,0.300000*%
%ADD24C,0.200000*%
G04 APERTURE END LIST*
D10*
X168275000Y-95250000D03*
X161925000Y-97790000D03*
X38100000Y-78740000D03*
X44450000Y-76200000D03*
X25400000Y-76200000D03*
X19050000Y-78740000D03*
X239712500Y-133350000D03*
X233362500Y-135890000D03*
X311150000Y-95250000D03*
X304800000Y-97790000D03*
X287337500Y-95250000D03*
X280987500Y-97790000D03*
X311150000Y-133350000D03*
X304800000Y-135890000D03*
X146843750Y-152400000D03*
X140493750Y-154940000D03*
G04 #@! TA.AperFunction,SMDPad,CuDef*
D11*
G36*
X29602691Y-66518553D02*
G01*
X29623926Y-66521703D01*
X29644750Y-66526919D01*
X29664962Y-66534151D01*
X29684368Y-66543330D01*
X29702781Y-66554366D01*
X29720024Y-66567154D01*
X29735930Y-66581570D01*
X29750346Y-66597476D01*
X29763134Y-66614719D01*
X29774170Y-66633132D01*
X29783349Y-66652538D01*
X29790581Y-66672750D01*
X29795797Y-66693574D01*
X29798947Y-66714809D01*
X29800000Y-66736250D01*
X29800000Y-67248750D01*
X29798947Y-67270191D01*
X29795797Y-67291426D01*
X29790581Y-67312250D01*
X29783349Y-67332462D01*
X29774170Y-67351868D01*
X29763134Y-67370281D01*
X29750346Y-67387524D01*
X29735930Y-67403430D01*
X29720024Y-67417846D01*
X29702781Y-67430634D01*
X29684368Y-67441670D01*
X29664962Y-67450849D01*
X29644750Y-67458081D01*
X29623926Y-67463297D01*
X29602691Y-67466447D01*
X29581250Y-67467500D01*
X29143750Y-67467500D01*
X29122309Y-67466447D01*
X29101074Y-67463297D01*
X29080250Y-67458081D01*
X29060038Y-67450849D01*
X29040632Y-67441670D01*
X29022219Y-67430634D01*
X29004976Y-67417846D01*
X28989070Y-67403430D01*
X28974654Y-67387524D01*
X28961866Y-67370281D01*
X28950830Y-67351868D01*
X28941651Y-67332462D01*
X28934419Y-67312250D01*
X28929203Y-67291426D01*
X28926053Y-67270191D01*
X28925000Y-67248750D01*
X28925000Y-66736250D01*
X28926053Y-66714809D01*
X28929203Y-66693574D01*
X28934419Y-66672750D01*
X28941651Y-66652538D01*
X28950830Y-66633132D01*
X28961866Y-66614719D01*
X28974654Y-66597476D01*
X28989070Y-66581570D01*
X29004976Y-66567154D01*
X29022219Y-66554366D01*
X29040632Y-66543330D01*
X29060038Y-66534151D01*
X29080250Y-66526919D01*
X29101074Y-66521703D01*
X29122309Y-66518553D01*
X29143750Y-66517500D01*
X29581250Y-66517500D01*
X29602691Y-66518553D01*
G37*
G04 #@! TD.AperFunction*
G04 #@! TA.AperFunction,SMDPad,CuDef*
G36*
X28027691Y-66518553D02*
G01*
X28048926Y-66521703D01*
X28069750Y-66526919D01*
X28089962Y-66534151D01*
X28109368Y-66543330D01*
X28127781Y-66554366D01*
X28145024Y-66567154D01*
X28160930Y-66581570D01*
X28175346Y-66597476D01*
X28188134Y-66614719D01*
X28199170Y-66633132D01*
X28208349Y-66652538D01*
X28215581Y-66672750D01*
X28220797Y-66693574D01*
X28223947Y-66714809D01*
X28225000Y-66736250D01*
X28225000Y-67248750D01*
X28223947Y-67270191D01*
X28220797Y-67291426D01*
X28215581Y-67312250D01*
X28208349Y-67332462D01*
X28199170Y-67351868D01*
X28188134Y-67370281D01*
X28175346Y-67387524D01*
X28160930Y-67403430D01*
X28145024Y-67417846D01*
X28127781Y-67430634D01*
X28109368Y-67441670D01*
X28089962Y-67450849D01*
X28069750Y-67458081D01*
X28048926Y-67463297D01*
X28027691Y-67466447D01*
X28006250Y-67467500D01*
X27568750Y-67467500D01*
X27547309Y-67466447D01*
X27526074Y-67463297D01*
X27505250Y-67458081D01*
X27485038Y-67450849D01*
X27465632Y-67441670D01*
X27447219Y-67430634D01*
X27429976Y-67417846D01*
X27414070Y-67403430D01*
X27399654Y-67387524D01*
X27386866Y-67370281D01*
X27375830Y-67351868D01*
X27366651Y-67332462D01*
X27359419Y-67312250D01*
X27354203Y-67291426D01*
X27351053Y-67270191D01*
X27350000Y-67248750D01*
X27350000Y-66736250D01*
X27351053Y-66714809D01*
X27354203Y-66693574D01*
X27359419Y-66672750D01*
X27366651Y-66652538D01*
X27375830Y-66633132D01*
X27386866Y-66614719D01*
X27399654Y-66597476D01*
X27414070Y-66581570D01*
X27429976Y-66567154D01*
X27447219Y-66554366D01*
X27465632Y-66543330D01*
X27485038Y-66534151D01*
X27505250Y-66526919D01*
X27526074Y-66521703D01*
X27547309Y-66518553D01*
X27568750Y-66517500D01*
X28006250Y-66517500D01*
X28027691Y-66518553D01*
G37*
G04 #@! TD.AperFunction*
D12*
X39547500Y-50000000D03*
X38747500Y-50000000D03*
X37947500Y-50000000D03*
X36347500Y-50000000D03*
X35547500Y-50000000D03*
X34747500Y-50000000D03*
X39947500Y-50700000D03*
X38347500Y-50700000D03*
X37547500Y-50700000D03*
X36747500Y-50700000D03*
X35947500Y-50700000D03*
X34347500Y-50700000D03*
D13*
X41417500Y-44820000D03*
X32877500Y-44820000D03*
X32877500Y-49550000D03*
D14*
X34897500Y-51960000D03*
X36397500Y-51960000D03*
X35897500Y-51960000D03*
X35397500Y-51960000D03*
X34397500Y-51960000D03*
X36897500Y-51960000D03*
X37397500Y-51960000D03*
X37897500Y-51960000D03*
X38397500Y-51960000D03*
X38897500Y-51960000D03*
X39397500Y-51960000D03*
X39897500Y-51960000D03*
D13*
X41417500Y-49550000D03*
D12*
X35147500Y-50700000D03*
X39147500Y-50700000D03*
D10*
X242887500Y-154940000D03*
X249237500Y-152400000D03*
X214312500Y-154940000D03*
X220662500Y-152400000D03*
G04 #@! TA.AperFunction,SMDPad,CuDef*
D11*
G36*
X118680142Y-64071174D02*
G01*
X118703803Y-64074684D01*
X118727007Y-64080496D01*
X118749529Y-64088554D01*
X118771153Y-64098782D01*
X118791670Y-64111079D01*
X118810883Y-64125329D01*
X118828607Y-64141393D01*
X118844671Y-64159117D01*
X118858921Y-64178330D01*
X118871218Y-64198847D01*
X118881446Y-64220471D01*
X118889504Y-64242993D01*
X118895316Y-64266197D01*
X118898826Y-64289858D01*
X118900000Y-64313750D01*
X118900000Y-65226250D01*
X118898826Y-65250142D01*
X118895316Y-65273803D01*
X118889504Y-65297007D01*
X118881446Y-65319529D01*
X118871218Y-65341153D01*
X118858921Y-65361670D01*
X118844671Y-65380883D01*
X118828607Y-65398607D01*
X118810883Y-65414671D01*
X118791670Y-65428921D01*
X118771153Y-65441218D01*
X118749529Y-65451446D01*
X118727007Y-65459504D01*
X118703803Y-65465316D01*
X118680142Y-65468826D01*
X118656250Y-65470000D01*
X118168750Y-65470000D01*
X118144858Y-65468826D01*
X118121197Y-65465316D01*
X118097993Y-65459504D01*
X118075471Y-65451446D01*
X118053847Y-65441218D01*
X118033330Y-65428921D01*
X118014117Y-65414671D01*
X117996393Y-65398607D01*
X117980329Y-65380883D01*
X117966079Y-65361670D01*
X117953782Y-65341153D01*
X117943554Y-65319529D01*
X117935496Y-65297007D01*
X117929684Y-65273803D01*
X117926174Y-65250142D01*
X117925000Y-65226250D01*
X117925000Y-64313750D01*
X117926174Y-64289858D01*
X117929684Y-64266197D01*
X117935496Y-64242993D01*
X117943554Y-64220471D01*
X117953782Y-64198847D01*
X117966079Y-64178330D01*
X117980329Y-64159117D01*
X117996393Y-64141393D01*
X118014117Y-64125329D01*
X118033330Y-64111079D01*
X118053847Y-64098782D01*
X118075471Y-64088554D01*
X118097993Y-64080496D01*
X118121197Y-64074684D01*
X118144858Y-64071174D01*
X118168750Y-64070000D01*
X118656250Y-64070000D01*
X118680142Y-64071174D01*
G37*
G04 #@! TD.AperFunction*
G04 #@! TA.AperFunction,SMDPad,CuDef*
G36*
X116805142Y-64071174D02*
G01*
X116828803Y-64074684D01*
X116852007Y-64080496D01*
X116874529Y-64088554D01*
X116896153Y-64098782D01*
X116916670Y-64111079D01*
X116935883Y-64125329D01*
X116953607Y-64141393D01*
X116969671Y-64159117D01*
X116983921Y-64178330D01*
X116996218Y-64198847D01*
X117006446Y-64220471D01*
X117014504Y-64242993D01*
X117020316Y-64266197D01*
X117023826Y-64289858D01*
X117025000Y-64313750D01*
X117025000Y-65226250D01*
X117023826Y-65250142D01*
X117020316Y-65273803D01*
X117014504Y-65297007D01*
X117006446Y-65319529D01*
X116996218Y-65341153D01*
X116983921Y-65361670D01*
X116969671Y-65380883D01*
X116953607Y-65398607D01*
X116935883Y-65414671D01*
X116916670Y-65428921D01*
X116896153Y-65441218D01*
X116874529Y-65451446D01*
X116852007Y-65459504D01*
X116828803Y-65465316D01*
X116805142Y-65468826D01*
X116781250Y-65470000D01*
X116293750Y-65470000D01*
X116269858Y-65468826D01*
X116246197Y-65465316D01*
X116222993Y-65459504D01*
X116200471Y-65451446D01*
X116178847Y-65441218D01*
X116158330Y-65428921D01*
X116139117Y-65414671D01*
X116121393Y-65398607D01*
X116105329Y-65380883D01*
X116091079Y-65361670D01*
X116078782Y-65341153D01*
X116068554Y-65319529D01*
X116060496Y-65297007D01*
X116054684Y-65273803D01*
X116051174Y-65250142D01*
X116050000Y-65226250D01*
X116050000Y-64313750D01*
X116051174Y-64289858D01*
X116054684Y-64266197D01*
X116060496Y-64242993D01*
X116068554Y-64220471D01*
X116078782Y-64198847D01*
X116091079Y-64178330D01*
X116105329Y-64159117D01*
X116121393Y-64141393D01*
X116139117Y-64125329D01*
X116158330Y-64111079D01*
X116178847Y-64098782D01*
X116200471Y-64088554D01*
X116222993Y-64080496D01*
X116246197Y-64074684D01*
X116269858Y-64071174D01*
X116293750Y-64070000D01*
X116781250Y-64070000D01*
X116805142Y-64071174D01*
G37*
G04 #@! TD.AperFunction*
G04 #@! TA.AperFunction,SMDPad,CuDef*
G36*
X32955142Y-64071174D02*
G01*
X32978803Y-64074684D01*
X33002007Y-64080496D01*
X33024529Y-64088554D01*
X33046153Y-64098782D01*
X33066670Y-64111079D01*
X33085883Y-64125329D01*
X33103607Y-64141393D01*
X33119671Y-64159117D01*
X33133921Y-64178330D01*
X33146218Y-64198847D01*
X33156446Y-64220471D01*
X33164504Y-64242993D01*
X33170316Y-64266197D01*
X33173826Y-64289858D01*
X33175000Y-64313750D01*
X33175000Y-65226250D01*
X33173826Y-65250142D01*
X33170316Y-65273803D01*
X33164504Y-65297007D01*
X33156446Y-65319529D01*
X33146218Y-65341153D01*
X33133921Y-65361670D01*
X33119671Y-65380883D01*
X33103607Y-65398607D01*
X33085883Y-65414671D01*
X33066670Y-65428921D01*
X33046153Y-65441218D01*
X33024529Y-65451446D01*
X33002007Y-65459504D01*
X32978803Y-65465316D01*
X32955142Y-65468826D01*
X32931250Y-65470000D01*
X32443750Y-65470000D01*
X32419858Y-65468826D01*
X32396197Y-65465316D01*
X32372993Y-65459504D01*
X32350471Y-65451446D01*
X32328847Y-65441218D01*
X32308330Y-65428921D01*
X32289117Y-65414671D01*
X32271393Y-65398607D01*
X32255329Y-65380883D01*
X32241079Y-65361670D01*
X32228782Y-65341153D01*
X32218554Y-65319529D01*
X32210496Y-65297007D01*
X32204684Y-65273803D01*
X32201174Y-65250142D01*
X32200000Y-65226250D01*
X32200000Y-64313750D01*
X32201174Y-64289858D01*
X32204684Y-64266197D01*
X32210496Y-64242993D01*
X32218554Y-64220471D01*
X32228782Y-64198847D01*
X32241079Y-64178330D01*
X32255329Y-64159117D01*
X32271393Y-64141393D01*
X32289117Y-64125329D01*
X32308330Y-64111079D01*
X32328847Y-64098782D01*
X32350471Y-64088554D01*
X32372993Y-64080496D01*
X32396197Y-64074684D01*
X32419858Y-64071174D01*
X32443750Y-64070000D01*
X32931250Y-64070000D01*
X32955142Y-64071174D01*
G37*
G04 #@! TD.AperFunction*
G04 #@! TA.AperFunction,SMDPad,CuDef*
G36*
X31080142Y-64071174D02*
G01*
X31103803Y-64074684D01*
X31127007Y-64080496D01*
X31149529Y-64088554D01*
X31171153Y-64098782D01*
X31191670Y-64111079D01*
X31210883Y-64125329D01*
X31228607Y-64141393D01*
X31244671Y-64159117D01*
X31258921Y-64178330D01*
X31271218Y-64198847D01*
X31281446Y-64220471D01*
X31289504Y-64242993D01*
X31295316Y-64266197D01*
X31298826Y-64289858D01*
X31300000Y-64313750D01*
X31300000Y-65226250D01*
X31298826Y-65250142D01*
X31295316Y-65273803D01*
X31289504Y-65297007D01*
X31281446Y-65319529D01*
X31271218Y-65341153D01*
X31258921Y-65361670D01*
X31244671Y-65380883D01*
X31228607Y-65398607D01*
X31210883Y-65414671D01*
X31191670Y-65428921D01*
X31171153Y-65441218D01*
X31149529Y-65451446D01*
X31127007Y-65459504D01*
X31103803Y-65465316D01*
X31080142Y-65468826D01*
X31056250Y-65470000D01*
X30568750Y-65470000D01*
X30544858Y-65468826D01*
X30521197Y-65465316D01*
X30497993Y-65459504D01*
X30475471Y-65451446D01*
X30453847Y-65441218D01*
X30433330Y-65428921D01*
X30414117Y-65414671D01*
X30396393Y-65398607D01*
X30380329Y-65380883D01*
X30366079Y-65361670D01*
X30353782Y-65341153D01*
X30343554Y-65319529D01*
X30335496Y-65297007D01*
X30329684Y-65273803D01*
X30326174Y-65250142D01*
X30325000Y-65226250D01*
X30325000Y-64313750D01*
X30326174Y-64289858D01*
X30329684Y-64266197D01*
X30335496Y-64242993D01*
X30343554Y-64220471D01*
X30353782Y-64198847D01*
X30366079Y-64178330D01*
X30380329Y-64159117D01*
X30396393Y-64141393D01*
X30414117Y-64125329D01*
X30433330Y-64111079D01*
X30453847Y-64098782D01*
X30475471Y-64088554D01*
X30497993Y-64080496D01*
X30521197Y-64074684D01*
X30544858Y-64071174D01*
X30568750Y-64070000D01*
X31056250Y-64070000D01*
X31080142Y-64071174D01*
G37*
G04 #@! TD.AperFunction*
G04 #@! TA.AperFunction,SMDPad,CuDef*
G36*
X118680142Y-68516174D02*
G01*
X118703803Y-68519684D01*
X118727007Y-68525496D01*
X118749529Y-68533554D01*
X118771153Y-68543782D01*
X118791670Y-68556079D01*
X118810883Y-68570329D01*
X118828607Y-68586393D01*
X118844671Y-68604117D01*
X118858921Y-68623330D01*
X118871218Y-68643847D01*
X118881446Y-68665471D01*
X118889504Y-68687993D01*
X118895316Y-68711197D01*
X118898826Y-68734858D01*
X118900000Y-68758750D01*
X118900000Y-69671250D01*
X118898826Y-69695142D01*
X118895316Y-69718803D01*
X118889504Y-69742007D01*
X118881446Y-69764529D01*
X118871218Y-69786153D01*
X118858921Y-69806670D01*
X118844671Y-69825883D01*
X118828607Y-69843607D01*
X118810883Y-69859671D01*
X118791670Y-69873921D01*
X118771153Y-69886218D01*
X118749529Y-69896446D01*
X118727007Y-69904504D01*
X118703803Y-69910316D01*
X118680142Y-69913826D01*
X118656250Y-69915000D01*
X118168750Y-69915000D01*
X118144858Y-69913826D01*
X118121197Y-69910316D01*
X118097993Y-69904504D01*
X118075471Y-69896446D01*
X118053847Y-69886218D01*
X118033330Y-69873921D01*
X118014117Y-69859671D01*
X117996393Y-69843607D01*
X117980329Y-69825883D01*
X117966079Y-69806670D01*
X117953782Y-69786153D01*
X117943554Y-69764529D01*
X117935496Y-69742007D01*
X117929684Y-69718803D01*
X117926174Y-69695142D01*
X117925000Y-69671250D01*
X117925000Y-68758750D01*
X117926174Y-68734858D01*
X117929684Y-68711197D01*
X117935496Y-68687993D01*
X117943554Y-68665471D01*
X117953782Y-68643847D01*
X117966079Y-68623330D01*
X117980329Y-68604117D01*
X117996393Y-68586393D01*
X118014117Y-68570329D01*
X118033330Y-68556079D01*
X118053847Y-68543782D01*
X118075471Y-68533554D01*
X118097993Y-68525496D01*
X118121197Y-68519684D01*
X118144858Y-68516174D01*
X118168750Y-68515000D01*
X118656250Y-68515000D01*
X118680142Y-68516174D01*
G37*
G04 #@! TD.AperFunction*
G04 #@! TA.AperFunction,SMDPad,CuDef*
G36*
X116805142Y-68516174D02*
G01*
X116828803Y-68519684D01*
X116852007Y-68525496D01*
X116874529Y-68533554D01*
X116896153Y-68543782D01*
X116916670Y-68556079D01*
X116935883Y-68570329D01*
X116953607Y-68586393D01*
X116969671Y-68604117D01*
X116983921Y-68623330D01*
X116996218Y-68643847D01*
X117006446Y-68665471D01*
X117014504Y-68687993D01*
X117020316Y-68711197D01*
X117023826Y-68734858D01*
X117025000Y-68758750D01*
X117025000Y-69671250D01*
X117023826Y-69695142D01*
X117020316Y-69718803D01*
X117014504Y-69742007D01*
X117006446Y-69764529D01*
X116996218Y-69786153D01*
X116983921Y-69806670D01*
X116969671Y-69825883D01*
X116953607Y-69843607D01*
X116935883Y-69859671D01*
X116916670Y-69873921D01*
X116896153Y-69886218D01*
X116874529Y-69896446D01*
X116852007Y-69904504D01*
X116828803Y-69910316D01*
X116805142Y-69913826D01*
X116781250Y-69915000D01*
X116293750Y-69915000D01*
X116269858Y-69913826D01*
X116246197Y-69910316D01*
X116222993Y-69904504D01*
X116200471Y-69896446D01*
X116178847Y-69886218D01*
X116158330Y-69873921D01*
X116139117Y-69859671D01*
X116121393Y-69843607D01*
X116105329Y-69825883D01*
X116091079Y-69806670D01*
X116078782Y-69786153D01*
X116068554Y-69764529D01*
X116060496Y-69742007D01*
X116054684Y-69718803D01*
X116051174Y-69695142D01*
X116050000Y-69671250D01*
X116050000Y-68758750D01*
X116051174Y-68734858D01*
X116054684Y-68711197D01*
X116060496Y-68687993D01*
X116068554Y-68665471D01*
X116078782Y-68643847D01*
X116091079Y-68623330D01*
X116105329Y-68604117D01*
X116121393Y-68586393D01*
X116139117Y-68570329D01*
X116158330Y-68556079D01*
X116178847Y-68543782D01*
X116200471Y-68533554D01*
X116222993Y-68525496D01*
X116246197Y-68519684D01*
X116269858Y-68516174D01*
X116293750Y-68515000D01*
X116781250Y-68515000D01*
X116805142Y-68516174D01*
G37*
G04 #@! TD.AperFunction*
G04 #@! TA.AperFunction,SMDPad,CuDef*
G36*
X32955142Y-68516174D02*
G01*
X32978803Y-68519684D01*
X33002007Y-68525496D01*
X33024529Y-68533554D01*
X33046153Y-68543782D01*
X33066670Y-68556079D01*
X33085883Y-68570329D01*
X33103607Y-68586393D01*
X33119671Y-68604117D01*
X33133921Y-68623330D01*
X33146218Y-68643847D01*
X33156446Y-68665471D01*
X33164504Y-68687993D01*
X33170316Y-68711197D01*
X33173826Y-68734858D01*
X33175000Y-68758750D01*
X33175000Y-69671250D01*
X33173826Y-69695142D01*
X33170316Y-69718803D01*
X33164504Y-69742007D01*
X33156446Y-69764529D01*
X33146218Y-69786153D01*
X33133921Y-69806670D01*
X33119671Y-69825883D01*
X33103607Y-69843607D01*
X33085883Y-69859671D01*
X33066670Y-69873921D01*
X33046153Y-69886218D01*
X33024529Y-69896446D01*
X33002007Y-69904504D01*
X32978803Y-69910316D01*
X32955142Y-69913826D01*
X32931250Y-69915000D01*
X32443750Y-69915000D01*
X32419858Y-69913826D01*
X32396197Y-69910316D01*
X32372993Y-69904504D01*
X32350471Y-69896446D01*
X32328847Y-69886218D01*
X32308330Y-69873921D01*
X32289117Y-69859671D01*
X32271393Y-69843607D01*
X32255329Y-69825883D01*
X32241079Y-69806670D01*
X32228782Y-69786153D01*
X32218554Y-69764529D01*
X32210496Y-69742007D01*
X32204684Y-69718803D01*
X32201174Y-69695142D01*
X32200000Y-69671250D01*
X32200000Y-68758750D01*
X32201174Y-68734858D01*
X32204684Y-68711197D01*
X32210496Y-68687993D01*
X32218554Y-68665471D01*
X32228782Y-68643847D01*
X32241079Y-68623330D01*
X32255329Y-68604117D01*
X32271393Y-68586393D01*
X32289117Y-68570329D01*
X32308330Y-68556079D01*
X32328847Y-68543782D01*
X32350471Y-68533554D01*
X32372993Y-68525496D01*
X32396197Y-68519684D01*
X32419858Y-68516174D01*
X32443750Y-68515000D01*
X32931250Y-68515000D01*
X32955142Y-68516174D01*
G37*
G04 #@! TD.AperFunction*
G04 #@! TA.AperFunction,SMDPad,CuDef*
G36*
X31080142Y-68516174D02*
G01*
X31103803Y-68519684D01*
X31127007Y-68525496D01*
X31149529Y-68533554D01*
X31171153Y-68543782D01*
X31191670Y-68556079D01*
X31210883Y-68570329D01*
X31228607Y-68586393D01*
X31244671Y-68604117D01*
X31258921Y-68623330D01*
X31271218Y-68643847D01*
X31281446Y-68665471D01*
X31289504Y-68687993D01*
X31295316Y-68711197D01*
X31298826Y-68734858D01*
X31300000Y-68758750D01*
X31300000Y-69671250D01*
X31298826Y-69695142D01*
X31295316Y-69718803D01*
X31289504Y-69742007D01*
X31281446Y-69764529D01*
X31271218Y-69786153D01*
X31258921Y-69806670D01*
X31244671Y-69825883D01*
X31228607Y-69843607D01*
X31210883Y-69859671D01*
X31191670Y-69873921D01*
X31171153Y-69886218D01*
X31149529Y-69896446D01*
X31127007Y-69904504D01*
X31103803Y-69910316D01*
X31080142Y-69913826D01*
X31056250Y-69915000D01*
X30568750Y-69915000D01*
X30544858Y-69913826D01*
X30521197Y-69910316D01*
X30497993Y-69904504D01*
X30475471Y-69896446D01*
X30453847Y-69886218D01*
X30433330Y-69873921D01*
X30414117Y-69859671D01*
X30396393Y-69843607D01*
X30380329Y-69825883D01*
X30366079Y-69806670D01*
X30353782Y-69786153D01*
X30343554Y-69764529D01*
X30335496Y-69742007D01*
X30329684Y-69718803D01*
X30326174Y-69695142D01*
X30325000Y-69671250D01*
X30325000Y-68758750D01*
X30326174Y-68734858D01*
X30329684Y-68711197D01*
X30335496Y-68687993D01*
X30343554Y-68665471D01*
X30353782Y-68643847D01*
X30366079Y-68623330D01*
X30380329Y-68604117D01*
X30396393Y-68586393D01*
X30414117Y-68570329D01*
X30433330Y-68556079D01*
X30453847Y-68543782D01*
X30475471Y-68533554D01*
X30497993Y-68525496D01*
X30521197Y-68519684D01*
X30544858Y-68516174D01*
X30568750Y-68515000D01*
X31056250Y-68515000D01*
X31080142Y-68516174D01*
G37*
G04 #@! TD.AperFunction*
G04 #@! TA.AperFunction,SMDPad,CuDef*
G36*
X71690142Y-66293674D02*
G01*
X71713803Y-66297184D01*
X71737007Y-66302996D01*
X71759529Y-66311054D01*
X71781153Y-66321282D01*
X71801670Y-66333579D01*
X71820883Y-66347829D01*
X71838607Y-66363893D01*
X71854671Y-66381617D01*
X71868921Y-66400830D01*
X71881218Y-66421347D01*
X71891446Y-66442971D01*
X71899504Y-66465493D01*
X71905316Y-66488697D01*
X71908826Y-66512358D01*
X71910000Y-66536250D01*
X71910000Y-67448750D01*
X71908826Y-67472642D01*
X71905316Y-67496303D01*
X71899504Y-67519507D01*
X71891446Y-67542029D01*
X71881218Y-67563653D01*
X71868921Y-67584170D01*
X71854671Y-67603383D01*
X71838607Y-67621107D01*
X71820883Y-67637171D01*
X71801670Y-67651421D01*
X71781153Y-67663718D01*
X71759529Y-67673946D01*
X71737007Y-67682004D01*
X71713803Y-67687816D01*
X71690142Y-67691326D01*
X71666250Y-67692500D01*
X71178750Y-67692500D01*
X71154858Y-67691326D01*
X71131197Y-67687816D01*
X71107993Y-67682004D01*
X71085471Y-67673946D01*
X71063847Y-67663718D01*
X71043330Y-67651421D01*
X71024117Y-67637171D01*
X71006393Y-67621107D01*
X70990329Y-67603383D01*
X70976079Y-67584170D01*
X70963782Y-67563653D01*
X70953554Y-67542029D01*
X70945496Y-67519507D01*
X70939684Y-67496303D01*
X70936174Y-67472642D01*
X70935000Y-67448750D01*
X70935000Y-66536250D01*
X70936174Y-66512358D01*
X70939684Y-66488697D01*
X70945496Y-66465493D01*
X70953554Y-66442971D01*
X70963782Y-66421347D01*
X70976079Y-66400830D01*
X70990329Y-66381617D01*
X71006393Y-66363893D01*
X71024117Y-66347829D01*
X71043330Y-66333579D01*
X71063847Y-66321282D01*
X71085471Y-66311054D01*
X71107993Y-66302996D01*
X71131197Y-66297184D01*
X71154858Y-66293674D01*
X71178750Y-66292500D01*
X71666250Y-66292500D01*
X71690142Y-66293674D01*
G37*
G04 #@! TD.AperFunction*
G04 #@! TA.AperFunction,SMDPad,CuDef*
G36*
X69815142Y-66293674D02*
G01*
X69838803Y-66297184D01*
X69862007Y-66302996D01*
X69884529Y-66311054D01*
X69906153Y-66321282D01*
X69926670Y-66333579D01*
X69945883Y-66347829D01*
X69963607Y-66363893D01*
X69979671Y-66381617D01*
X69993921Y-66400830D01*
X70006218Y-66421347D01*
X70016446Y-66442971D01*
X70024504Y-66465493D01*
X70030316Y-66488697D01*
X70033826Y-66512358D01*
X70035000Y-66536250D01*
X70035000Y-67448750D01*
X70033826Y-67472642D01*
X70030316Y-67496303D01*
X70024504Y-67519507D01*
X70016446Y-67542029D01*
X70006218Y-67563653D01*
X69993921Y-67584170D01*
X69979671Y-67603383D01*
X69963607Y-67621107D01*
X69945883Y-67637171D01*
X69926670Y-67651421D01*
X69906153Y-67663718D01*
X69884529Y-67673946D01*
X69862007Y-67682004D01*
X69838803Y-67687816D01*
X69815142Y-67691326D01*
X69791250Y-67692500D01*
X69303750Y-67692500D01*
X69279858Y-67691326D01*
X69256197Y-67687816D01*
X69232993Y-67682004D01*
X69210471Y-67673946D01*
X69188847Y-67663718D01*
X69168330Y-67651421D01*
X69149117Y-67637171D01*
X69131393Y-67621107D01*
X69115329Y-67603383D01*
X69101079Y-67584170D01*
X69088782Y-67563653D01*
X69078554Y-67542029D01*
X69070496Y-67519507D01*
X69064684Y-67496303D01*
X69061174Y-67472642D01*
X69060000Y-67448750D01*
X69060000Y-66536250D01*
X69061174Y-66512358D01*
X69064684Y-66488697D01*
X69070496Y-66465493D01*
X69078554Y-66442971D01*
X69088782Y-66421347D01*
X69101079Y-66400830D01*
X69115329Y-66381617D01*
X69131393Y-66363893D01*
X69149117Y-66347829D01*
X69168330Y-66333579D01*
X69188847Y-66321282D01*
X69210471Y-66311054D01*
X69232993Y-66302996D01*
X69256197Y-66297184D01*
X69279858Y-66293674D01*
X69303750Y-66292500D01*
X69791250Y-66292500D01*
X69815142Y-66293674D01*
G37*
G04 #@! TD.AperFunction*
G04 #@! TA.AperFunction,SMDPad,CuDef*
G36*
X71690142Y-62166174D02*
G01*
X71713803Y-62169684D01*
X71737007Y-62175496D01*
X71759529Y-62183554D01*
X71781153Y-62193782D01*
X71801670Y-62206079D01*
X71820883Y-62220329D01*
X71838607Y-62236393D01*
X71854671Y-62254117D01*
X71868921Y-62273330D01*
X71881218Y-62293847D01*
X71891446Y-62315471D01*
X71899504Y-62337993D01*
X71905316Y-62361197D01*
X71908826Y-62384858D01*
X71910000Y-62408750D01*
X71910000Y-63321250D01*
X71908826Y-63345142D01*
X71905316Y-63368803D01*
X71899504Y-63392007D01*
X71891446Y-63414529D01*
X71881218Y-63436153D01*
X71868921Y-63456670D01*
X71854671Y-63475883D01*
X71838607Y-63493607D01*
X71820883Y-63509671D01*
X71801670Y-63523921D01*
X71781153Y-63536218D01*
X71759529Y-63546446D01*
X71737007Y-63554504D01*
X71713803Y-63560316D01*
X71690142Y-63563826D01*
X71666250Y-63565000D01*
X71178750Y-63565000D01*
X71154858Y-63563826D01*
X71131197Y-63560316D01*
X71107993Y-63554504D01*
X71085471Y-63546446D01*
X71063847Y-63536218D01*
X71043330Y-63523921D01*
X71024117Y-63509671D01*
X71006393Y-63493607D01*
X70990329Y-63475883D01*
X70976079Y-63456670D01*
X70963782Y-63436153D01*
X70953554Y-63414529D01*
X70945496Y-63392007D01*
X70939684Y-63368803D01*
X70936174Y-63345142D01*
X70935000Y-63321250D01*
X70935000Y-62408750D01*
X70936174Y-62384858D01*
X70939684Y-62361197D01*
X70945496Y-62337993D01*
X70953554Y-62315471D01*
X70963782Y-62293847D01*
X70976079Y-62273330D01*
X70990329Y-62254117D01*
X71006393Y-62236393D01*
X71024117Y-62220329D01*
X71043330Y-62206079D01*
X71063847Y-62193782D01*
X71085471Y-62183554D01*
X71107993Y-62175496D01*
X71131197Y-62169684D01*
X71154858Y-62166174D01*
X71178750Y-62165000D01*
X71666250Y-62165000D01*
X71690142Y-62166174D01*
G37*
G04 #@! TD.AperFunction*
G04 #@! TA.AperFunction,SMDPad,CuDef*
G36*
X69815142Y-62166174D02*
G01*
X69838803Y-62169684D01*
X69862007Y-62175496D01*
X69884529Y-62183554D01*
X69906153Y-62193782D01*
X69926670Y-62206079D01*
X69945883Y-62220329D01*
X69963607Y-62236393D01*
X69979671Y-62254117D01*
X69993921Y-62273330D01*
X70006218Y-62293847D01*
X70016446Y-62315471D01*
X70024504Y-62337993D01*
X70030316Y-62361197D01*
X70033826Y-62384858D01*
X70035000Y-62408750D01*
X70035000Y-63321250D01*
X70033826Y-63345142D01*
X70030316Y-63368803D01*
X70024504Y-63392007D01*
X70016446Y-63414529D01*
X70006218Y-63436153D01*
X69993921Y-63456670D01*
X69979671Y-63475883D01*
X69963607Y-63493607D01*
X69945883Y-63509671D01*
X69926670Y-63523921D01*
X69906153Y-63536218D01*
X69884529Y-63546446D01*
X69862007Y-63554504D01*
X69838803Y-63560316D01*
X69815142Y-63563826D01*
X69791250Y-63565000D01*
X69303750Y-63565000D01*
X69279858Y-63563826D01*
X69256197Y-63560316D01*
X69232993Y-63554504D01*
X69210471Y-63546446D01*
X69188847Y-63536218D01*
X69168330Y-63523921D01*
X69149117Y-63509671D01*
X69131393Y-63493607D01*
X69115329Y-63475883D01*
X69101079Y-63456670D01*
X69088782Y-63436153D01*
X69078554Y-63414529D01*
X69070496Y-63392007D01*
X69064684Y-63368803D01*
X69061174Y-63345142D01*
X69060000Y-63321250D01*
X69060000Y-62408750D01*
X69061174Y-62384858D01*
X69064684Y-62361197D01*
X69070496Y-62337993D01*
X69078554Y-62315471D01*
X69088782Y-62293847D01*
X69101079Y-62273330D01*
X69115329Y-62254117D01*
X69131393Y-62236393D01*
X69149117Y-62220329D01*
X69168330Y-62206079D01*
X69188847Y-62193782D01*
X69210471Y-62183554D01*
X69232993Y-62175496D01*
X69256197Y-62169684D01*
X69279858Y-62166174D01*
X69303750Y-62165000D01*
X69791250Y-62165000D01*
X69815142Y-62166174D01*
G37*
G04 #@! TD.AperFunction*
G04 #@! TA.AperFunction,SMDPad,CuDef*
G36*
X71690142Y-70421174D02*
G01*
X71713803Y-70424684D01*
X71737007Y-70430496D01*
X71759529Y-70438554D01*
X71781153Y-70448782D01*
X71801670Y-70461079D01*
X71820883Y-70475329D01*
X71838607Y-70491393D01*
X71854671Y-70509117D01*
X71868921Y-70528330D01*
X71881218Y-70548847D01*
X71891446Y-70570471D01*
X71899504Y-70592993D01*
X71905316Y-70616197D01*
X71908826Y-70639858D01*
X71910000Y-70663750D01*
X71910000Y-71576250D01*
X71908826Y-71600142D01*
X71905316Y-71623803D01*
X71899504Y-71647007D01*
X71891446Y-71669529D01*
X71881218Y-71691153D01*
X71868921Y-71711670D01*
X71854671Y-71730883D01*
X71838607Y-71748607D01*
X71820883Y-71764671D01*
X71801670Y-71778921D01*
X71781153Y-71791218D01*
X71759529Y-71801446D01*
X71737007Y-71809504D01*
X71713803Y-71815316D01*
X71690142Y-71818826D01*
X71666250Y-71820000D01*
X71178750Y-71820000D01*
X71154858Y-71818826D01*
X71131197Y-71815316D01*
X71107993Y-71809504D01*
X71085471Y-71801446D01*
X71063847Y-71791218D01*
X71043330Y-71778921D01*
X71024117Y-71764671D01*
X71006393Y-71748607D01*
X70990329Y-71730883D01*
X70976079Y-71711670D01*
X70963782Y-71691153D01*
X70953554Y-71669529D01*
X70945496Y-71647007D01*
X70939684Y-71623803D01*
X70936174Y-71600142D01*
X70935000Y-71576250D01*
X70935000Y-70663750D01*
X70936174Y-70639858D01*
X70939684Y-70616197D01*
X70945496Y-70592993D01*
X70953554Y-70570471D01*
X70963782Y-70548847D01*
X70976079Y-70528330D01*
X70990329Y-70509117D01*
X71006393Y-70491393D01*
X71024117Y-70475329D01*
X71043330Y-70461079D01*
X71063847Y-70448782D01*
X71085471Y-70438554D01*
X71107993Y-70430496D01*
X71131197Y-70424684D01*
X71154858Y-70421174D01*
X71178750Y-70420000D01*
X71666250Y-70420000D01*
X71690142Y-70421174D01*
G37*
G04 #@! TD.AperFunction*
G04 #@! TA.AperFunction,SMDPad,CuDef*
G36*
X69815142Y-70421174D02*
G01*
X69838803Y-70424684D01*
X69862007Y-70430496D01*
X69884529Y-70438554D01*
X69906153Y-70448782D01*
X69926670Y-70461079D01*
X69945883Y-70475329D01*
X69963607Y-70491393D01*
X69979671Y-70509117D01*
X69993921Y-70528330D01*
X70006218Y-70548847D01*
X70016446Y-70570471D01*
X70024504Y-70592993D01*
X70030316Y-70616197D01*
X70033826Y-70639858D01*
X70035000Y-70663750D01*
X70035000Y-71576250D01*
X70033826Y-71600142D01*
X70030316Y-71623803D01*
X70024504Y-71647007D01*
X70016446Y-71669529D01*
X70006218Y-71691153D01*
X69993921Y-71711670D01*
X69979671Y-71730883D01*
X69963607Y-71748607D01*
X69945883Y-71764671D01*
X69926670Y-71778921D01*
X69906153Y-71791218D01*
X69884529Y-71801446D01*
X69862007Y-71809504D01*
X69838803Y-71815316D01*
X69815142Y-71818826D01*
X69791250Y-71820000D01*
X69303750Y-71820000D01*
X69279858Y-71818826D01*
X69256197Y-71815316D01*
X69232993Y-71809504D01*
X69210471Y-71801446D01*
X69188847Y-71791218D01*
X69168330Y-71778921D01*
X69149117Y-71764671D01*
X69131393Y-71748607D01*
X69115329Y-71730883D01*
X69101079Y-71711670D01*
X69088782Y-71691153D01*
X69078554Y-71669529D01*
X69070496Y-71647007D01*
X69064684Y-71623803D01*
X69061174Y-71600142D01*
X69060000Y-71576250D01*
X69060000Y-70663750D01*
X69061174Y-70639858D01*
X69064684Y-70616197D01*
X69070496Y-70592993D01*
X69078554Y-70570471D01*
X69088782Y-70548847D01*
X69101079Y-70528330D01*
X69115329Y-70509117D01*
X69131393Y-70491393D01*
X69149117Y-70475329D01*
X69168330Y-70461079D01*
X69188847Y-70448782D01*
X69210471Y-70438554D01*
X69232993Y-70430496D01*
X69256197Y-70424684D01*
X69279858Y-70421174D01*
X69303750Y-70420000D01*
X69791250Y-70420000D01*
X69815142Y-70421174D01*
G37*
G04 #@! TD.AperFunction*
D10*
X25400000Y-47625000D03*
X19050000Y-50165000D03*
X196850000Y-47625000D03*
X190500000Y-50165000D03*
X53975000Y-47625000D03*
X47625000Y-50165000D03*
X219087700Y-50165000D03*
X225437700Y-47625000D03*
X66675000Y-50165000D03*
X73025000Y-47625000D03*
X244475000Y-47625000D03*
X238125000Y-50165000D03*
X92075000Y-47625000D03*
X85725000Y-50165000D03*
X257175000Y-50165000D03*
X263525000Y-47625000D03*
X104775000Y-50165000D03*
X111125000Y-47625000D03*
X282575000Y-47625000D03*
X276225000Y-50165000D03*
X133350000Y-50165000D03*
X139700000Y-47625000D03*
X304800000Y-50165000D03*
X311150000Y-47625000D03*
X158750000Y-47625000D03*
X152400000Y-50165000D03*
X171450000Y-50165000D03*
X177800000Y-47625000D03*
X177800000Y-76200000D03*
X171450000Y-78740000D03*
X190500000Y-78740000D03*
X196850000Y-76200000D03*
X63500000Y-76200000D03*
X57150000Y-78740000D03*
X209550000Y-78740000D03*
X215900000Y-76200000D03*
X76200000Y-78740000D03*
X82550000Y-76200000D03*
X234950000Y-76200000D03*
X228600000Y-78740000D03*
X101600000Y-76200000D03*
X95250000Y-78740000D03*
X247650000Y-78740000D03*
X254000000Y-76200000D03*
X114300000Y-78740000D03*
X120650000Y-76200000D03*
X282575000Y-76200000D03*
X276225000Y-78740000D03*
X139700000Y-76200000D03*
X133350000Y-78740000D03*
X311150000Y-76200000D03*
X304800000Y-78740000D03*
X152400000Y-78740000D03*
X158750000Y-76200000D03*
X21431250Y-154940000D03*
X27781250Y-152400000D03*
X51593750Y-152400000D03*
X45243750Y-154940000D03*
X75406250Y-152400000D03*
X69056250Y-154940000D03*
X266700000Y-154940000D03*
X273050000Y-152400000D03*
X292100000Y-152400000D03*
X285750000Y-154940000D03*
X304800000Y-154940000D03*
X311150000Y-152400000D03*
X37306250Y-133350000D03*
X30956250Y-135890000D03*
X201612500Y-133350000D03*
X195262500Y-135890000D03*
X68262500Y-133350000D03*
X61912500Y-135890000D03*
X214312500Y-135890000D03*
X220662500Y-133350000D03*
X80962500Y-135890000D03*
X87312500Y-133350000D03*
X106362500Y-133350000D03*
X100012500Y-135890000D03*
X259556250Y-135890000D03*
X265906250Y-133350000D03*
X125412500Y-133350000D03*
X119062500Y-135890000D03*
X285750000Y-135890000D03*
X292100000Y-133350000D03*
X138112500Y-135890000D03*
X144462500Y-133350000D03*
X163512500Y-133350000D03*
X157162500Y-135890000D03*
X176212500Y-135890000D03*
X182562500Y-133350000D03*
X32543750Y-114300000D03*
X26193750Y-116840000D03*
X185737500Y-116840000D03*
X192087500Y-114300000D03*
X52387500Y-116840000D03*
X58737500Y-114300000D03*
X204787500Y-116840000D03*
X211137500Y-114300000D03*
X77787500Y-114300000D03*
X71437500Y-116840000D03*
X230187500Y-114300000D03*
X223837500Y-116840000D03*
X90487500Y-116840000D03*
X96837500Y-114300000D03*
X249237500Y-114300000D03*
X242887500Y-116840000D03*
X115887500Y-114300000D03*
X109537500Y-116840000D03*
X273843750Y-116840000D03*
X280193750Y-114300000D03*
X128587500Y-116840000D03*
X134937500Y-114300000D03*
X311150000Y-114300000D03*
X304800000Y-116840000D03*
X147637500Y-116840000D03*
X153987500Y-114300000D03*
X173037500Y-114300000D03*
X166687500Y-116840000D03*
X23812500Y-97790000D03*
X30162500Y-95250000D03*
X180975000Y-97790000D03*
X187325000Y-95250000D03*
X53975000Y-95250000D03*
X47625000Y-97790000D03*
X200025000Y-97790000D03*
X206375000Y-95250000D03*
X66675000Y-97790000D03*
X73025000Y-95250000D03*
X219075000Y-97790000D03*
X225425000Y-95250000D03*
X85725000Y-97790000D03*
X92075000Y-95250000D03*
X238125000Y-97790000D03*
X244475000Y-95250000D03*
X111125000Y-95250000D03*
X104775000Y-97790000D03*
X257175000Y-97790000D03*
X263525000Y-95250000D03*
X130175000Y-95250000D03*
X123825000Y-97790000D03*
X149225000Y-95250000D03*
X142875000Y-97790000D03*
G04 #@! TA.AperFunction,SMDPad,CuDef*
D11*
G36*
X76800142Y-60896174D02*
G01*
X76823803Y-60899684D01*
X76847007Y-60905496D01*
X76869529Y-60913554D01*
X76891153Y-60923782D01*
X76911670Y-60936079D01*
X76930883Y-60950329D01*
X76948607Y-60966393D01*
X76964671Y-60984117D01*
X76978921Y-61003330D01*
X76991218Y-61023847D01*
X77001446Y-61045471D01*
X77009504Y-61067993D01*
X77015316Y-61091197D01*
X77018826Y-61114858D01*
X77020000Y-61138750D01*
X77020000Y-62051250D01*
X77018826Y-62075142D01*
X77015316Y-62098803D01*
X77009504Y-62122007D01*
X77001446Y-62144529D01*
X76991218Y-62166153D01*
X76978921Y-62186670D01*
X76964671Y-62205883D01*
X76948607Y-62223607D01*
X76930883Y-62239671D01*
X76911670Y-62253921D01*
X76891153Y-62266218D01*
X76869529Y-62276446D01*
X76847007Y-62284504D01*
X76823803Y-62290316D01*
X76800142Y-62293826D01*
X76776250Y-62295000D01*
X76288750Y-62295000D01*
X76264858Y-62293826D01*
X76241197Y-62290316D01*
X76217993Y-62284504D01*
X76195471Y-62276446D01*
X76173847Y-62266218D01*
X76153330Y-62253921D01*
X76134117Y-62239671D01*
X76116393Y-62223607D01*
X76100329Y-62205883D01*
X76086079Y-62186670D01*
X76073782Y-62166153D01*
X76063554Y-62144529D01*
X76055496Y-62122007D01*
X76049684Y-62098803D01*
X76046174Y-62075142D01*
X76045000Y-62051250D01*
X76045000Y-61138750D01*
X76046174Y-61114858D01*
X76049684Y-61091197D01*
X76055496Y-61067993D01*
X76063554Y-61045471D01*
X76073782Y-61023847D01*
X76086079Y-61003330D01*
X76100329Y-60984117D01*
X76116393Y-60966393D01*
X76134117Y-60950329D01*
X76153330Y-60936079D01*
X76173847Y-60923782D01*
X76195471Y-60913554D01*
X76217993Y-60905496D01*
X76241197Y-60899684D01*
X76264858Y-60896174D01*
X76288750Y-60895000D01*
X76776250Y-60895000D01*
X76800142Y-60896174D01*
G37*
G04 #@! TD.AperFunction*
G04 #@! TA.AperFunction,SMDPad,CuDef*
G36*
X78675142Y-60896174D02*
G01*
X78698803Y-60899684D01*
X78722007Y-60905496D01*
X78744529Y-60913554D01*
X78766153Y-60923782D01*
X78786670Y-60936079D01*
X78805883Y-60950329D01*
X78823607Y-60966393D01*
X78839671Y-60984117D01*
X78853921Y-61003330D01*
X78866218Y-61023847D01*
X78876446Y-61045471D01*
X78884504Y-61067993D01*
X78890316Y-61091197D01*
X78893826Y-61114858D01*
X78895000Y-61138750D01*
X78895000Y-62051250D01*
X78893826Y-62075142D01*
X78890316Y-62098803D01*
X78884504Y-62122007D01*
X78876446Y-62144529D01*
X78866218Y-62166153D01*
X78853921Y-62186670D01*
X78839671Y-62205883D01*
X78823607Y-62223607D01*
X78805883Y-62239671D01*
X78786670Y-62253921D01*
X78766153Y-62266218D01*
X78744529Y-62276446D01*
X78722007Y-62284504D01*
X78698803Y-62290316D01*
X78675142Y-62293826D01*
X78651250Y-62295000D01*
X78163750Y-62295000D01*
X78139858Y-62293826D01*
X78116197Y-62290316D01*
X78092993Y-62284504D01*
X78070471Y-62276446D01*
X78048847Y-62266218D01*
X78028330Y-62253921D01*
X78009117Y-62239671D01*
X77991393Y-62223607D01*
X77975329Y-62205883D01*
X77961079Y-62186670D01*
X77948782Y-62166153D01*
X77938554Y-62144529D01*
X77930496Y-62122007D01*
X77924684Y-62098803D01*
X77921174Y-62075142D01*
X77920000Y-62051250D01*
X77920000Y-61138750D01*
X77921174Y-61114858D01*
X77924684Y-61091197D01*
X77930496Y-61067993D01*
X77938554Y-61045471D01*
X77948782Y-61023847D01*
X77961079Y-61003330D01*
X77975329Y-60984117D01*
X77991393Y-60966393D01*
X78009117Y-60950329D01*
X78028330Y-60936079D01*
X78048847Y-60923782D01*
X78070471Y-60913554D01*
X78092993Y-60905496D01*
X78116197Y-60899684D01*
X78139858Y-60896174D01*
X78163750Y-60895000D01*
X78651250Y-60895000D01*
X78675142Y-60896174D01*
G37*
G04 #@! TD.AperFunction*
G04 #@! TA.AperFunction,SMDPad,CuDef*
G36*
X41755142Y-65048674D02*
G01*
X41778803Y-65052184D01*
X41802007Y-65057996D01*
X41824529Y-65066054D01*
X41846153Y-65076282D01*
X41866670Y-65088579D01*
X41885883Y-65102829D01*
X41903607Y-65118893D01*
X41919671Y-65136617D01*
X41933921Y-65155830D01*
X41946218Y-65176347D01*
X41956446Y-65197971D01*
X41964504Y-65220493D01*
X41970316Y-65243697D01*
X41973826Y-65267358D01*
X41975000Y-65291250D01*
X41975000Y-65778750D01*
X41973826Y-65802642D01*
X41970316Y-65826303D01*
X41964504Y-65849507D01*
X41956446Y-65872029D01*
X41946218Y-65893653D01*
X41933921Y-65914170D01*
X41919671Y-65933383D01*
X41903607Y-65951107D01*
X41885883Y-65967171D01*
X41866670Y-65981421D01*
X41846153Y-65993718D01*
X41824529Y-66003946D01*
X41802007Y-66012004D01*
X41778803Y-66017816D01*
X41755142Y-66021326D01*
X41731250Y-66022500D01*
X40818750Y-66022500D01*
X40794858Y-66021326D01*
X40771197Y-66017816D01*
X40747993Y-66012004D01*
X40725471Y-66003946D01*
X40703847Y-65993718D01*
X40683330Y-65981421D01*
X40664117Y-65967171D01*
X40646393Y-65951107D01*
X40630329Y-65933383D01*
X40616079Y-65914170D01*
X40603782Y-65893653D01*
X40593554Y-65872029D01*
X40585496Y-65849507D01*
X40579684Y-65826303D01*
X40576174Y-65802642D01*
X40575000Y-65778750D01*
X40575000Y-65291250D01*
X40576174Y-65267358D01*
X40579684Y-65243697D01*
X40585496Y-65220493D01*
X40593554Y-65197971D01*
X40603782Y-65176347D01*
X40616079Y-65155830D01*
X40630329Y-65136617D01*
X40646393Y-65118893D01*
X40664117Y-65102829D01*
X40683330Y-65088579D01*
X40703847Y-65076282D01*
X40725471Y-65066054D01*
X40747993Y-65057996D01*
X40771197Y-65052184D01*
X40794858Y-65048674D01*
X40818750Y-65047500D01*
X41731250Y-65047500D01*
X41755142Y-65048674D01*
G37*
G04 #@! TD.AperFunction*
G04 #@! TA.AperFunction,SMDPad,CuDef*
G36*
X41755142Y-66923674D02*
G01*
X41778803Y-66927184D01*
X41802007Y-66932996D01*
X41824529Y-66941054D01*
X41846153Y-66951282D01*
X41866670Y-66963579D01*
X41885883Y-66977829D01*
X41903607Y-66993893D01*
X41919671Y-67011617D01*
X41933921Y-67030830D01*
X41946218Y-67051347D01*
X41956446Y-67072971D01*
X41964504Y-67095493D01*
X41970316Y-67118697D01*
X41973826Y-67142358D01*
X41975000Y-67166250D01*
X41975000Y-67653750D01*
X41973826Y-67677642D01*
X41970316Y-67701303D01*
X41964504Y-67724507D01*
X41956446Y-67747029D01*
X41946218Y-67768653D01*
X41933921Y-67789170D01*
X41919671Y-67808383D01*
X41903607Y-67826107D01*
X41885883Y-67842171D01*
X41866670Y-67856421D01*
X41846153Y-67868718D01*
X41824529Y-67878946D01*
X41802007Y-67887004D01*
X41778803Y-67892816D01*
X41755142Y-67896326D01*
X41731250Y-67897500D01*
X40818750Y-67897500D01*
X40794858Y-67896326D01*
X40771197Y-67892816D01*
X40747993Y-67887004D01*
X40725471Y-67878946D01*
X40703847Y-67868718D01*
X40683330Y-67856421D01*
X40664117Y-67842171D01*
X40646393Y-67826107D01*
X40630329Y-67808383D01*
X40616079Y-67789170D01*
X40603782Y-67768653D01*
X40593554Y-67747029D01*
X40585496Y-67724507D01*
X40579684Y-67701303D01*
X40576174Y-67677642D01*
X40575000Y-67653750D01*
X40575000Y-67166250D01*
X40576174Y-67142358D01*
X40579684Y-67118697D01*
X40585496Y-67095493D01*
X40593554Y-67072971D01*
X40603782Y-67051347D01*
X40616079Y-67030830D01*
X40630329Y-67011617D01*
X40646393Y-66993893D01*
X40664117Y-66977829D01*
X40683330Y-66963579D01*
X40703847Y-66951282D01*
X40725471Y-66941054D01*
X40747993Y-66932996D01*
X40771197Y-66927184D01*
X40794858Y-66923674D01*
X40818750Y-66922500D01*
X41731250Y-66922500D01*
X41755142Y-66923674D01*
G37*
G04 #@! TD.AperFunction*
G04 #@! TA.AperFunction,SMDPad,CuDef*
G36*
X127480142Y-66923674D02*
G01*
X127503803Y-66927184D01*
X127527007Y-66932996D01*
X127549529Y-66941054D01*
X127571153Y-66951282D01*
X127591670Y-66963579D01*
X127610883Y-66977829D01*
X127628607Y-66993893D01*
X127644671Y-67011617D01*
X127658921Y-67030830D01*
X127671218Y-67051347D01*
X127681446Y-67072971D01*
X127689504Y-67095493D01*
X127695316Y-67118697D01*
X127698826Y-67142358D01*
X127700000Y-67166250D01*
X127700000Y-67653750D01*
X127698826Y-67677642D01*
X127695316Y-67701303D01*
X127689504Y-67724507D01*
X127681446Y-67747029D01*
X127671218Y-67768653D01*
X127658921Y-67789170D01*
X127644671Y-67808383D01*
X127628607Y-67826107D01*
X127610883Y-67842171D01*
X127591670Y-67856421D01*
X127571153Y-67868718D01*
X127549529Y-67878946D01*
X127527007Y-67887004D01*
X127503803Y-67892816D01*
X127480142Y-67896326D01*
X127456250Y-67897500D01*
X126543750Y-67897500D01*
X126519858Y-67896326D01*
X126496197Y-67892816D01*
X126472993Y-67887004D01*
X126450471Y-67878946D01*
X126428847Y-67868718D01*
X126408330Y-67856421D01*
X126389117Y-67842171D01*
X126371393Y-67826107D01*
X126355329Y-67808383D01*
X126341079Y-67789170D01*
X126328782Y-67768653D01*
X126318554Y-67747029D01*
X126310496Y-67724507D01*
X126304684Y-67701303D01*
X126301174Y-67677642D01*
X126300000Y-67653750D01*
X126300000Y-67166250D01*
X126301174Y-67142358D01*
X126304684Y-67118697D01*
X126310496Y-67095493D01*
X126318554Y-67072971D01*
X126328782Y-67051347D01*
X126341079Y-67030830D01*
X126355329Y-67011617D01*
X126371393Y-66993893D01*
X126389117Y-66977829D01*
X126408330Y-66963579D01*
X126428847Y-66951282D01*
X126450471Y-66941054D01*
X126472993Y-66932996D01*
X126496197Y-66927184D01*
X126519858Y-66923674D01*
X126543750Y-66922500D01*
X127456250Y-66922500D01*
X127480142Y-66923674D01*
G37*
G04 #@! TD.AperFunction*
G04 #@! TA.AperFunction,SMDPad,CuDef*
G36*
X127480142Y-65048674D02*
G01*
X127503803Y-65052184D01*
X127527007Y-65057996D01*
X127549529Y-65066054D01*
X127571153Y-65076282D01*
X127591670Y-65088579D01*
X127610883Y-65102829D01*
X127628607Y-65118893D01*
X127644671Y-65136617D01*
X127658921Y-65155830D01*
X127671218Y-65176347D01*
X127681446Y-65197971D01*
X127689504Y-65220493D01*
X127695316Y-65243697D01*
X127698826Y-65267358D01*
X127700000Y-65291250D01*
X127700000Y-65778750D01*
X127698826Y-65802642D01*
X127695316Y-65826303D01*
X127689504Y-65849507D01*
X127681446Y-65872029D01*
X127671218Y-65893653D01*
X127658921Y-65914170D01*
X127644671Y-65933383D01*
X127628607Y-65951107D01*
X127610883Y-65967171D01*
X127591670Y-65981421D01*
X127571153Y-65993718D01*
X127549529Y-66003946D01*
X127527007Y-66012004D01*
X127503803Y-66017816D01*
X127480142Y-66021326D01*
X127456250Y-66022500D01*
X126543750Y-66022500D01*
X126519858Y-66021326D01*
X126496197Y-66017816D01*
X126472993Y-66012004D01*
X126450471Y-66003946D01*
X126428847Y-65993718D01*
X126408330Y-65981421D01*
X126389117Y-65967171D01*
X126371393Y-65951107D01*
X126355329Y-65933383D01*
X126341079Y-65914170D01*
X126328782Y-65893653D01*
X126318554Y-65872029D01*
X126310496Y-65849507D01*
X126304684Y-65826303D01*
X126301174Y-65802642D01*
X126300000Y-65778750D01*
X126300000Y-65291250D01*
X126301174Y-65267358D01*
X126304684Y-65243697D01*
X126310496Y-65220493D01*
X126318554Y-65197971D01*
X126328782Y-65176347D01*
X126341079Y-65155830D01*
X126355329Y-65136617D01*
X126371393Y-65118893D01*
X126389117Y-65102829D01*
X126408330Y-65088579D01*
X126428847Y-65076282D01*
X126450471Y-65066054D01*
X126472993Y-65057996D01*
X126496197Y-65052184D01*
X126519858Y-65048674D01*
X126543750Y-65047500D01*
X127456250Y-65047500D01*
X127480142Y-65048674D01*
G37*
G04 #@! TD.AperFunction*
G04 #@! TA.AperFunction,SMDPad,CuDef*
G36*
X20285142Y-60896174D02*
G01*
X20308803Y-60899684D01*
X20332007Y-60905496D01*
X20354529Y-60913554D01*
X20376153Y-60923782D01*
X20396670Y-60936079D01*
X20415883Y-60950329D01*
X20433607Y-60966393D01*
X20449671Y-60984117D01*
X20463921Y-61003330D01*
X20476218Y-61023847D01*
X20486446Y-61045471D01*
X20494504Y-61067993D01*
X20500316Y-61091197D01*
X20503826Y-61114858D01*
X20505000Y-61138750D01*
X20505000Y-62051250D01*
X20503826Y-62075142D01*
X20500316Y-62098803D01*
X20494504Y-62122007D01*
X20486446Y-62144529D01*
X20476218Y-62166153D01*
X20463921Y-62186670D01*
X20449671Y-62205883D01*
X20433607Y-62223607D01*
X20415883Y-62239671D01*
X20396670Y-62253921D01*
X20376153Y-62266218D01*
X20354529Y-62276446D01*
X20332007Y-62284504D01*
X20308803Y-62290316D01*
X20285142Y-62293826D01*
X20261250Y-62295000D01*
X19773750Y-62295000D01*
X19749858Y-62293826D01*
X19726197Y-62290316D01*
X19702993Y-62284504D01*
X19680471Y-62276446D01*
X19658847Y-62266218D01*
X19638330Y-62253921D01*
X19619117Y-62239671D01*
X19601393Y-62223607D01*
X19585329Y-62205883D01*
X19571079Y-62186670D01*
X19558782Y-62166153D01*
X19548554Y-62144529D01*
X19540496Y-62122007D01*
X19534684Y-62098803D01*
X19531174Y-62075142D01*
X19530000Y-62051250D01*
X19530000Y-61138750D01*
X19531174Y-61114858D01*
X19534684Y-61091197D01*
X19540496Y-61067993D01*
X19548554Y-61045471D01*
X19558782Y-61023847D01*
X19571079Y-61003330D01*
X19585329Y-60984117D01*
X19601393Y-60966393D01*
X19619117Y-60950329D01*
X19638330Y-60936079D01*
X19658847Y-60923782D01*
X19680471Y-60913554D01*
X19702993Y-60905496D01*
X19726197Y-60899684D01*
X19749858Y-60896174D01*
X19773750Y-60895000D01*
X20261250Y-60895000D01*
X20285142Y-60896174D01*
G37*
G04 #@! TD.AperFunction*
G04 #@! TA.AperFunction,SMDPad,CuDef*
G36*
X22160142Y-60896174D02*
G01*
X22183803Y-60899684D01*
X22207007Y-60905496D01*
X22229529Y-60913554D01*
X22251153Y-60923782D01*
X22271670Y-60936079D01*
X22290883Y-60950329D01*
X22308607Y-60966393D01*
X22324671Y-60984117D01*
X22338921Y-61003330D01*
X22351218Y-61023847D01*
X22361446Y-61045471D01*
X22369504Y-61067993D01*
X22375316Y-61091197D01*
X22378826Y-61114858D01*
X22380000Y-61138750D01*
X22380000Y-62051250D01*
X22378826Y-62075142D01*
X22375316Y-62098803D01*
X22369504Y-62122007D01*
X22361446Y-62144529D01*
X22351218Y-62166153D01*
X22338921Y-62186670D01*
X22324671Y-62205883D01*
X22308607Y-62223607D01*
X22290883Y-62239671D01*
X22271670Y-62253921D01*
X22251153Y-62266218D01*
X22229529Y-62276446D01*
X22207007Y-62284504D01*
X22183803Y-62290316D01*
X22160142Y-62293826D01*
X22136250Y-62295000D01*
X21648750Y-62295000D01*
X21624858Y-62293826D01*
X21601197Y-62290316D01*
X21577993Y-62284504D01*
X21555471Y-62276446D01*
X21533847Y-62266218D01*
X21513330Y-62253921D01*
X21494117Y-62239671D01*
X21476393Y-62223607D01*
X21460329Y-62205883D01*
X21446079Y-62186670D01*
X21433782Y-62166153D01*
X21423554Y-62144529D01*
X21415496Y-62122007D01*
X21409684Y-62098803D01*
X21406174Y-62075142D01*
X21405000Y-62051250D01*
X21405000Y-61138750D01*
X21406174Y-61114858D01*
X21409684Y-61091197D01*
X21415496Y-61067993D01*
X21423554Y-61045471D01*
X21433782Y-61023847D01*
X21446079Y-61003330D01*
X21460329Y-60984117D01*
X21476393Y-60966393D01*
X21494117Y-60950329D01*
X21513330Y-60936079D01*
X21533847Y-60923782D01*
X21555471Y-60913554D01*
X21577993Y-60905496D01*
X21601197Y-60899684D01*
X21624858Y-60896174D01*
X21648750Y-60895000D01*
X22136250Y-60895000D01*
X22160142Y-60896174D01*
G37*
G04 #@! TD.AperFunction*
G04 #@! TA.AperFunction,SMDPad,CuDef*
G36*
X22160142Y-71691174D02*
G01*
X22183803Y-71694684D01*
X22207007Y-71700496D01*
X22229529Y-71708554D01*
X22251153Y-71718782D01*
X22271670Y-71731079D01*
X22290883Y-71745329D01*
X22308607Y-71761393D01*
X22324671Y-71779117D01*
X22338921Y-71798330D01*
X22351218Y-71818847D01*
X22361446Y-71840471D01*
X22369504Y-71862993D01*
X22375316Y-71886197D01*
X22378826Y-71909858D01*
X22380000Y-71933750D01*
X22380000Y-72846250D01*
X22378826Y-72870142D01*
X22375316Y-72893803D01*
X22369504Y-72917007D01*
X22361446Y-72939529D01*
X22351218Y-72961153D01*
X22338921Y-72981670D01*
X22324671Y-73000883D01*
X22308607Y-73018607D01*
X22290883Y-73034671D01*
X22271670Y-73048921D01*
X22251153Y-73061218D01*
X22229529Y-73071446D01*
X22207007Y-73079504D01*
X22183803Y-73085316D01*
X22160142Y-73088826D01*
X22136250Y-73090000D01*
X21648750Y-73090000D01*
X21624858Y-73088826D01*
X21601197Y-73085316D01*
X21577993Y-73079504D01*
X21555471Y-73071446D01*
X21533847Y-73061218D01*
X21513330Y-73048921D01*
X21494117Y-73034671D01*
X21476393Y-73018607D01*
X21460329Y-73000883D01*
X21446079Y-72981670D01*
X21433782Y-72961153D01*
X21423554Y-72939529D01*
X21415496Y-72917007D01*
X21409684Y-72893803D01*
X21406174Y-72870142D01*
X21405000Y-72846250D01*
X21405000Y-71933750D01*
X21406174Y-71909858D01*
X21409684Y-71886197D01*
X21415496Y-71862993D01*
X21423554Y-71840471D01*
X21433782Y-71818847D01*
X21446079Y-71798330D01*
X21460329Y-71779117D01*
X21476393Y-71761393D01*
X21494117Y-71745329D01*
X21513330Y-71731079D01*
X21533847Y-71718782D01*
X21555471Y-71708554D01*
X21577993Y-71700496D01*
X21601197Y-71694684D01*
X21624858Y-71691174D01*
X21648750Y-71690000D01*
X22136250Y-71690000D01*
X22160142Y-71691174D01*
G37*
G04 #@! TD.AperFunction*
G04 #@! TA.AperFunction,SMDPad,CuDef*
G36*
X20285142Y-71691174D02*
G01*
X20308803Y-71694684D01*
X20332007Y-71700496D01*
X20354529Y-71708554D01*
X20376153Y-71718782D01*
X20396670Y-71731079D01*
X20415883Y-71745329D01*
X20433607Y-71761393D01*
X20449671Y-71779117D01*
X20463921Y-71798330D01*
X20476218Y-71818847D01*
X20486446Y-71840471D01*
X20494504Y-71862993D01*
X20500316Y-71886197D01*
X20503826Y-71909858D01*
X20505000Y-71933750D01*
X20505000Y-72846250D01*
X20503826Y-72870142D01*
X20500316Y-72893803D01*
X20494504Y-72917007D01*
X20486446Y-72939529D01*
X20476218Y-72961153D01*
X20463921Y-72981670D01*
X20449671Y-73000883D01*
X20433607Y-73018607D01*
X20415883Y-73034671D01*
X20396670Y-73048921D01*
X20376153Y-73061218D01*
X20354529Y-73071446D01*
X20332007Y-73079504D01*
X20308803Y-73085316D01*
X20285142Y-73088826D01*
X20261250Y-73090000D01*
X19773750Y-73090000D01*
X19749858Y-73088826D01*
X19726197Y-73085316D01*
X19702993Y-73079504D01*
X19680471Y-73071446D01*
X19658847Y-73061218D01*
X19638330Y-73048921D01*
X19619117Y-73034671D01*
X19601393Y-73018607D01*
X19585329Y-73000883D01*
X19571079Y-72981670D01*
X19558782Y-72961153D01*
X19548554Y-72939529D01*
X19540496Y-72917007D01*
X19534684Y-72893803D01*
X19531174Y-72870142D01*
X19530000Y-72846250D01*
X19530000Y-71933750D01*
X19531174Y-71909858D01*
X19534684Y-71886197D01*
X19540496Y-71862993D01*
X19548554Y-71840471D01*
X19558782Y-71818847D01*
X19571079Y-71798330D01*
X19585329Y-71779117D01*
X19601393Y-71761393D01*
X19619117Y-71745329D01*
X19638330Y-71731079D01*
X19658847Y-71718782D01*
X19680471Y-71708554D01*
X19702993Y-71700496D01*
X19726197Y-71694684D01*
X19749858Y-71691174D01*
X19773750Y-71690000D01*
X20261250Y-71690000D01*
X20285142Y-71691174D01*
G37*
G04 #@! TD.AperFunction*
D15*
X37884100Y-65537499D03*
X37884100Y-66507500D03*
X37884100Y-67477500D03*
X37884100Y-68447501D03*
X36410900Y-68447501D03*
X36410900Y-67477500D03*
X36410900Y-66507500D03*
X36410900Y-65537499D03*
X122135900Y-65537499D03*
X122135900Y-66507500D03*
X122135900Y-67477500D03*
X122135900Y-68447501D03*
X123609100Y-68447501D03*
X123609100Y-67477500D03*
X123609100Y-66507500D03*
X123609100Y-65537499D03*
D16*
X17805000Y-66992500D03*
D17*
X24105000Y-66992500D03*
X24105000Y-64692500D03*
X24105000Y-69292500D03*
D18*
X37497500Y-53700000D03*
X36797500Y-53700000D03*
X37147500Y-54550000D03*
G04 #@! TA.AperFunction,SMDPad,CuDef*
D11*
G36*
X213205142Y-65048674D02*
G01*
X213228803Y-65052184D01*
X213252007Y-65057996D01*
X213274529Y-65066054D01*
X213296153Y-65076282D01*
X213316670Y-65088579D01*
X213335883Y-65102829D01*
X213353607Y-65118893D01*
X213369671Y-65136617D01*
X213383921Y-65155830D01*
X213396218Y-65176347D01*
X213406446Y-65197971D01*
X213414504Y-65220493D01*
X213420316Y-65243697D01*
X213423826Y-65267358D01*
X213425000Y-65291250D01*
X213425000Y-65778750D01*
X213423826Y-65802642D01*
X213420316Y-65826303D01*
X213414504Y-65849507D01*
X213406446Y-65872029D01*
X213396218Y-65893653D01*
X213383921Y-65914170D01*
X213369671Y-65933383D01*
X213353607Y-65951107D01*
X213335883Y-65967171D01*
X213316670Y-65981421D01*
X213296153Y-65993718D01*
X213274529Y-66003946D01*
X213252007Y-66012004D01*
X213228803Y-66017816D01*
X213205142Y-66021326D01*
X213181250Y-66022500D01*
X212268750Y-66022500D01*
X212244858Y-66021326D01*
X212221197Y-66017816D01*
X212197993Y-66012004D01*
X212175471Y-66003946D01*
X212153847Y-65993718D01*
X212133330Y-65981421D01*
X212114117Y-65967171D01*
X212096393Y-65951107D01*
X212080329Y-65933383D01*
X212066079Y-65914170D01*
X212053782Y-65893653D01*
X212043554Y-65872029D01*
X212035496Y-65849507D01*
X212029684Y-65826303D01*
X212026174Y-65802642D01*
X212025000Y-65778750D01*
X212025000Y-65291250D01*
X212026174Y-65267358D01*
X212029684Y-65243697D01*
X212035496Y-65220493D01*
X212043554Y-65197971D01*
X212053782Y-65176347D01*
X212066079Y-65155830D01*
X212080329Y-65136617D01*
X212096393Y-65118893D01*
X212114117Y-65102829D01*
X212133330Y-65088579D01*
X212153847Y-65076282D01*
X212175471Y-65066054D01*
X212197993Y-65057996D01*
X212221197Y-65052184D01*
X212244858Y-65048674D01*
X212268750Y-65047500D01*
X213181250Y-65047500D01*
X213205142Y-65048674D01*
G37*
G04 #@! TD.AperFunction*
G04 #@! TA.AperFunction,SMDPad,CuDef*
G36*
X213205142Y-66923674D02*
G01*
X213228803Y-66927184D01*
X213252007Y-66932996D01*
X213274529Y-66941054D01*
X213296153Y-66951282D01*
X213316670Y-66963579D01*
X213335883Y-66977829D01*
X213353607Y-66993893D01*
X213369671Y-67011617D01*
X213383921Y-67030830D01*
X213396218Y-67051347D01*
X213406446Y-67072971D01*
X213414504Y-67095493D01*
X213420316Y-67118697D01*
X213423826Y-67142358D01*
X213425000Y-67166250D01*
X213425000Y-67653750D01*
X213423826Y-67677642D01*
X213420316Y-67701303D01*
X213414504Y-67724507D01*
X213406446Y-67747029D01*
X213396218Y-67768653D01*
X213383921Y-67789170D01*
X213369671Y-67808383D01*
X213353607Y-67826107D01*
X213335883Y-67842171D01*
X213316670Y-67856421D01*
X213296153Y-67868718D01*
X213274529Y-67878946D01*
X213252007Y-67887004D01*
X213228803Y-67892816D01*
X213205142Y-67896326D01*
X213181250Y-67897500D01*
X212268750Y-67897500D01*
X212244858Y-67896326D01*
X212221197Y-67892816D01*
X212197993Y-67887004D01*
X212175471Y-67878946D01*
X212153847Y-67868718D01*
X212133330Y-67856421D01*
X212114117Y-67842171D01*
X212096393Y-67826107D01*
X212080329Y-67808383D01*
X212066079Y-67789170D01*
X212053782Y-67768653D01*
X212043554Y-67747029D01*
X212035496Y-67724507D01*
X212029684Y-67701303D01*
X212026174Y-67677642D01*
X212025000Y-67653750D01*
X212025000Y-67166250D01*
X212026174Y-67142358D01*
X212029684Y-67118697D01*
X212035496Y-67095493D01*
X212043554Y-67072971D01*
X212053782Y-67051347D01*
X212066079Y-67030830D01*
X212080329Y-67011617D01*
X212096393Y-66993893D01*
X212114117Y-66977829D01*
X212133330Y-66963579D01*
X212153847Y-66951282D01*
X212175471Y-66941054D01*
X212197993Y-66932996D01*
X212221197Y-66927184D01*
X212244858Y-66923674D01*
X212268750Y-66922500D01*
X213181250Y-66922500D01*
X213205142Y-66923674D01*
G37*
G04 #@! TD.AperFunction*
G04 #@! TA.AperFunction,SMDPad,CuDef*
G36*
X298930142Y-66926174D02*
G01*
X298953803Y-66929684D01*
X298977007Y-66935496D01*
X298999529Y-66943554D01*
X299021153Y-66953782D01*
X299041670Y-66966079D01*
X299060883Y-66980329D01*
X299078607Y-66996393D01*
X299094671Y-67014117D01*
X299108921Y-67033330D01*
X299121218Y-67053847D01*
X299131446Y-67075471D01*
X299139504Y-67097993D01*
X299145316Y-67121197D01*
X299148826Y-67144858D01*
X299150000Y-67168750D01*
X299150000Y-67656250D01*
X299148826Y-67680142D01*
X299145316Y-67703803D01*
X299139504Y-67727007D01*
X299131446Y-67749529D01*
X299121218Y-67771153D01*
X299108921Y-67791670D01*
X299094671Y-67810883D01*
X299078607Y-67828607D01*
X299060883Y-67844671D01*
X299041670Y-67858921D01*
X299021153Y-67871218D01*
X298999529Y-67881446D01*
X298977007Y-67889504D01*
X298953803Y-67895316D01*
X298930142Y-67898826D01*
X298906250Y-67900000D01*
X297993750Y-67900000D01*
X297969858Y-67898826D01*
X297946197Y-67895316D01*
X297922993Y-67889504D01*
X297900471Y-67881446D01*
X297878847Y-67871218D01*
X297858330Y-67858921D01*
X297839117Y-67844671D01*
X297821393Y-67828607D01*
X297805329Y-67810883D01*
X297791079Y-67791670D01*
X297778782Y-67771153D01*
X297768554Y-67749529D01*
X297760496Y-67727007D01*
X297754684Y-67703803D01*
X297751174Y-67680142D01*
X297750000Y-67656250D01*
X297750000Y-67168750D01*
X297751174Y-67144858D01*
X297754684Y-67121197D01*
X297760496Y-67097993D01*
X297768554Y-67075471D01*
X297778782Y-67053847D01*
X297791079Y-67033330D01*
X297805329Y-67014117D01*
X297821393Y-66996393D01*
X297839117Y-66980329D01*
X297858330Y-66966079D01*
X297878847Y-66953782D01*
X297900471Y-66943554D01*
X297922993Y-66935496D01*
X297946197Y-66929684D01*
X297969858Y-66926174D01*
X297993750Y-66925000D01*
X298906250Y-66925000D01*
X298930142Y-66926174D01*
G37*
G04 #@! TD.AperFunction*
G04 #@! TA.AperFunction,SMDPad,CuDef*
G36*
X298930142Y-65051174D02*
G01*
X298953803Y-65054684D01*
X298977007Y-65060496D01*
X298999529Y-65068554D01*
X299021153Y-65078782D01*
X299041670Y-65091079D01*
X299060883Y-65105329D01*
X299078607Y-65121393D01*
X299094671Y-65139117D01*
X299108921Y-65158330D01*
X299121218Y-65178847D01*
X299131446Y-65200471D01*
X299139504Y-65222993D01*
X299145316Y-65246197D01*
X299148826Y-65269858D01*
X299150000Y-65293750D01*
X299150000Y-65781250D01*
X299148826Y-65805142D01*
X299145316Y-65828803D01*
X299139504Y-65852007D01*
X299131446Y-65874529D01*
X299121218Y-65896153D01*
X299108921Y-65916670D01*
X299094671Y-65935883D01*
X299078607Y-65953607D01*
X299060883Y-65969671D01*
X299041670Y-65983921D01*
X299021153Y-65996218D01*
X298999529Y-66006446D01*
X298977007Y-66014504D01*
X298953803Y-66020316D01*
X298930142Y-66023826D01*
X298906250Y-66025000D01*
X297993750Y-66025000D01*
X297969858Y-66023826D01*
X297946197Y-66020316D01*
X297922993Y-66014504D01*
X297900471Y-66006446D01*
X297878847Y-65996218D01*
X297858330Y-65983921D01*
X297839117Y-65969671D01*
X297821393Y-65953607D01*
X297805329Y-65935883D01*
X297791079Y-65916670D01*
X297778782Y-65896153D01*
X297768554Y-65874529D01*
X297760496Y-65852007D01*
X297754684Y-65828803D01*
X297751174Y-65805142D01*
X297750000Y-65781250D01*
X297750000Y-65293750D01*
X297751174Y-65269858D01*
X297754684Y-65246197D01*
X297760496Y-65222993D01*
X297768554Y-65200471D01*
X297778782Y-65178847D01*
X297791079Y-65158330D01*
X297805329Y-65139117D01*
X297821393Y-65121393D01*
X297839117Y-65105329D01*
X297858330Y-65091079D01*
X297878847Y-65078782D01*
X297900471Y-65068554D01*
X297922993Y-65060496D01*
X297946197Y-65054684D01*
X297969858Y-65051174D01*
X297993750Y-65050000D01*
X298906250Y-65050000D01*
X298930142Y-65051174D01*
G37*
G04 #@! TD.AperFunction*
G04 #@! TA.AperFunction,SMDPad,CuDef*
G36*
X204405142Y-68516174D02*
G01*
X204428803Y-68519684D01*
X204452007Y-68525496D01*
X204474529Y-68533554D01*
X204496153Y-68543782D01*
X204516670Y-68556079D01*
X204535883Y-68570329D01*
X204553607Y-68586393D01*
X204569671Y-68604117D01*
X204583921Y-68623330D01*
X204596218Y-68643847D01*
X204606446Y-68665471D01*
X204614504Y-68687993D01*
X204620316Y-68711197D01*
X204623826Y-68734858D01*
X204625000Y-68758750D01*
X204625000Y-69671250D01*
X204623826Y-69695142D01*
X204620316Y-69718803D01*
X204614504Y-69742007D01*
X204606446Y-69764529D01*
X204596218Y-69786153D01*
X204583921Y-69806670D01*
X204569671Y-69825883D01*
X204553607Y-69843607D01*
X204535883Y-69859671D01*
X204516670Y-69873921D01*
X204496153Y-69886218D01*
X204474529Y-69896446D01*
X204452007Y-69904504D01*
X204428803Y-69910316D01*
X204405142Y-69913826D01*
X204381250Y-69915000D01*
X203893750Y-69915000D01*
X203869858Y-69913826D01*
X203846197Y-69910316D01*
X203822993Y-69904504D01*
X203800471Y-69896446D01*
X203778847Y-69886218D01*
X203758330Y-69873921D01*
X203739117Y-69859671D01*
X203721393Y-69843607D01*
X203705329Y-69825883D01*
X203691079Y-69806670D01*
X203678782Y-69786153D01*
X203668554Y-69764529D01*
X203660496Y-69742007D01*
X203654684Y-69718803D01*
X203651174Y-69695142D01*
X203650000Y-69671250D01*
X203650000Y-68758750D01*
X203651174Y-68734858D01*
X203654684Y-68711197D01*
X203660496Y-68687993D01*
X203668554Y-68665471D01*
X203678782Y-68643847D01*
X203691079Y-68623330D01*
X203705329Y-68604117D01*
X203721393Y-68586393D01*
X203739117Y-68570329D01*
X203758330Y-68556079D01*
X203778847Y-68543782D01*
X203800471Y-68533554D01*
X203822993Y-68525496D01*
X203846197Y-68519684D01*
X203869858Y-68516174D01*
X203893750Y-68515000D01*
X204381250Y-68515000D01*
X204405142Y-68516174D01*
G37*
G04 #@! TD.AperFunction*
G04 #@! TA.AperFunction,SMDPad,CuDef*
G36*
X202530142Y-68516174D02*
G01*
X202553803Y-68519684D01*
X202577007Y-68525496D01*
X202599529Y-68533554D01*
X202621153Y-68543782D01*
X202641670Y-68556079D01*
X202660883Y-68570329D01*
X202678607Y-68586393D01*
X202694671Y-68604117D01*
X202708921Y-68623330D01*
X202721218Y-68643847D01*
X202731446Y-68665471D01*
X202739504Y-68687993D01*
X202745316Y-68711197D01*
X202748826Y-68734858D01*
X202750000Y-68758750D01*
X202750000Y-69671250D01*
X202748826Y-69695142D01*
X202745316Y-69718803D01*
X202739504Y-69742007D01*
X202731446Y-69764529D01*
X202721218Y-69786153D01*
X202708921Y-69806670D01*
X202694671Y-69825883D01*
X202678607Y-69843607D01*
X202660883Y-69859671D01*
X202641670Y-69873921D01*
X202621153Y-69886218D01*
X202599529Y-69896446D01*
X202577007Y-69904504D01*
X202553803Y-69910316D01*
X202530142Y-69913826D01*
X202506250Y-69915000D01*
X202018750Y-69915000D01*
X201994858Y-69913826D01*
X201971197Y-69910316D01*
X201947993Y-69904504D01*
X201925471Y-69896446D01*
X201903847Y-69886218D01*
X201883330Y-69873921D01*
X201864117Y-69859671D01*
X201846393Y-69843607D01*
X201830329Y-69825883D01*
X201816079Y-69806670D01*
X201803782Y-69786153D01*
X201793554Y-69764529D01*
X201785496Y-69742007D01*
X201779684Y-69718803D01*
X201776174Y-69695142D01*
X201775000Y-69671250D01*
X201775000Y-68758750D01*
X201776174Y-68734858D01*
X201779684Y-68711197D01*
X201785496Y-68687993D01*
X201793554Y-68665471D01*
X201803782Y-68643847D01*
X201816079Y-68623330D01*
X201830329Y-68604117D01*
X201846393Y-68586393D01*
X201864117Y-68570329D01*
X201883330Y-68556079D01*
X201903847Y-68543782D01*
X201925471Y-68533554D01*
X201947993Y-68525496D01*
X201971197Y-68519684D01*
X201994858Y-68516174D01*
X202018750Y-68515000D01*
X202506250Y-68515000D01*
X202530142Y-68516174D01*
G37*
G04 #@! TD.AperFunction*
G04 #@! TA.AperFunction,SMDPad,CuDef*
G36*
X288255142Y-68516174D02*
G01*
X288278803Y-68519684D01*
X288302007Y-68525496D01*
X288324529Y-68533554D01*
X288346153Y-68543782D01*
X288366670Y-68556079D01*
X288385883Y-68570329D01*
X288403607Y-68586393D01*
X288419671Y-68604117D01*
X288433921Y-68623330D01*
X288446218Y-68643847D01*
X288456446Y-68665471D01*
X288464504Y-68687993D01*
X288470316Y-68711197D01*
X288473826Y-68734858D01*
X288475000Y-68758750D01*
X288475000Y-69671250D01*
X288473826Y-69695142D01*
X288470316Y-69718803D01*
X288464504Y-69742007D01*
X288456446Y-69764529D01*
X288446218Y-69786153D01*
X288433921Y-69806670D01*
X288419671Y-69825883D01*
X288403607Y-69843607D01*
X288385883Y-69859671D01*
X288366670Y-69873921D01*
X288346153Y-69886218D01*
X288324529Y-69896446D01*
X288302007Y-69904504D01*
X288278803Y-69910316D01*
X288255142Y-69913826D01*
X288231250Y-69915000D01*
X287743750Y-69915000D01*
X287719858Y-69913826D01*
X287696197Y-69910316D01*
X287672993Y-69904504D01*
X287650471Y-69896446D01*
X287628847Y-69886218D01*
X287608330Y-69873921D01*
X287589117Y-69859671D01*
X287571393Y-69843607D01*
X287555329Y-69825883D01*
X287541079Y-69806670D01*
X287528782Y-69786153D01*
X287518554Y-69764529D01*
X287510496Y-69742007D01*
X287504684Y-69718803D01*
X287501174Y-69695142D01*
X287500000Y-69671250D01*
X287500000Y-68758750D01*
X287501174Y-68734858D01*
X287504684Y-68711197D01*
X287510496Y-68687993D01*
X287518554Y-68665471D01*
X287528782Y-68643847D01*
X287541079Y-68623330D01*
X287555329Y-68604117D01*
X287571393Y-68586393D01*
X287589117Y-68570329D01*
X287608330Y-68556079D01*
X287628847Y-68543782D01*
X287650471Y-68533554D01*
X287672993Y-68525496D01*
X287696197Y-68519684D01*
X287719858Y-68516174D01*
X287743750Y-68515000D01*
X288231250Y-68515000D01*
X288255142Y-68516174D01*
G37*
G04 #@! TD.AperFunction*
G04 #@! TA.AperFunction,SMDPad,CuDef*
G36*
X290130142Y-68516174D02*
G01*
X290153803Y-68519684D01*
X290177007Y-68525496D01*
X290199529Y-68533554D01*
X290221153Y-68543782D01*
X290241670Y-68556079D01*
X290260883Y-68570329D01*
X290278607Y-68586393D01*
X290294671Y-68604117D01*
X290308921Y-68623330D01*
X290321218Y-68643847D01*
X290331446Y-68665471D01*
X290339504Y-68687993D01*
X290345316Y-68711197D01*
X290348826Y-68734858D01*
X290350000Y-68758750D01*
X290350000Y-69671250D01*
X290348826Y-69695142D01*
X290345316Y-69718803D01*
X290339504Y-69742007D01*
X290331446Y-69764529D01*
X290321218Y-69786153D01*
X290308921Y-69806670D01*
X290294671Y-69825883D01*
X290278607Y-69843607D01*
X290260883Y-69859671D01*
X290241670Y-69873921D01*
X290221153Y-69886218D01*
X290199529Y-69896446D01*
X290177007Y-69904504D01*
X290153803Y-69910316D01*
X290130142Y-69913826D01*
X290106250Y-69915000D01*
X289618750Y-69915000D01*
X289594858Y-69913826D01*
X289571197Y-69910316D01*
X289547993Y-69904504D01*
X289525471Y-69896446D01*
X289503847Y-69886218D01*
X289483330Y-69873921D01*
X289464117Y-69859671D01*
X289446393Y-69843607D01*
X289430329Y-69825883D01*
X289416079Y-69806670D01*
X289403782Y-69786153D01*
X289393554Y-69764529D01*
X289385496Y-69742007D01*
X289379684Y-69718803D01*
X289376174Y-69695142D01*
X289375000Y-69671250D01*
X289375000Y-68758750D01*
X289376174Y-68734858D01*
X289379684Y-68711197D01*
X289385496Y-68687993D01*
X289393554Y-68665471D01*
X289403782Y-68643847D01*
X289416079Y-68623330D01*
X289430329Y-68604117D01*
X289446393Y-68586393D01*
X289464117Y-68570329D01*
X289483330Y-68556079D01*
X289503847Y-68543782D01*
X289525471Y-68533554D01*
X289547993Y-68525496D01*
X289571197Y-68519684D01*
X289594858Y-68516174D01*
X289618750Y-68515000D01*
X290106250Y-68515000D01*
X290130142Y-68516174D01*
G37*
G04 #@! TD.AperFunction*
G04 #@! TA.AperFunction,SMDPad,CuDef*
G36*
X202530142Y-64071174D02*
G01*
X202553803Y-64074684D01*
X202577007Y-64080496D01*
X202599529Y-64088554D01*
X202621153Y-64098782D01*
X202641670Y-64111079D01*
X202660883Y-64125329D01*
X202678607Y-64141393D01*
X202694671Y-64159117D01*
X202708921Y-64178330D01*
X202721218Y-64198847D01*
X202731446Y-64220471D01*
X202739504Y-64242993D01*
X202745316Y-64266197D01*
X202748826Y-64289858D01*
X202750000Y-64313750D01*
X202750000Y-65226250D01*
X202748826Y-65250142D01*
X202745316Y-65273803D01*
X202739504Y-65297007D01*
X202731446Y-65319529D01*
X202721218Y-65341153D01*
X202708921Y-65361670D01*
X202694671Y-65380883D01*
X202678607Y-65398607D01*
X202660883Y-65414671D01*
X202641670Y-65428921D01*
X202621153Y-65441218D01*
X202599529Y-65451446D01*
X202577007Y-65459504D01*
X202553803Y-65465316D01*
X202530142Y-65468826D01*
X202506250Y-65470000D01*
X202018750Y-65470000D01*
X201994858Y-65468826D01*
X201971197Y-65465316D01*
X201947993Y-65459504D01*
X201925471Y-65451446D01*
X201903847Y-65441218D01*
X201883330Y-65428921D01*
X201864117Y-65414671D01*
X201846393Y-65398607D01*
X201830329Y-65380883D01*
X201816079Y-65361670D01*
X201803782Y-65341153D01*
X201793554Y-65319529D01*
X201785496Y-65297007D01*
X201779684Y-65273803D01*
X201776174Y-65250142D01*
X201775000Y-65226250D01*
X201775000Y-64313750D01*
X201776174Y-64289858D01*
X201779684Y-64266197D01*
X201785496Y-64242993D01*
X201793554Y-64220471D01*
X201803782Y-64198847D01*
X201816079Y-64178330D01*
X201830329Y-64159117D01*
X201846393Y-64141393D01*
X201864117Y-64125329D01*
X201883330Y-64111079D01*
X201903847Y-64098782D01*
X201925471Y-64088554D01*
X201947993Y-64080496D01*
X201971197Y-64074684D01*
X201994858Y-64071174D01*
X202018750Y-64070000D01*
X202506250Y-64070000D01*
X202530142Y-64071174D01*
G37*
G04 #@! TD.AperFunction*
G04 #@! TA.AperFunction,SMDPad,CuDef*
G36*
X204405142Y-64071174D02*
G01*
X204428803Y-64074684D01*
X204452007Y-64080496D01*
X204474529Y-64088554D01*
X204496153Y-64098782D01*
X204516670Y-64111079D01*
X204535883Y-64125329D01*
X204553607Y-64141393D01*
X204569671Y-64159117D01*
X204583921Y-64178330D01*
X204596218Y-64198847D01*
X204606446Y-64220471D01*
X204614504Y-64242993D01*
X204620316Y-64266197D01*
X204623826Y-64289858D01*
X204625000Y-64313750D01*
X204625000Y-65226250D01*
X204623826Y-65250142D01*
X204620316Y-65273803D01*
X204614504Y-65297007D01*
X204606446Y-65319529D01*
X204596218Y-65341153D01*
X204583921Y-65361670D01*
X204569671Y-65380883D01*
X204553607Y-65398607D01*
X204535883Y-65414671D01*
X204516670Y-65428921D01*
X204496153Y-65441218D01*
X204474529Y-65451446D01*
X204452007Y-65459504D01*
X204428803Y-65465316D01*
X204405142Y-65468826D01*
X204381250Y-65470000D01*
X203893750Y-65470000D01*
X203869858Y-65468826D01*
X203846197Y-65465316D01*
X203822993Y-65459504D01*
X203800471Y-65451446D01*
X203778847Y-65441218D01*
X203758330Y-65428921D01*
X203739117Y-65414671D01*
X203721393Y-65398607D01*
X203705329Y-65380883D01*
X203691079Y-65361670D01*
X203678782Y-65341153D01*
X203668554Y-65319529D01*
X203660496Y-65297007D01*
X203654684Y-65273803D01*
X203651174Y-65250142D01*
X203650000Y-65226250D01*
X203650000Y-64313750D01*
X203651174Y-64289858D01*
X203654684Y-64266197D01*
X203660496Y-64242993D01*
X203668554Y-64220471D01*
X203678782Y-64198847D01*
X203691079Y-64178330D01*
X203705329Y-64159117D01*
X203721393Y-64141393D01*
X203739117Y-64125329D01*
X203758330Y-64111079D01*
X203778847Y-64098782D01*
X203800471Y-64088554D01*
X203822993Y-64080496D01*
X203846197Y-64074684D01*
X203869858Y-64071174D01*
X203893750Y-64070000D01*
X204381250Y-64070000D01*
X204405142Y-64071174D01*
G37*
G04 #@! TD.AperFunction*
G04 #@! TA.AperFunction,SMDPad,CuDef*
G36*
X290130142Y-64071174D02*
G01*
X290153803Y-64074684D01*
X290177007Y-64080496D01*
X290199529Y-64088554D01*
X290221153Y-64098782D01*
X290241670Y-64111079D01*
X290260883Y-64125329D01*
X290278607Y-64141393D01*
X290294671Y-64159117D01*
X290308921Y-64178330D01*
X290321218Y-64198847D01*
X290331446Y-64220471D01*
X290339504Y-64242993D01*
X290345316Y-64266197D01*
X290348826Y-64289858D01*
X290350000Y-64313750D01*
X290350000Y-65226250D01*
X290348826Y-65250142D01*
X290345316Y-65273803D01*
X290339504Y-65297007D01*
X290331446Y-65319529D01*
X290321218Y-65341153D01*
X290308921Y-65361670D01*
X290294671Y-65380883D01*
X290278607Y-65398607D01*
X290260883Y-65414671D01*
X290241670Y-65428921D01*
X290221153Y-65441218D01*
X290199529Y-65451446D01*
X290177007Y-65459504D01*
X290153803Y-65465316D01*
X290130142Y-65468826D01*
X290106250Y-65470000D01*
X289618750Y-65470000D01*
X289594858Y-65468826D01*
X289571197Y-65465316D01*
X289547993Y-65459504D01*
X289525471Y-65451446D01*
X289503847Y-65441218D01*
X289483330Y-65428921D01*
X289464117Y-65414671D01*
X289446393Y-65398607D01*
X289430329Y-65380883D01*
X289416079Y-65361670D01*
X289403782Y-65341153D01*
X289393554Y-65319529D01*
X289385496Y-65297007D01*
X289379684Y-65273803D01*
X289376174Y-65250142D01*
X289375000Y-65226250D01*
X289375000Y-64313750D01*
X289376174Y-64289858D01*
X289379684Y-64266197D01*
X289385496Y-64242993D01*
X289393554Y-64220471D01*
X289403782Y-64198847D01*
X289416079Y-64178330D01*
X289430329Y-64159117D01*
X289446393Y-64141393D01*
X289464117Y-64125329D01*
X289483330Y-64111079D01*
X289503847Y-64098782D01*
X289525471Y-64088554D01*
X289547993Y-64080496D01*
X289571197Y-64074684D01*
X289594858Y-64071174D01*
X289618750Y-64070000D01*
X290106250Y-64070000D01*
X290130142Y-64071174D01*
G37*
G04 #@! TD.AperFunction*
G04 #@! TA.AperFunction,SMDPad,CuDef*
G36*
X288255142Y-64071174D02*
G01*
X288278803Y-64074684D01*
X288302007Y-64080496D01*
X288324529Y-64088554D01*
X288346153Y-64098782D01*
X288366670Y-64111079D01*
X288385883Y-64125329D01*
X288403607Y-64141393D01*
X288419671Y-64159117D01*
X288433921Y-64178330D01*
X288446218Y-64198847D01*
X288456446Y-64220471D01*
X288464504Y-64242993D01*
X288470316Y-64266197D01*
X288473826Y-64289858D01*
X288475000Y-64313750D01*
X288475000Y-65226250D01*
X288473826Y-65250142D01*
X288470316Y-65273803D01*
X288464504Y-65297007D01*
X288456446Y-65319529D01*
X288446218Y-65341153D01*
X288433921Y-65361670D01*
X288419671Y-65380883D01*
X288403607Y-65398607D01*
X288385883Y-65414671D01*
X288366670Y-65428921D01*
X288346153Y-65441218D01*
X288324529Y-65451446D01*
X288302007Y-65459504D01*
X288278803Y-65465316D01*
X288255142Y-65468826D01*
X288231250Y-65470000D01*
X287743750Y-65470000D01*
X287719858Y-65468826D01*
X287696197Y-65465316D01*
X287672993Y-65459504D01*
X287650471Y-65451446D01*
X287628847Y-65441218D01*
X287608330Y-65428921D01*
X287589117Y-65414671D01*
X287571393Y-65398607D01*
X287555329Y-65380883D01*
X287541079Y-65361670D01*
X287528782Y-65341153D01*
X287518554Y-65319529D01*
X287510496Y-65297007D01*
X287504684Y-65273803D01*
X287501174Y-65250142D01*
X287500000Y-65226250D01*
X287500000Y-64313750D01*
X287501174Y-64289858D01*
X287504684Y-64266197D01*
X287510496Y-64242993D01*
X287518554Y-64220471D01*
X287528782Y-64198847D01*
X287541079Y-64178330D01*
X287555329Y-64159117D01*
X287571393Y-64141393D01*
X287589117Y-64125329D01*
X287608330Y-64111079D01*
X287628847Y-64098782D01*
X287650471Y-64088554D01*
X287672993Y-64080496D01*
X287696197Y-64074684D01*
X287719858Y-64071174D01*
X287743750Y-64070000D01*
X288231250Y-64070000D01*
X288255142Y-64071174D01*
G37*
G04 #@! TD.AperFunction*
G04 #@! TA.AperFunction,SMDPad,CuDef*
G36*
X75729703Y-68493222D02*
G01*
X75744264Y-68495382D01*
X75758543Y-68498959D01*
X75772403Y-68503918D01*
X75785710Y-68510212D01*
X75798336Y-68517780D01*
X75810159Y-68526548D01*
X75821066Y-68536434D01*
X75830952Y-68547341D01*
X75839720Y-68559164D01*
X75847288Y-68571790D01*
X75853582Y-68585097D01*
X75858541Y-68598957D01*
X75862118Y-68613236D01*
X75864278Y-68627797D01*
X75865000Y-68642500D01*
X75865000Y-70292500D01*
X75864278Y-70307203D01*
X75862118Y-70321764D01*
X75858541Y-70336043D01*
X75853582Y-70349903D01*
X75847288Y-70363210D01*
X75839720Y-70375836D01*
X75830952Y-70387659D01*
X75821066Y-70398566D01*
X75810159Y-70408452D01*
X75798336Y-70417220D01*
X75785710Y-70424788D01*
X75772403Y-70431082D01*
X75758543Y-70436041D01*
X75744264Y-70439618D01*
X75729703Y-70441778D01*
X75715000Y-70442500D01*
X75415000Y-70442500D01*
X75400297Y-70441778D01*
X75385736Y-70439618D01*
X75371457Y-70436041D01*
X75357597Y-70431082D01*
X75344290Y-70424788D01*
X75331664Y-70417220D01*
X75319841Y-70408452D01*
X75308934Y-70398566D01*
X75299048Y-70387659D01*
X75290280Y-70375836D01*
X75282712Y-70363210D01*
X75276418Y-70349903D01*
X75271459Y-70336043D01*
X75267882Y-70321764D01*
X75265722Y-70307203D01*
X75265000Y-70292500D01*
X75265000Y-68642500D01*
X75265722Y-68627797D01*
X75267882Y-68613236D01*
X75271459Y-68598957D01*
X75276418Y-68585097D01*
X75282712Y-68571790D01*
X75290280Y-68559164D01*
X75299048Y-68547341D01*
X75308934Y-68536434D01*
X75319841Y-68526548D01*
X75331664Y-68517780D01*
X75344290Y-68510212D01*
X75357597Y-68503918D01*
X75371457Y-68498959D01*
X75385736Y-68495382D01*
X75400297Y-68493222D01*
X75415000Y-68492500D01*
X75715000Y-68492500D01*
X75729703Y-68493222D01*
G37*
G04 #@! TD.AperFunction*
G04 #@! TA.AperFunction,SMDPad,CuDef*
G36*
X76999703Y-68493222D02*
G01*
X77014264Y-68495382D01*
X77028543Y-68498959D01*
X77042403Y-68503918D01*
X77055710Y-68510212D01*
X77068336Y-68517780D01*
X77080159Y-68526548D01*
X77091066Y-68536434D01*
X77100952Y-68547341D01*
X77109720Y-68559164D01*
X77117288Y-68571790D01*
X77123582Y-68585097D01*
X77128541Y-68598957D01*
X77132118Y-68613236D01*
X77134278Y-68627797D01*
X77135000Y-68642500D01*
X77135000Y-70292500D01*
X77134278Y-70307203D01*
X77132118Y-70321764D01*
X77128541Y-70336043D01*
X77123582Y-70349903D01*
X77117288Y-70363210D01*
X77109720Y-70375836D01*
X77100952Y-70387659D01*
X77091066Y-70398566D01*
X77080159Y-70408452D01*
X77068336Y-70417220D01*
X77055710Y-70424788D01*
X77042403Y-70431082D01*
X77028543Y-70436041D01*
X77014264Y-70439618D01*
X76999703Y-70441778D01*
X76985000Y-70442500D01*
X76685000Y-70442500D01*
X76670297Y-70441778D01*
X76655736Y-70439618D01*
X76641457Y-70436041D01*
X76627597Y-70431082D01*
X76614290Y-70424788D01*
X76601664Y-70417220D01*
X76589841Y-70408452D01*
X76578934Y-70398566D01*
X76569048Y-70387659D01*
X76560280Y-70375836D01*
X76552712Y-70363210D01*
X76546418Y-70349903D01*
X76541459Y-70336043D01*
X76537882Y-70321764D01*
X76535722Y-70307203D01*
X76535000Y-70292500D01*
X76535000Y-68642500D01*
X76535722Y-68627797D01*
X76537882Y-68613236D01*
X76541459Y-68598957D01*
X76546418Y-68585097D01*
X76552712Y-68571790D01*
X76560280Y-68559164D01*
X76569048Y-68547341D01*
X76578934Y-68536434D01*
X76589841Y-68526548D01*
X76601664Y-68517780D01*
X76614290Y-68510212D01*
X76627597Y-68503918D01*
X76641457Y-68498959D01*
X76655736Y-68495382D01*
X76670297Y-68493222D01*
X76685000Y-68492500D01*
X76985000Y-68492500D01*
X76999703Y-68493222D01*
G37*
G04 #@! TD.AperFunction*
G04 #@! TA.AperFunction,SMDPad,CuDef*
G36*
X78269703Y-68493222D02*
G01*
X78284264Y-68495382D01*
X78298543Y-68498959D01*
X78312403Y-68503918D01*
X78325710Y-68510212D01*
X78338336Y-68517780D01*
X78350159Y-68526548D01*
X78361066Y-68536434D01*
X78370952Y-68547341D01*
X78379720Y-68559164D01*
X78387288Y-68571790D01*
X78393582Y-68585097D01*
X78398541Y-68598957D01*
X78402118Y-68613236D01*
X78404278Y-68627797D01*
X78405000Y-68642500D01*
X78405000Y-70292500D01*
X78404278Y-70307203D01*
X78402118Y-70321764D01*
X78398541Y-70336043D01*
X78393582Y-70349903D01*
X78387288Y-70363210D01*
X78379720Y-70375836D01*
X78370952Y-70387659D01*
X78361066Y-70398566D01*
X78350159Y-70408452D01*
X78338336Y-70417220D01*
X78325710Y-70424788D01*
X78312403Y-70431082D01*
X78298543Y-70436041D01*
X78284264Y-70439618D01*
X78269703Y-70441778D01*
X78255000Y-70442500D01*
X77955000Y-70442500D01*
X77940297Y-70441778D01*
X77925736Y-70439618D01*
X77911457Y-70436041D01*
X77897597Y-70431082D01*
X77884290Y-70424788D01*
X77871664Y-70417220D01*
X77859841Y-70408452D01*
X77848934Y-70398566D01*
X77839048Y-70387659D01*
X77830280Y-70375836D01*
X77822712Y-70363210D01*
X77816418Y-70349903D01*
X77811459Y-70336043D01*
X77807882Y-70321764D01*
X77805722Y-70307203D01*
X77805000Y-70292500D01*
X77805000Y-68642500D01*
X77805722Y-68627797D01*
X77807882Y-68613236D01*
X77811459Y-68598957D01*
X77816418Y-68585097D01*
X77822712Y-68571790D01*
X77830280Y-68559164D01*
X77839048Y-68547341D01*
X77848934Y-68536434D01*
X77859841Y-68526548D01*
X77871664Y-68517780D01*
X77884290Y-68510212D01*
X77897597Y-68503918D01*
X77911457Y-68498959D01*
X77925736Y-68495382D01*
X77940297Y-68493222D01*
X77955000Y-68492500D01*
X78255000Y-68492500D01*
X78269703Y-68493222D01*
G37*
G04 #@! TD.AperFunction*
G04 #@! TA.AperFunction,SMDPad,CuDef*
G36*
X79539703Y-68493222D02*
G01*
X79554264Y-68495382D01*
X79568543Y-68498959D01*
X79582403Y-68503918D01*
X79595710Y-68510212D01*
X79608336Y-68517780D01*
X79620159Y-68526548D01*
X79631066Y-68536434D01*
X79640952Y-68547341D01*
X79649720Y-68559164D01*
X79657288Y-68571790D01*
X79663582Y-68585097D01*
X79668541Y-68598957D01*
X79672118Y-68613236D01*
X79674278Y-68627797D01*
X79675000Y-68642500D01*
X79675000Y-70292500D01*
X79674278Y-70307203D01*
X79672118Y-70321764D01*
X79668541Y-70336043D01*
X79663582Y-70349903D01*
X79657288Y-70363210D01*
X79649720Y-70375836D01*
X79640952Y-70387659D01*
X79631066Y-70398566D01*
X79620159Y-70408452D01*
X79608336Y-70417220D01*
X79595710Y-70424788D01*
X79582403Y-70431082D01*
X79568543Y-70436041D01*
X79554264Y-70439618D01*
X79539703Y-70441778D01*
X79525000Y-70442500D01*
X79225000Y-70442500D01*
X79210297Y-70441778D01*
X79195736Y-70439618D01*
X79181457Y-70436041D01*
X79167597Y-70431082D01*
X79154290Y-70424788D01*
X79141664Y-70417220D01*
X79129841Y-70408452D01*
X79118934Y-70398566D01*
X79109048Y-70387659D01*
X79100280Y-70375836D01*
X79092712Y-70363210D01*
X79086418Y-70349903D01*
X79081459Y-70336043D01*
X79077882Y-70321764D01*
X79075722Y-70307203D01*
X79075000Y-70292500D01*
X79075000Y-68642500D01*
X79075722Y-68627797D01*
X79077882Y-68613236D01*
X79081459Y-68598957D01*
X79086418Y-68585097D01*
X79092712Y-68571790D01*
X79100280Y-68559164D01*
X79109048Y-68547341D01*
X79118934Y-68536434D01*
X79129841Y-68526548D01*
X79141664Y-68517780D01*
X79154290Y-68510212D01*
X79167597Y-68503918D01*
X79181457Y-68498959D01*
X79195736Y-68495382D01*
X79210297Y-68493222D01*
X79225000Y-68492500D01*
X79525000Y-68492500D01*
X79539703Y-68493222D01*
G37*
G04 #@! TD.AperFunction*
G04 #@! TA.AperFunction,SMDPad,CuDef*
G36*
X80809703Y-68493222D02*
G01*
X80824264Y-68495382D01*
X80838543Y-68498959D01*
X80852403Y-68503918D01*
X80865710Y-68510212D01*
X80878336Y-68517780D01*
X80890159Y-68526548D01*
X80901066Y-68536434D01*
X80910952Y-68547341D01*
X80919720Y-68559164D01*
X80927288Y-68571790D01*
X80933582Y-68585097D01*
X80938541Y-68598957D01*
X80942118Y-68613236D01*
X80944278Y-68627797D01*
X80945000Y-68642500D01*
X80945000Y-70292500D01*
X80944278Y-70307203D01*
X80942118Y-70321764D01*
X80938541Y-70336043D01*
X80933582Y-70349903D01*
X80927288Y-70363210D01*
X80919720Y-70375836D01*
X80910952Y-70387659D01*
X80901066Y-70398566D01*
X80890159Y-70408452D01*
X80878336Y-70417220D01*
X80865710Y-70424788D01*
X80852403Y-70431082D01*
X80838543Y-70436041D01*
X80824264Y-70439618D01*
X80809703Y-70441778D01*
X80795000Y-70442500D01*
X80495000Y-70442500D01*
X80480297Y-70441778D01*
X80465736Y-70439618D01*
X80451457Y-70436041D01*
X80437597Y-70431082D01*
X80424290Y-70424788D01*
X80411664Y-70417220D01*
X80399841Y-70408452D01*
X80388934Y-70398566D01*
X80379048Y-70387659D01*
X80370280Y-70375836D01*
X80362712Y-70363210D01*
X80356418Y-70349903D01*
X80351459Y-70336043D01*
X80347882Y-70321764D01*
X80345722Y-70307203D01*
X80345000Y-70292500D01*
X80345000Y-68642500D01*
X80345722Y-68627797D01*
X80347882Y-68613236D01*
X80351459Y-68598957D01*
X80356418Y-68585097D01*
X80362712Y-68571790D01*
X80370280Y-68559164D01*
X80379048Y-68547341D01*
X80388934Y-68536434D01*
X80399841Y-68526548D01*
X80411664Y-68517780D01*
X80424290Y-68510212D01*
X80437597Y-68503918D01*
X80451457Y-68498959D01*
X80465736Y-68495382D01*
X80480297Y-68493222D01*
X80495000Y-68492500D01*
X80795000Y-68492500D01*
X80809703Y-68493222D01*
G37*
G04 #@! TD.AperFunction*
G04 #@! TA.AperFunction,SMDPad,CuDef*
G36*
X82079703Y-68493222D02*
G01*
X82094264Y-68495382D01*
X82108543Y-68498959D01*
X82122403Y-68503918D01*
X82135710Y-68510212D01*
X82148336Y-68517780D01*
X82160159Y-68526548D01*
X82171066Y-68536434D01*
X82180952Y-68547341D01*
X82189720Y-68559164D01*
X82197288Y-68571790D01*
X82203582Y-68585097D01*
X82208541Y-68598957D01*
X82212118Y-68613236D01*
X82214278Y-68627797D01*
X82215000Y-68642500D01*
X82215000Y-70292500D01*
X82214278Y-70307203D01*
X82212118Y-70321764D01*
X82208541Y-70336043D01*
X82203582Y-70349903D01*
X82197288Y-70363210D01*
X82189720Y-70375836D01*
X82180952Y-70387659D01*
X82171066Y-70398566D01*
X82160159Y-70408452D01*
X82148336Y-70417220D01*
X82135710Y-70424788D01*
X82122403Y-70431082D01*
X82108543Y-70436041D01*
X82094264Y-70439618D01*
X82079703Y-70441778D01*
X82065000Y-70442500D01*
X81765000Y-70442500D01*
X81750297Y-70441778D01*
X81735736Y-70439618D01*
X81721457Y-70436041D01*
X81707597Y-70431082D01*
X81694290Y-70424788D01*
X81681664Y-70417220D01*
X81669841Y-70408452D01*
X81658934Y-70398566D01*
X81649048Y-70387659D01*
X81640280Y-70375836D01*
X81632712Y-70363210D01*
X81626418Y-70349903D01*
X81621459Y-70336043D01*
X81617882Y-70321764D01*
X81615722Y-70307203D01*
X81615000Y-70292500D01*
X81615000Y-68642500D01*
X81615722Y-68627797D01*
X81617882Y-68613236D01*
X81621459Y-68598957D01*
X81626418Y-68585097D01*
X81632712Y-68571790D01*
X81640280Y-68559164D01*
X81649048Y-68547341D01*
X81658934Y-68536434D01*
X81669841Y-68526548D01*
X81681664Y-68517780D01*
X81694290Y-68510212D01*
X81707597Y-68503918D01*
X81721457Y-68498959D01*
X81735736Y-68495382D01*
X81750297Y-68493222D01*
X81765000Y-68492500D01*
X82065000Y-68492500D01*
X82079703Y-68493222D01*
G37*
G04 #@! TD.AperFunction*
G04 #@! TA.AperFunction,SMDPad,CuDef*
G36*
X83349703Y-68493222D02*
G01*
X83364264Y-68495382D01*
X83378543Y-68498959D01*
X83392403Y-68503918D01*
X83405710Y-68510212D01*
X83418336Y-68517780D01*
X83430159Y-68526548D01*
X83441066Y-68536434D01*
X83450952Y-68547341D01*
X83459720Y-68559164D01*
X83467288Y-68571790D01*
X83473582Y-68585097D01*
X83478541Y-68598957D01*
X83482118Y-68613236D01*
X83484278Y-68627797D01*
X83485000Y-68642500D01*
X83485000Y-70292500D01*
X83484278Y-70307203D01*
X83482118Y-70321764D01*
X83478541Y-70336043D01*
X83473582Y-70349903D01*
X83467288Y-70363210D01*
X83459720Y-70375836D01*
X83450952Y-70387659D01*
X83441066Y-70398566D01*
X83430159Y-70408452D01*
X83418336Y-70417220D01*
X83405710Y-70424788D01*
X83392403Y-70431082D01*
X83378543Y-70436041D01*
X83364264Y-70439618D01*
X83349703Y-70441778D01*
X83335000Y-70442500D01*
X83035000Y-70442500D01*
X83020297Y-70441778D01*
X83005736Y-70439618D01*
X82991457Y-70436041D01*
X82977597Y-70431082D01*
X82964290Y-70424788D01*
X82951664Y-70417220D01*
X82939841Y-70408452D01*
X82928934Y-70398566D01*
X82919048Y-70387659D01*
X82910280Y-70375836D01*
X82902712Y-70363210D01*
X82896418Y-70349903D01*
X82891459Y-70336043D01*
X82887882Y-70321764D01*
X82885722Y-70307203D01*
X82885000Y-70292500D01*
X82885000Y-68642500D01*
X82885722Y-68627797D01*
X82887882Y-68613236D01*
X82891459Y-68598957D01*
X82896418Y-68585097D01*
X82902712Y-68571790D01*
X82910280Y-68559164D01*
X82919048Y-68547341D01*
X82928934Y-68536434D01*
X82939841Y-68526548D01*
X82951664Y-68517780D01*
X82964290Y-68510212D01*
X82977597Y-68503918D01*
X82991457Y-68498959D01*
X83005736Y-68495382D01*
X83020297Y-68493222D01*
X83035000Y-68492500D01*
X83335000Y-68492500D01*
X83349703Y-68493222D01*
G37*
G04 #@! TD.AperFunction*
G04 #@! TA.AperFunction,SMDPad,CuDef*
G36*
X84619703Y-68493222D02*
G01*
X84634264Y-68495382D01*
X84648543Y-68498959D01*
X84662403Y-68503918D01*
X84675710Y-68510212D01*
X84688336Y-68517780D01*
X84700159Y-68526548D01*
X84711066Y-68536434D01*
X84720952Y-68547341D01*
X84729720Y-68559164D01*
X84737288Y-68571790D01*
X84743582Y-68585097D01*
X84748541Y-68598957D01*
X84752118Y-68613236D01*
X84754278Y-68627797D01*
X84755000Y-68642500D01*
X84755000Y-70292500D01*
X84754278Y-70307203D01*
X84752118Y-70321764D01*
X84748541Y-70336043D01*
X84743582Y-70349903D01*
X84737288Y-70363210D01*
X84729720Y-70375836D01*
X84720952Y-70387659D01*
X84711066Y-70398566D01*
X84700159Y-70408452D01*
X84688336Y-70417220D01*
X84675710Y-70424788D01*
X84662403Y-70431082D01*
X84648543Y-70436041D01*
X84634264Y-70439618D01*
X84619703Y-70441778D01*
X84605000Y-70442500D01*
X84305000Y-70442500D01*
X84290297Y-70441778D01*
X84275736Y-70439618D01*
X84261457Y-70436041D01*
X84247597Y-70431082D01*
X84234290Y-70424788D01*
X84221664Y-70417220D01*
X84209841Y-70408452D01*
X84198934Y-70398566D01*
X84189048Y-70387659D01*
X84180280Y-70375836D01*
X84172712Y-70363210D01*
X84166418Y-70349903D01*
X84161459Y-70336043D01*
X84157882Y-70321764D01*
X84155722Y-70307203D01*
X84155000Y-70292500D01*
X84155000Y-68642500D01*
X84155722Y-68627797D01*
X84157882Y-68613236D01*
X84161459Y-68598957D01*
X84166418Y-68585097D01*
X84172712Y-68571790D01*
X84180280Y-68559164D01*
X84189048Y-68547341D01*
X84198934Y-68536434D01*
X84209841Y-68526548D01*
X84221664Y-68517780D01*
X84234290Y-68510212D01*
X84247597Y-68503918D01*
X84261457Y-68498959D01*
X84275736Y-68495382D01*
X84290297Y-68493222D01*
X84305000Y-68492500D01*
X84605000Y-68492500D01*
X84619703Y-68493222D01*
G37*
G04 #@! TD.AperFunction*
G04 #@! TA.AperFunction,SMDPad,CuDef*
G36*
X84619703Y-63543222D02*
G01*
X84634264Y-63545382D01*
X84648543Y-63548959D01*
X84662403Y-63553918D01*
X84675710Y-63560212D01*
X84688336Y-63567780D01*
X84700159Y-63576548D01*
X84711066Y-63586434D01*
X84720952Y-63597341D01*
X84729720Y-63609164D01*
X84737288Y-63621790D01*
X84743582Y-63635097D01*
X84748541Y-63648957D01*
X84752118Y-63663236D01*
X84754278Y-63677797D01*
X84755000Y-63692500D01*
X84755000Y-65342500D01*
X84754278Y-65357203D01*
X84752118Y-65371764D01*
X84748541Y-65386043D01*
X84743582Y-65399903D01*
X84737288Y-65413210D01*
X84729720Y-65425836D01*
X84720952Y-65437659D01*
X84711066Y-65448566D01*
X84700159Y-65458452D01*
X84688336Y-65467220D01*
X84675710Y-65474788D01*
X84662403Y-65481082D01*
X84648543Y-65486041D01*
X84634264Y-65489618D01*
X84619703Y-65491778D01*
X84605000Y-65492500D01*
X84305000Y-65492500D01*
X84290297Y-65491778D01*
X84275736Y-65489618D01*
X84261457Y-65486041D01*
X84247597Y-65481082D01*
X84234290Y-65474788D01*
X84221664Y-65467220D01*
X84209841Y-65458452D01*
X84198934Y-65448566D01*
X84189048Y-65437659D01*
X84180280Y-65425836D01*
X84172712Y-65413210D01*
X84166418Y-65399903D01*
X84161459Y-65386043D01*
X84157882Y-65371764D01*
X84155722Y-65357203D01*
X84155000Y-65342500D01*
X84155000Y-63692500D01*
X84155722Y-63677797D01*
X84157882Y-63663236D01*
X84161459Y-63648957D01*
X84166418Y-63635097D01*
X84172712Y-63621790D01*
X84180280Y-63609164D01*
X84189048Y-63597341D01*
X84198934Y-63586434D01*
X84209841Y-63576548D01*
X84221664Y-63567780D01*
X84234290Y-63560212D01*
X84247597Y-63553918D01*
X84261457Y-63548959D01*
X84275736Y-63545382D01*
X84290297Y-63543222D01*
X84305000Y-63542500D01*
X84605000Y-63542500D01*
X84619703Y-63543222D01*
G37*
G04 #@! TD.AperFunction*
G04 #@! TA.AperFunction,SMDPad,CuDef*
G36*
X83349703Y-63543222D02*
G01*
X83364264Y-63545382D01*
X83378543Y-63548959D01*
X83392403Y-63553918D01*
X83405710Y-63560212D01*
X83418336Y-63567780D01*
X83430159Y-63576548D01*
X83441066Y-63586434D01*
X83450952Y-63597341D01*
X83459720Y-63609164D01*
X83467288Y-63621790D01*
X83473582Y-63635097D01*
X83478541Y-63648957D01*
X83482118Y-63663236D01*
X83484278Y-63677797D01*
X83485000Y-63692500D01*
X83485000Y-65342500D01*
X83484278Y-65357203D01*
X83482118Y-65371764D01*
X83478541Y-65386043D01*
X83473582Y-65399903D01*
X83467288Y-65413210D01*
X83459720Y-65425836D01*
X83450952Y-65437659D01*
X83441066Y-65448566D01*
X83430159Y-65458452D01*
X83418336Y-65467220D01*
X83405710Y-65474788D01*
X83392403Y-65481082D01*
X83378543Y-65486041D01*
X83364264Y-65489618D01*
X83349703Y-65491778D01*
X83335000Y-65492500D01*
X83035000Y-65492500D01*
X83020297Y-65491778D01*
X83005736Y-65489618D01*
X82991457Y-65486041D01*
X82977597Y-65481082D01*
X82964290Y-65474788D01*
X82951664Y-65467220D01*
X82939841Y-65458452D01*
X82928934Y-65448566D01*
X82919048Y-65437659D01*
X82910280Y-65425836D01*
X82902712Y-65413210D01*
X82896418Y-65399903D01*
X82891459Y-65386043D01*
X82887882Y-65371764D01*
X82885722Y-65357203D01*
X82885000Y-65342500D01*
X82885000Y-63692500D01*
X82885722Y-63677797D01*
X82887882Y-63663236D01*
X82891459Y-63648957D01*
X82896418Y-63635097D01*
X82902712Y-63621790D01*
X82910280Y-63609164D01*
X82919048Y-63597341D01*
X82928934Y-63586434D01*
X82939841Y-63576548D01*
X82951664Y-63567780D01*
X82964290Y-63560212D01*
X82977597Y-63553918D01*
X82991457Y-63548959D01*
X83005736Y-63545382D01*
X83020297Y-63543222D01*
X83035000Y-63542500D01*
X83335000Y-63542500D01*
X83349703Y-63543222D01*
G37*
G04 #@! TD.AperFunction*
G04 #@! TA.AperFunction,SMDPad,CuDef*
G36*
X82079703Y-63543222D02*
G01*
X82094264Y-63545382D01*
X82108543Y-63548959D01*
X82122403Y-63553918D01*
X82135710Y-63560212D01*
X82148336Y-63567780D01*
X82160159Y-63576548D01*
X82171066Y-63586434D01*
X82180952Y-63597341D01*
X82189720Y-63609164D01*
X82197288Y-63621790D01*
X82203582Y-63635097D01*
X82208541Y-63648957D01*
X82212118Y-63663236D01*
X82214278Y-63677797D01*
X82215000Y-63692500D01*
X82215000Y-65342500D01*
X82214278Y-65357203D01*
X82212118Y-65371764D01*
X82208541Y-65386043D01*
X82203582Y-65399903D01*
X82197288Y-65413210D01*
X82189720Y-65425836D01*
X82180952Y-65437659D01*
X82171066Y-65448566D01*
X82160159Y-65458452D01*
X82148336Y-65467220D01*
X82135710Y-65474788D01*
X82122403Y-65481082D01*
X82108543Y-65486041D01*
X82094264Y-65489618D01*
X82079703Y-65491778D01*
X82065000Y-65492500D01*
X81765000Y-65492500D01*
X81750297Y-65491778D01*
X81735736Y-65489618D01*
X81721457Y-65486041D01*
X81707597Y-65481082D01*
X81694290Y-65474788D01*
X81681664Y-65467220D01*
X81669841Y-65458452D01*
X81658934Y-65448566D01*
X81649048Y-65437659D01*
X81640280Y-65425836D01*
X81632712Y-65413210D01*
X81626418Y-65399903D01*
X81621459Y-65386043D01*
X81617882Y-65371764D01*
X81615722Y-65357203D01*
X81615000Y-65342500D01*
X81615000Y-63692500D01*
X81615722Y-63677797D01*
X81617882Y-63663236D01*
X81621459Y-63648957D01*
X81626418Y-63635097D01*
X81632712Y-63621790D01*
X81640280Y-63609164D01*
X81649048Y-63597341D01*
X81658934Y-63586434D01*
X81669841Y-63576548D01*
X81681664Y-63567780D01*
X81694290Y-63560212D01*
X81707597Y-63553918D01*
X81721457Y-63548959D01*
X81735736Y-63545382D01*
X81750297Y-63543222D01*
X81765000Y-63542500D01*
X82065000Y-63542500D01*
X82079703Y-63543222D01*
G37*
G04 #@! TD.AperFunction*
G04 #@! TA.AperFunction,SMDPad,CuDef*
G36*
X80809703Y-63543222D02*
G01*
X80824264Y-63545382D01*
X80838543Y-63548959D01*
X80852403Y-63553918D01*
X80865710Y-63560212D01*
X80878336Y-63567780D01*
X80890159Y-63576548D01*
X80901066Y-63586434D01*
X80910952Y-63597341D01*
X80919720Y-63609164D01*
X80927288Y-63621790D01*
X80933582Y-63635097D01*
X80938541Y-63648957D01*
X80942118Y-63663236D01*
X80944278Y-63677797D01*
X80945000Y-63692500D01*
X80945000Y-65342500D01*
X80944278Y-65357203D01*
X80942118Y-65371764D01*
X80938541Y-65386043D01*
X80933582Y-65399903D01*
X80927288Y-65413210D01*
X80919720Y-65425836D01*
X80910952Y-65437659D01*
X80901066Y-65448566D01*
X80890159Y-65458452D01*
X80878336Y-65467220D01*
X80865710Y-65474788D01*
X80852403Y-65481082D01*
X80838543Y-65486041D01*
X80824264Y-65489618D01*
X80809703Y-65491778D01*
X80795000Y-65492500D01*
X80495000Y-65492500D01*
X80480297Y-65491778D01*
X80465736Y-65489618D01*
X80451457Y-65486041D01*
X80437597Y-65481082D01*
X80424290Y-65474788D01*
X80411664Y-65467220D01*
X80399841Y-65458452D01*
X80388934Y-65448566D01*
X80379048Y-65437659D01*
X80370280Y-65425836D01*
X80362712Y-65413210D01*
X80356418Y-65399903D01*
X80351459Y-65386043D01*
X80347882Y-65371764D01*
X80345722Y-65357203D01*
X80345000Y-65342500D01*
X80345000Y-63692500D01*
X80345722Y-63677797D01*
X80347882Y-63663236D01*
X80351459Y-63648957D01*
X80356418Y-63635097D01*
X80362712Y-63621790D01*
X80370280Y-63609164D01*
X80379048Y-63597341D01*
X80388934Y-63586434D01*
X80399841Y-63576548D01*
X80411664Y-63567780D01*
X80424290Y-63560212D01*
X80437597Y-63553918D01*
X80451457Y-63548959D01*
X80465736Y-63545382D01*
X80480297Y-63543222D01*
X80495000Y-63542500D01*
X80795000Y-63542500D01*
X80809703Y-63543222D01*
G37*
G04 #@! TD.AperFunction*
G04 #@! TA.AperFunction,SMDPad,CuDef*
G36*
X79539703Y-63543222D02*
G01*
X79554264Y-63545382D01*
X79568543Y-63548959D01*
X79582403Y-63553918D01*
X79595710Y-63560212D01*
X79608336Y-63567780D01*
X79620159Y-63576548D01*
X79631066Y-63586434D01*
X79640952Y-63597341D01*
X79649720Y-63609164D01*
X79657288Y-63621790D01*
X79663582Y-63635097D01*
X79668541Y-63648957D01*
X79672118Y-63663236D01*
X79674278Y-63677797D01*
X79675000Y-63692500D01*
X79675000Y-65342500D01*
X79674278Y-65357203D01*
X79672118Y-65371764D01*
X79668541Y-65386043D01*
X79663582Y-65399903D01*
X79657288Y-65413210D01*
X79649720Y-65425836D01*
X79640952Y-65437659D01*
X79631066Y-65448566D01*
X79620159Y-65458452D01*
X79608336Y-65467220D01*
X79595710Y-65474788D01*
X79582403Y-65481082D01*
X79568543Y-65486041D01*
X79554264Y-65489618D01*
X79539703Y-65491778D01*
X79525000Y-65492500D01*
X79225000Y-65492500D01*
X79210297Y-65491778D01*
X79195736Y-65489618D01*
X79181457Y-65486041D01*
X79167597Y-65481082D01*
X79154290Y-65474788D01*
X79141664Y-65467220D01*
X79129841Y-65458452D01*
X79118934Y-65448566D01*
X79109048Y-65437659D01*
X79100280Y-65425836D01*
X79092712Y-65413210D01*
X79086418Y-65399903D01*
X79081459Y-65386043D01*
X79077882Y-65371764D01*
X79075722Y-65357203D01*
X79075000Y-65342500D01*
X79075000Y-63692500D01*
X79075722Y-63677797D01*
X79077882Y-63663236D01*
X79081459Y-63648957D01*
X79086418Y-63635097D01*
X79092712Y-63621790D01*
X79100280Y-63609164D01*
X79109048Y-63597341D01*
X79118934Y-63586434D01*
X79129841Y-63576548D01*
X79141664Y-63567780D01*
X79154290Y-63560212D01*
X79167597Y-63553918D01*
X79181457Y-63548959D01*
X79195736Y-63545382D01*
X79210297Y-63543222D01*
X79225000Y-63542500D01*
X79525000Y-63542500D01*
X79539703Y-63543222D01*
G37*
G04 #@! TD.AperFunction*
G04 #@! TA.AperFunction,SMDPad,CuDef*
G36*
X78269703Y-63543222D02*
G01*
X78284264Y-63545382D01*
X78298543Y-63548959D01*
X78312403Y-63553918D01*
X78325710Y-63560212D01*
X78338336Y-63567780D01*
X78350159Y-63576548D01*
X78361066Y-63586434D01*
X78370952Y-63597341D01*
X78379720Y-63609164D01*
X78387288Y-63621790D01*
X78393582Y-63635097D01*
X78398541Y-63648957D01*
X78402118Y-63663236D01*
X78404278Y-63677797D01*
X78405000Y-63692500D01*
X78405000Y-65342500D01*
X78404278Y-65357203D01*
X78402118Y-65371764D01*
X78398541Y-65386043D01*
X78393582Y-65399903D01*
X78387288Y-65413210D01*
X78379720Y-65425836D01*
X78370952Y-65437659D01*
X78361066Y-65448566D01*
X78350159Y-65458452D01*
X78338336Y-65467220D01*
X78325710Y-65474788D01*
X78312403Y-65481082D01*
X78298543Y-65486041D01*
X78284264Y-65489618D01*
X78269703Y-65491778D01*
X78255000Y-65492500D01*
X77955000Y-65492500D01*
X77940297Y-65491778D01*
X77925736Y-65489618D01*
X77911457Y-65486041D01*
X77897597Y-65481082D01*
X77884290Y-65474788D01*
X77871664Y-65467220D01*
X77859841Y-65458452D01*
X77848934Y-65448566D01*
X77839048Y-65437659D01*
X77830280Y-65425836D01*
X77822712Y-65413210D01*
X77816418Y-65399903D01*
X77811459Y-65386043D01*
X77807882Y-65371764D01*
X77805722Y-65357203D01*
X77805000Y-65342500D01*
X77805000Y-63692500D01*
X77805722Y-63677797D01*
X77807882Y-63663236D01*
X77811459Y-63648957D01*
X77816418Y-63635097D01*
X77822712Y-63621790D01*
X77830280Y-63609164D01*
X77839048Y-63597341D01*
X77848934Y-63586434D01*
X77859841Y-63576548D01*
X77871664Y-63567780D01*
X77884290Y-63560212D01*
X77897597Y-63553918D01*
X77911457Y-63548959D01*
X77925736Y-63545382D01*
X77940297Y-63543222D01*
X77955000Y-63542500D01*
X78255000Y-63542500D01*
X78269703Y-63543222D01*
G37*
G04 #@! TD.AperFunction*
G04 #@! TA.AperFunction,SMDPad,CuDef*
G36*
X76999703Y-63543222D02*
G01*
X77014264Y-63545382D01*
X77028543Y-63548959D01*
X77042403Y-63553918D01*
X77055710Y-63560212D01*
X77068336Y-63567780D01*
X77080159Y-63576548D01*
X77091066Y-63586434D01*
X77100952Y-63597341D01*
X77109720Y-63609164D01*
X77117288Y-63621790D01*
X77123582Y-63635097D01*
X77128541Y-63648957D01*
X77132118Y-63663236D01*
X77134278Y-63677797D01*
X77135000Y-63692500D01*
X77135000Y-65342500D01*
X77134278Y-65357203D01*
X77132118Y-65371764D01*
X77128541Y-65386043D01*
X77123582Y-65399903D01*
X77117288Y-65413210D01*
X77109720Y-65425836D01*
X77100952Y-65437659D01*
X77091066Y-65448566D01*
X77080159Y-65458452D01*
X77068336Y-65467220D01*
X77055710Y-65474788D01*
X77042403Y-65481082D01*
X77028543Y-65486041D01*
X77014264Y-65489618D01*
X76999703Y-65491778D01*
X76985000Y-65492500D01*
X76685000Y-65492500D01*
X76670297Y-65491778D01*
X76655736Y-65489618D01*
X76641457Y-65486041D01*
X76627597Y-65481082D01*
X76614290Y-65474788D01*
X76601664Y-65467220D01*
X76589841Y-65458452D01*
X76578934Y-65448566D01*
X76569048Y-65437659D01*
X76560280Y-65425836D01*
X76552712Y-65413210D01*
X76546418Y-65399903D01*
X76541459Y-65386043D01*
X76537882Y-65371764D01*
X76535722Y-65357203D01*
X76535000Y-65342500D01*
X76535000Y-63692500D01*
X76535722Y-63677797D01*
X76537882Y-63663236D01*
X76541459Y-63648957D01*
X76546418Y-63635097D01*
X76552712Y-63621790D01*
X76560280Y-63609164D01*
X76569048Y-63597341D01*
X76578934Y-63586434D01*
X76589841Y-63576548D01*
X76601664Y-63567780D01*
X76614290Y-63560212D01*
X76627597Y-63553918D01*
X76641457Y-63548959D01*
X76655736Y-63545382D01*
X76670297Y-63543222D01*
X76685000Y-63542500D01*
X76985000Y-63542500D01*
X76999703Y-63543222D01*
G37*
G04 #@! TD.AperFunction*
G04 #@! TA.AperFunction,SMDPad,CuDef*
G36*
X75729703Y-63543222D02*
G01*
X75744264Y-63545382D01*
X75758543Y-63548959D01*
X75772403Y-63553918D01*
X75785710Y-63560212D01*
X75798336Y-63567780D01*
X75810159Y-63576548D01*
X75821066Y-63586434D01*
X75830952Y-63597341D01*
X75839720Y-63609164D01*
X75847288Y-63621790D01*
X75853582Y-63635097D01*
X75858541Y-63648957D01*
X75862118Y-63663236D01*
X75864278Y-63677797D01*
X75865000Y-63692500D01*
X75865000Y-65342500D01*
X75864278Y-65357203D01*
X75862118Y-65371764D01*
X75858541Y-65386043D01*
X75853582Y-65399903D01*
X75847288Y-65413210D01*
X75839720Y-65425836D01*
X75830952Y-65437659D01*
X75821066Y-65448566D01*
X75810159Y-65458452D01*
X75798336Y-65467220D01*
X75785710Y-65474788D01*
X75772403Y-65481082D01*
X75758543Y-65486041D01*
X75744264Y-65489618D01*
X75729703Y-65491778D01*
X75715000Y-65492500D01*
X75415000Y-65492500D01*
X75400297Y-65491778D01*
X75385736Y-65489618D01*
X75371457Y-65486041D01*
X75357597Y-65481082D01*
X75344290Y-65474788D01*
X75331664Y-65467220D01*
X75319841Y-65458452D01*
X75308934Y-65448566D01*
X75299048Y-65437659D01*
X75290280Y-65425836D01*
X75282712Y-65413210D01*
X75276418Y-65399903D01*
X75271459Y-65386043D01*
X75267882Y-65371764D01*
X75265722Y-65357203D01*
X75265000Y-65342500D01*
X75265000Y-63692500D01*
X75265722Y-63677797D01*
X75267882Y-63663236D01*
X75271459Y-63648957D01*
X75276418Y-63635097D01*
X75282712Y-63621790D01*
X75290280Y-63609164D01*
X75299048Y-63597341D01*
X75308934Y-63586434D01*
X75319841Y-63576548D01*
X75331664Y-63567780D01*
X75344290Y-63560212D01*
X75357597Y-63553918D01*
X75371457Y-63548959D01*
X75385736Y-63545382D01*
X75400297Y-63543222D01*
X75415000Y-63542500D01*
X75715000Y-63542500D01*
X75729703Y-63543222D01*
G37*
G04 #@! TD.AperFunction*
D15*
X207860900Y-65537499D03*
X207860900Y-66507500D03*
X207860900Y-67477500D03*
X207860900Y-68447501D03*
X209334100Y-68447501D03*
X209334100Y-67477500D03*
X209334100Y-66507500D03*
X209334100Y-65537499D03*
X295059100Y-65537499D03*
X295059100Y-66507500D03*
X295059100Y-67477500D03*
X295059100Y-68447501D03*
X293585900Y-68447501D03*
X293585900Y-67477500D03*
X293585900Y-66507500D03*
X293585900Y-65537499D03*
D12*
X21900000Y-61625000D03*
X21892500Y-72382500D03*
X31955153Y-73835847D03*
X29068347Y-69009847D03*
X38956847Y-54818153D03*
X39300000Y-68525000D03*
X36410000Y-69665000D03*
X37884100Y-67477500D03*
X52200000Y-60525000D03*
X63200000Y-60525000D03*
X78407500Y-61595000D03*
X63200000Y-57775000D03*
X126950000Y-58775000D03*
X129450000Y-63525000D03*
X167950000Y-58775000D03*
X212950000Y-58775000D03*
X212725000Y-67410000D03*
X80150000Y-57775000D03*
X64100000Y-53625000D03*
X61595000Y-52705000D03*
X40650000Y-73375000D03*
X20900000Y-92625000D03*
X16900000Y-92625000D03*
X39900000Y-74125000D03*
X39150000Y-74875000D03*
X34600000Y-72625000D03*
X32398000Y-86375000D03*
X26150000Y-86375000D03*
X28650000Y-74375000D03*
X28650000Y-73625000D03*
X27900000Y-75125000D03*
X32900000Y-91375000D03*
X100710000Y-85725000D03*
X36900000Y-92625000D03*
X41400000Y-72625000D03*
X81660000Y-85725000D03*
X34398000Y-91375000D03*
X36900000Y-91375000D03*
X37890000Y-68445000D03*
X123610000Y-68445000D03*
X295060000Y-68445000D03*
X209340000Y-68445000D03*
X298450000Y-65537500D03*
X212725000Y-65535000D03*
X127000000Y-65535000D03*
X287987500Y-64770000D03*
X202262500Y-64770000D03*
X116537500Y-64770000D03*
X41275000Y-65535000D03*
X37884100Y-65537499D03*
X47650000Y-65125000D03*
X116400000Y-59625000D03*
X165650000Y-59625000D03*
X202150000Y-59625000D03*
X24105000Y-66992500D03*
X76532500Y-61595000D03*
X35800000Y-64625000D03*
X50900000Y-65125000D03*
X31820000Y-72215000D03*
X37843153Y-55931847D03*
X45650000Y-54875000D03*
X245700000Y-56025000D03*
X46900000Y-55625000D03*
X262635000Y-57150000D03*
X45650000Y-56375000D03*
X281685000Y-57150000D03*
X45950000Y-66275000D03*
X55200000Y-73025000D03*
X61450000Y-111025000D03*
X286447500Y-104775000D03*
X47200000Y-66275000D03*
X55950000Y-73025000D03*
X62200000Y-112275000D03*
X310260000Y-104775000D03*
X63700000Y-52825000D03*
X58500000Y-52025000D03*
X58500000Y-51225000D03*
X61595000Y-51435000D03*
X42150000Y-71875000D03*
X62610000Y-85725000D03*
X33898000Y-90125000D03*
X36900000Y-90125000D03*
X42800000Y-70775000D03*
X33398000Y-88875000D03*
X43400000Y-70125000D03*
X32898000Y-87625000D03*
X27150000Y-75125000D03*
X31400000Y-91375000D03*
X36900000Y-93875000D03*
X119760000Y-85725000D03*
X38400000Y-62025000D03*
X62400000Y-67825000D03*
X62950000Y-106025000D03*
X148335000Y-104775000D03*
X38200000Y-61225000D03*
X63400000Y-67225000D03*
X63700000Y-107275000D03*
X167385000Y-104775000D03*
X38000000Y-60425000D03*
X64400000Y-66625000D03*
X71200000Y-69525000D03*
X73200000Y-69525000D03*
X81950000Y-108525000D03*
X186435000Y-104775000D03*
X37800000Y-59625000D03*
X65400000Y-66025000D03*
X71200000Y-68525000D03*
X74200000Y-68525000D03*
X82700000Y-109775000D03*
X205485000Y-104775000D03*
X40000000Y-66565000D03*
X123810000Y-50800000D03*
X60325000Y-50165000D03*
X53700000Y-73025000D03*
X54450000Y-50775000D03*
X48400000Y-58625000D03*
X81900000Y-58625000D03*
X46900000Y-58625000D03*
X73150000Y-67625000D03*
X73150000Y-66375000D03*
X71400000Y-60875000D03*
X71400000Y-62875000D03*
X69900000Y-60875000D03*
X71422500Y-66992500D03*
X45650000Y-57875000D03*
X123610000Y-66505000D03*
X104650000Y-72375000D03*
X107150000Y-72375000D03*
X118410000Y-69215000D03*
X37520000Y-53700000D03*
X36775000Y-53700000D03*
X24105000Y-64692500D03*
X41500000Y-53125000D03*
X42700000Y-46525000D03*
X31600000Y-46525000D03*
X29650000Y-53375000D03*
X29650000Y-65875000D03*
X46900000Y-57125000D03*
X55200000Y-57125000D03*
X28650000Y-71375000D03*
X31400000Y-77875000D03*
X36150000Y-77875000D03*
X50400000Y-77875000D03*
X54400000Y-73875000D03*
X68650000Y-73875000D03*
X71422500Y-71120000D03*
X38600000Y-62825000D03*
X66400000Y-68425000D03*
X68700000Y-77275000D03*
X117950000Y-77275000D03*
X117950000Y-73025000D03*
X200700000Y-73025000D03*
X205200000Y-73025000D03*
X39600000Y-62825000D03*
X65400000Y-69025000D03*
X67200000Y-75275000D03*
X40600000Y-62825000D03*
X64400000Y-69625000D03*
X64950000Y-74525000D03*
X34100000Y-65625000D03*
X40600000Y-54025000D03*
X34940000Y-66505000D03*
X37884100Y-66507500D03*
X36410900Y-65537499D03*
X204140000Y-69215000D03*
X209340000Y-66515000D03*
X200650000Y-61875000D03*
X295060000Y-66505000D03*
X289860000Y-69215000D03*
X284900000Y-60375000D03*
D19*
X21892500Y-70105000D02*
X21892500Y-71690000D01*
X21892500Y-71690000D02*
X21892500Y-72382500D01*
X22705000Y-69292500D02*
X21892500Y-70105000D01*
X24105000Y-69292500D02*
X22705000Y-69292500D01*
D20*
X298385000Y-67477500D02*
X298450000Y-67412500D01*
X295059100Y-67477500D02*
X298385000Y-67477500D01*
X212657500Y-67477500D02*
X212725000Y-67410000D01*
X209334100Y-67477500D02*
X212657500Y-67477500D01*
X126932500Y-67477500D02*
X127000000Y-67410000D01*
X123609100Y-67477500D02*
X126932500Y-67477500D01*
D19*
X79375000Y-62562500D02*
X78407500Y-61595000D01*
X79375000Y-64517500D02*
X79375000Y-62562500D01*
D21*
X76835000Y-69467500D02*
X76835000Y-68190000D01*
X79375000Y-65650000D02*
X79375000Y-64517500D01*
X76835000Y-68190000D02*
X79375000Y-65650000D01*
X75565000Y-69467500D02*
X76835000Y-69467500D01*
X80350000Y-66625000D02*
X79375000Y-65650000D01*
X82587500Y-66625000D02*
X80350000Y-66625000D01*
X84455000Y-69467500D02*
X84455000Y-68492500D01*
X84455000Y-68492500D02*
X82587500Y-66625000D01*
X27787500Y-67467500D02*
X27787500Y-66992500D01*
X25962500Y-69292500D02*
X27787500Y-67467500D01*
X24105000Y-69292500D02*
X25962500Y-69292500D01*
D19*
X21892500Y-72382500D02*
X21892500Y-72390000D01*
D20*
X24105000Y-69292500D02*
X27411806Y-69292500D01*
X27411806Y-69292500D02*
X31955153Y-73835847D01*
X29068347Y-68273347D02*
X27787500Y-66992500D01*
X29068347Y-69009847D02*
X29068347Y-68273347D01*
D22*
X37147500Y-54550000D02*
X38688694Y-54550000D01*
X38688694Y-54550000D02*
X38956847Y-54818153D01*
X39897500Y-50750000D02*
X39947500Y-50700000D01*
X39897500Y-51960000D02*
X39897500Y-50750000D01*
X34397500Y-50750000D02*
X34347500Y-50700000D01*
X34397500Y-51960000D02*
X34397500Y-50750000D01*
D20*
X40267500Y-50700000D02*
X41417500Y-49550000D01*
X39947500Y-50700000D02*
X40267500Y-50700000D01*
X34027500Y-50700000D02*
X32877500Y-49550000D01*
X34347500Y-50700000D02*
X34027500Y-50700000D01*
X41275000Y-67410000D02*
X40415000Y-67410000D01*
X40415000Y-67410000D02*
X39300000Y-68525000D01*
X38252500Y-67477500D02*
X37884100Y-67477500D01*
X39300000Y-68525000D02*
X38252500Y-67477500D01*
X38160000Y-69665000D02*
X39300000Y-68525000D01*
X36410000Y-69665000D02*
X38160000Y-69665000D01*
X36126000Y-69665000D02*
X36410000Y-69665000D01*
X31955153Y-73835847D02*
X36126000Y-69665000D01*
X32877500Y-49550000D02*
X28675000Y-49550000D01*
X28675000Y-49550000D02*
X25950000Y-52275000D01*
X25950000Y-52275000D02*
X25950000Y-55775000D01*
X21892500Y-59832500D02*
X21892500Y-61595000D01*
X25950000Y-55775000D02*
X21892500Y-59832500D01*
X52200000Y-60525000D02*
X63200000Y-60525000D01*
D19*
X78407500Y-61595000D02*
X78407500Y-61595000D01*
D20*
X63200000Y-57775000D02*
X80150000Y-57775000D01*
X82450000Y-57775000D02*
X83450000Y-58775000D01*
X83450000Y-58775000D02*
X126950000Y-58775000D01*
X127000000Y-67410000D02*
X128065000Y-67410000D01*
X128065000Y-67410000D02*
X129450000Y-66025000D01*
X129450000Y-66025000D02*
X129450000Y-63525000D01*
X126950000Y-58775000D02*
X167950000Y-58775000D01*
X167950000Y-58775000D02*
X212950000Y-58775000D01*
X212950000Y-58775000D02*
X293950000Y-58775000D01*
X293950000Y-58775000D02*
X300700000Y-65525000D01*
X298450000Y-67412500D02*
X300062500Y-67412500D01*
X300700000Y-66775000D02*
X300700000Y-65525000D01*
X300062500Y-67412500D02*
X300700000Y-66775000D01*
X80150000Y-57775000D02*
X82450000Y-57775000D01*
X64100000Y-53625000D02*
X62515000Y-53625000D01*
X62515000Y-53625000D02*
X61595000Y-52705000D01*
D19*
X25400000Y-47625000D02*
X73025000Y-47625000D01*
X73025000Y-47625000D02*
X311150000Y-47625000D01*
D21*
X40650000Y-73375000D02*
X37650000Y-73375000D01*
X16900000Y-92625000D02*
X16900000Y-85625000D01*
X16900000Y-85625000D02*
X14150000Y-82875000D01*
X14150000Y-82875000D02*
X14150000Y-50125000D01*
X16650000Y-47625000D02*
X25400000Y-47625000D01*
X14150000Y-50125000D02*
X16650000Y-47625000D01*
X20900000Y-92625000D02*
X33900000Y-92625000D01*
X34900000Y-76125000D02*
X34900000Y-91875000D01*
X37650000Y-73375000D02*
X34900000Y-76125000D01*
X34900000Y-91875000D02*
X34150000Y-92625000D01*
X34150000Y-92625000D02*
X33900000Y-92625000D01*
D19*
X44450000Y-76200000D02*
X63500000Y-76200000D01*
X63500000Y-76200000D02*
X82550000Y-76200000D01*
X82550000Y-76200000D02*
X101600000Y-76200000D01*
X101600000Y-76200000D02*
X120650000Y-76200000D01*
X120650000Y-76200000D02*
X139700000Y-76200000D01*
X139700000Y-76200000D02*
X158750000Y-76200000D01*
X158750000Y-76200000D02*
X177800000Y-76200000D01*
X177800000Y-76200000D02*
X196850000Y-76200000D01*
X196850000Y-76200000D02*
X215900000Y-76200000D01*
X215900000Y-76200000D02*
X254000000Y-76200000D01*
X254000000Y-76200000D02*
X265430000Y-76200000D01*
X265430000Y-76200000D02*
X266700000Y-77470000D01*
X266700000Y-77470000D02*
X269240000Y-77470000D01*
X270510000Y-76200000D02*
X282575000Y-76200000D01*
X269240000Y-77470000D02*
X270510000Y-76200000D01*
X282575000Y-76200000D02*
X288925000Y-76200000D01*
X288925000Y-76200000D02*
X290195000Y-77470000D01*
X311150000Y-76200000D02*
X294640000Y-76200000D01*
X294640000Y-76200000D02*
X293370000Y-77470000D01*
X290195000Y-77470000D02*
X293370000Y-77470000D01*
D21*
X41975000Y-76200000D02*
X39900000Y-74125000D01*
X44450000Y-76200000D02*
X41975000Y-76200000D01*
D19*
X311150000Y-95250000D02*
X287337500Y-95250000D01*
X287337500Y-95250000D02*
X263525000Y-95250000D01*
X263525000Y-95250000D02*
X244475000Y-95250000D01*
X206375000Y-95250000D02*
X187325000Y-95250000D01*
X168275000Y-95250000D02*
X187325000Y-95250000D01*
X206375000Y-95250000D02*
X225425000Y-95250000D01*
X225425000Y-95250000D02*
X244475000Y-95250000D01*
X92075000Y-95250000D02*
X111125000Y-95250000D01*
X111125000Y-95250000D02*
X130175000Y-95250000D01*
X130175000Y-95250000D02*
X149225000Y-95250000D01*
X149225000Y-95250000D02*
X168275000Y-95250000D01*
X53975000Y-95250000D02*
X73025000Y-95250000D01*
X73025000Y-95250000D02*
X92075000Y-95250000D01*
D21*
X39150000Y-74875000D02*
X36900000Y-74875000D01*
X35400000Y-76375000D02*
X35400000Y-86875000D01*
X36900000Y-74875000D02*
X35400000Y-76375000D01*
D19*
X30287500Y-95125000D02*
X30162500Y-95250000D01*
X53850000Y-95125000D02*
X53975000Y-95250000D01*
X30162500Y-95250000D02*
X53975000Y-95250000D01*
D21*
X32775000Y-95250000D02*
X30162500Y-95250000D01*
X35400000Y-92625000D02*
X32775000Y-95250000D01*
X35400000Y-86875000D02*
X35400000Y-92625000D01*
D19*
X32543750Y-114300000D02*
X58737500Y-114300000D01*
X58737500Y-114300000D02*
X77787500Y-114300000D01*
X77787500Y-114300000D02*
X96837500Y-114300000D01*
X96837500Y-114300000D02*
X115887500Y-114300000D01*
X115887500Y-114300000D02*
X134937500Y-114300000D01*
X134937500Y-114300000D02*
X153987500Y-114300000D01*
X153987500Y-114300000D02*
X173037500Y-114300000D01*
X173037500Y-114300000D02*
X192087500Y-114300000D01*
X192087500Y-114300000D02*
X211137500Y-114300000D01*
X211137500Y-114300000D02*
X230187500Y-114300000D01*
X230187500Y-114300000D02*
X249237500Y-114300000D01*
X249237500Y-114300000D02*
X262890000Y-114300000D01*
X262890000Y-114300000D02*
X264160000Y-115570000D01*
X264160000Y-115570000D02*
X267335000Y-115570000D01*
X268605000Y-114300000D02*
X280193750Y-114300000D01*
X267335000Y-115570000D02*
X268605000Y-114300000D01*
X280193750Y-114300000D02*
X286385000Y-114300000D01*
X286385000Y-114300000D02*
X287655000Y-115570000D01*
X287655000Y-115570000D02*
X291465000Y-115570000D01*
X291465000Y-115570000D02*
X292735000Y-114300000D01*
X292735000Y-114300000D02*
X311150000Y-114300000D01*
D21*
X32543750Y-114300000D02*
X22825000Y-114300000D01*
X22825000Y-114300000D02*
X19900000Y-111375000D01*
X19900000Y-111375000D02*
X19900000Y-90125000D01*
X19900000Y-90125000D02*
X22400000Y-87625000D01*
X22400000Y-87625000D02*
X24900000Y-87625000D01*
X32398000Y-74827000D02*
X32398000Y-86375000D01*
X32625000Y-74600000D02*
X32398000Y-74827000D01*
X34600000Y-72625000D02*
X32625000Y-74600000D01*
X24900000Y-87625000D02*
X26150000Y-86375000D01*
D19*
X311150000Y-133350000D02*
X292100000Y-133350000D01*
X292100000Y-133350000D02*
X265906250Y-133350000D01*
X265906250Y-133350000D02*
X239712500Y-133350000D01*
X220662500Y-133350000D02*
X239712500Y-133350000D01*
X201612500Y-133350000D02*
X220662500Y-133350000D01*
X201612500Y-133350000D02*
X182562500Y-133350000D01*
X182562500Y-133350000D02*
X163512500Y-133350000D01*
X163512500Y-133350000D02*
X144462500Y-133350000D01*
X125412500Y-133350000D02*
X144462500Y-133350000D01*
X125412500Y-133350000D02*
X106362500Y-133350000D01*
X106362500Y-133350000D02*
X87312500Y-133350000D01*
X87312500Y-133350000D02*
X68262500Y-133350000D01*
X68262500Y-133350000D02*
X49530000Y-133350000D01*
X49530000Y-133350000D02*
X48260000Y-134620000D01*
X48260000Y-134620000D02*
X45085000Y-134620000D01*
X43815000Y-133350000D02*
X37306250Y-133350000D01*
X45085000Y-134620000D02*
X43815000Y-133350000D01*
D21*
X37306250Y-133350000D02*
X30875000Y-133350000D01*
X30875000Y-133350000D02*
X18900000Y-121375000D01*
X18900000Y-121375000D02*
X18900000Y-85125000D01*
X18900000Y-85125000D02*
X16150000Y-82375000D01*
X16150000Y-82375000D02*
X16150000Y-78625000D01*
X16150000Y-78625000D02*
X20400000Y-74375000D01*
X20400000Y-74375000D02*
X28650000Y-74375000D01*
D19*
X27781250Y-152400000D02*
X51593750Y-152400000D01*
X51593750Y-152400000D02*
X75406250Y-152400000D01*
X75406250Y-152400000D02*
X91440000Y-152400000D01*
X91440000Y-152400000D02*
X92710000Y-153670000D01*
X92710000Y-153670000D02*
X95885000Y-153670000D01*
X95885000Y-153670000D02*
X97155000Y-152400000D01*
X97155000Y-152400000D02*
X146843750Y-152400000D01*
X197485000Y-152400000D02*
X220662500Y-152400000D01*
X196215000Y-153670000D02*
X197485000Y-152400000D01*
X146843750Y-152400000D02*
X191135000Y-152400000D01*
X192405000Y-153670000D02*
X196215000Y-153670000D01*
X191135000Y-152400000D02*
X192405000Y-153670000D01*
X220662500Y-152400000D02*
X249237500Y-152400000D01*
X249237500Y-152400000D02*
X273050000Y-152400000D01*
X273050000Y-152400000D02*
X292100000Y-152400000D01*
X292100000Y-152400000D02*
X311150000Y-152400000D01*
D21*
X27781250Y-152400000D02*
X27781250Y-142506250D01*
X27781250Y-142506250D02*
X17900000Y-132625000D01*
X17900000Y-132625000D02*
X17900000Y-85375000D01*
X17900000Y-85375000D02*
X15150000Y-82625000D01*
X15150000Y-82625000D02*
X15150000Y-78375000D01*
X15150000Y-78375000D02*
X19900000Y-73625000D01*
X19900000Y-73625000D02*
X28650000Y-73625000D01*
X27900000Y-75549264D02*
X31900000Y-79549264D01*
X27900000Y-75125000D02*
X27900000Y-75549264D01*
X31895999Y-90370999D02*
X32900000Y-91375000D01*
X31900000Y-79549264D02*
X31895999Y-79553265D01*
X31895999Y-79553265D02*
X31895999Y-90370999D01*
X94310000Y-92125000D02*
X100710000Y-85725000D01*
X36900000Y-92625000D02*
X93810000Y-92625000D01*
X93810000Y-92625000D02*
X94310000Y-92125000D01*
X41400000Y-72625000D02*
X37650000Y-72625000D01*
X77260000Y-90125000D02*
X81660000Y-85725000D01*
X34400000Y-91373000D02*
X34398000Y-91375000D01*
X34400000Y-75875000D02*
X34400000Y-91373000D01*
X37650000Y-72625000D02*
X34400000Y-75875000D01*
X76010000Y-91375000D02*
X77260000Y-90125000D01*
X36900000Y-91375000D02*
X76010000Y-91375000D01*
D19*
X24105000Y-66992500D02*
X17805000Y-66992500D01*
X17805000Y-70177500D02*
X20017500Y-72390000D01*
X17805000Y-66992500D02*
X17805000Y-70177500D01*
D20*
X202262500Y-65470000D02*
X202262500Y-69215000D01*
X202262500Y-64770000D02*
X202262500Y-65470000D01*
X287987500Y-64770000D02*
X287987500Y-69215000D01*
X295652001Y-65537500D02*
X298450000Y-65537500D01*
X295059100Y-65537499D02*
X295652001Y-65537500D01*
X298450000Y-65537500D02*
X298450000Y-65537500D01*
X212722501Y-65537499D02*
X212725000Y-65535000D01*
X209334100Y-65537499D02*
X212722501Y-65537499D01*
X126997501Y-65537499D02*
X127000000Y-65535000D01*
X123609100Y-65537499D02*
X126997501Y-65537499D01*
X41272501Y-65537499D02*
X41275000Y-65535000D01*
X37884100Y-65537499D02*
X37884100Y-65537499D01*
D19*
X75565000Y-62562500D02*
X76532500Y-61595000D01*
X75565000Y-64517500D02*
X75565000Y-62562500D01*
X69547500Y-62865000D02*
X69547500Y-71120000D01*
X116537500Y-64770000D02*
X116537500Y-69215000D01*
X30325000Y-64770000D02*
X30812500Y-64770000D01*
X27727500Y-64770000D02*
X30325000Y-64770000D01*
X25505000Y-66992500D02*
X27727500Y-64770000D01*
X24105000Y-66992500D02*
X25505000Y-66992500D01*
X30812500Y-69215000D02*
X30812500Y-64770000D01*
D20*
X37884100Y-65537499D02*
X41272501Y-65537499D01*
X30812500Y-64770000D02*
X30812500Y-63712500D01*
X31150000Y-63375000D02*
X32650000Y-63375000D01*
X30812500Y-63712500D02*
X31150000Y-63375000D01*
X32650000Y-63375000D02*
X32207500Y-63375000D01*
X41275000Y-65535000D02*
X47240000Y-65535000D01*
X47240000Y-65535000D02*
X47650000Y-65125000D01*
X70817500Y-61595000D02*
X69547500Y-62865000D01*
X76532500Y-61595000D02*
X70817500Y-61595000D01*
X76532500Y-60895000D02*
X77302500Y-60125000D01*
X76532500Y-61595000D02*
X76532500Y-60895000D01*
X77302500Y-60125000D02*
X82900000Y-60125000D01*
X82900000Y-60125000D02*
X83400000Y-59625000D01*
X83400000Y-59625000D02*
X116400000Y-59625000D01*
X116400000Y-59625000D02*
X165650000Y-59625000D01*
X165650000Y-59625000D02*
X202150000Y-59625000D01*
X292537500Y-59625000D02*
X298450000Y-65537500D01*
X202150000Y-59625000D02*
X292537500Y-59625000D01*
D19*
X76532500Y-61595000D02*
X76532500Y-61595000D01*
D20*
X34550000Y-63375000D02*
X35800000Y-64625000D01*
X33650000Y-63375000D02*
X34550000Y-63375000D01*
X32650000Y-63375000D02*
X33650000Y-63375000D01*
X69547500Y-71120000D02*
X56895000Y-71120000D01*
X56895000Y-71120000D02*
X51400000Y-65625000D01*
X51400000Y-65625000D02*
X50900000Y-65125000D01*
X30812500Y-69215000D02*
X30812500Y-70465806D01*
X30812500Y-71207500D02*
X30812500Y-69215000D01*
X31820000Y-72215000D02*
X30812500Y-71207500D01*
D22*
X35800000Y-64625000D02*
X35800000Y-57975000D01*
X35800000Y-57975000D02*
X37843153Y-55931847D01*
D21*
X45650000Y-54875000D02*
X49550000Y-54875000D01*
X49550000Y-54875000D02*
X49900000Y-55225000D01*
X49900000Y-55225000D02*
X52900000Y-55225000D01*
X52900000Y-55225000D02*
X53300000Y-54825000D01*
X53300000Y-54825000D02*
X57900000Y-54825000D01*
X57900000Y-54825000D02*
X58700000Y-54025000D01*
X58700000Y-54025000D02*
X63100000Y-54025000D01*
X63100000Y-54025000D02*
X64500000Y-55425000D01*
X64500000Y-55425000D02*
X83100000Y-55425000D01*
X83100000Y-55425000D02*
X84100000Y-56425000D01*
X84100000Y-56425000D02*
X245300000Y-56425000D01*
X245300000Y-56425000D02*
X245700000Y-56025000D01*
X58100000Y-55625000D02*
X58300000Y-55625000D01*
X46900000Y-55625000D02*
X58100000Y-55625000D01*
X262560000Y-57225000D02*
X262635000Y-57150000D01*
X82900000Y-56225000D02*
X83900000Y-57225000D01*
X58100000Y-55625000D02*
X58900000Y-54825000D01*
X58900000Y-54825000D02*
X62900000Y-54825000D01*
X64300000Y-56225000D02*
X82900000Y-56225000D01*
X83900000Y-57225000D02*
X262560000Y-57225000D01*
X62900000Y-54825000D02*
X64300000Y-56225000D01*
X280810000Y-58025000D02*
X281685000Y-57150000D01*
X83700000Y-58025000D02*
X280810000Y-58025000D01*
X82700000Y-57025000D02*
X83700000Y-58025000D01*
X59200000Y-55525000D02*
X62650000Y-55525000D01*
X58350000Y-56375000D02*
X59200000Y-55525000D01*
X64150000Y-57025000D02*
X82700000Y-57025000D01*
X45650000Y-56375000D02*
X58350000Y-56375000D01*
X62650000Y-55525000D02*
X64150000Y-57025000D01*
X45950000Y-66275000D02*
X46700000Y-67025000D01*
X46700000Y-67025000D02*
X49200000Y-67025000D01*
X49200000Y-67025000D02*
X53950000Y-71775000D01*
X53950000Y-71775000D02*
X55200000Y-73025000D01*
X61450000Y-111025000D02*
X260950000Y-111025000D01*
X260950000Y-111025000D02*
X263950000Y-108025000D01*
X263950000Y-108025000D02*
X283197500Y-108025000D01*
X283197500Y-108025000D02*
X286447500Y-104775000D01*
X47200000Y-66275000D02*
X49200000Y-66275000D01*
X49200000Y-66275000D02*
X54700000Y-71775000D01*
X54700000Y-71775000D02*
X55950000Y-73025000D01*
X305760000Y-109275000D02*
X310260000Y-104775000D01*
X264200000Y-109275000D02*
X305760000Y-109275000D01*
X261200000Y-112275000D02*
X264200000Y-109275000D01*
X62200000Y-112275000D02*
X261200000Y-112275000D01*
X63700000Y-52825000D02*
X62900000Y-52025000D01*
X62900000Y-52025000D02*
X58500000Y-52025000D01*
X58500000Y-51225000D02*
X61385000Y-51225000D01*
X61385000Y-51225000D02*
X61595000Y-51435000D01*
X42150000Y-71875000D02*
X37650000Y-71875000D01*
X59460000Y-88875000D02*
X62610000Y-85725000D01*
X33900000Y-75625000D02*
X33900000Y-90123000D01*
X33900000Y-90123000D02*
X33898000Y-90125000D01*
X37650000Y-71875000D02*
X33900000Y-75625000D01*
X58210000Y-90125000D02*
X59460000Y-88875000D01*
X36900000Y-90125000D02*
X58210000Y-90125000D01*
X42800000Y-70775000D02*
X38000000Y-70775000D01*
X33400000Y-88873000D02*
X33398000Y-88875000D01*
X33400000Y-75375000D02*
X33400000Y-88873000D01*
X38000000Y-70775000D02*
X33400000Y-75375000D01*
X43400000Y-70125000D02*
X37900000Y-70125000D01*
X32900000Y-75125000D02*
X32900000Y-87623000D01*
X32900000Y-87623000D02*
X32898000Y-87625000D01*
X37900000Y-70125000D02*
X32900000Y-75125000D01*
X27150000Y-75549264D02*
X31400000Y-79799264D01*
X27150000Y-75125000D02*
X27150000Y-75549264D01*
X31400000Y-79799264D02*
X31400000Y-91375000D01*
X36900000Y-93875000D02*
X111610000Y-93875000D01*
X111610000Y-93875000D02*
X119760000Y-85725000D01*
X38400000Y-62025000D02*
X39000000Y-61425000D01*
X39000000Y-61425000D02*
X41400000Y-61425000D01*
X41400000Y-61425000D02*
X41800000Y-61825000D01*
X41800000Y-61825000D02*
X49200000Y-61825000D01*
X49200000Y-61825000D02*
X50600000Y-63225000D01*
X50600000Y-63225000D02*
X51800000Y-63225000D01*
X51800000Y-63225000D02*
X56400000Y-67825000D01*
X56400000Y-67825000D02*
X62400000Y-67825000D01*
X62950000Y-106025000D02*
X147085000Y-106025000D01*
X147085000Y-106025000D02*
X148335000Y-104775000D01*
X38200000Y-61225000D02*
X38400000Y-61025000D01*
X38400000Y-61025000D02*
X39600000Y-61025000D01*
X39600000Y-61025000D02*
X41600000Y-61025000D01*
X41600000Y-61025000D02*
X42000000Y-61425000D01*
X42000000Y-61425000D02*
X49400000Y-61425000D01*
X49400000Y-61425000D02*
X50800000Y-62825000D01*
X50800000Y-62825000D02*
X52000000Y-62825000D01*
X52000000Y-62825000D02*
X56400000Y-67225000D01*
X56400000Y-67225000D02*
X63400000Y-67225000D01*
X63700000Y-107275000D02*
X164885000Y-107275000D01*
X164885000Y-107275000D02*
X167385000Y-104775000D01*
X38000000Y-60425000D02*
X41600000Y-60425000D01*
X41600000Y-60425000D02*
X42200000Y-61025000D01*
X42200000Y-61025000D02*
X49600000Y-61025000D01*
X49600000Y-61025000D02*
X51000000Y-62425000D01*
X51000000Y-62425000D02*
X52200000Y-62425000D01*
X52200000Y-62425000D02*
X56400000Y-66625000D01*
X56400000Y-66625000D02*
X64400000Y-66625000D01*
X71200000Y-69525000D02*
X73200000Y-69525000D01*
X81950000Y-108525000D02*
X182685000Y-108525000D01*
X182685000Y-108525000D02*
X186435000Y-104775000D01*
X37800000Y-59625000D02*
X41400000Y-59625000D01*
X41400000Y-59625000D02*
X42400000Y-60625000D01*
X42400000Y-60625000D02*
X49800000Y-60625000D01*
X49800000Y-60625000D02*
X51200000Y-62025000D01*
X51200000Y-62025000D02*
X52400000Y-62025000D01*
X52400000Y-62025000D02*
X56400000Y-66025000D01*
X56400000Y-66025000D02*
X65400000Y-66025000D01*
X72950000Y-68525000D02*
X73200000Y-68525000D01*
X72950000Y-68525000D02*
X74200000Y-68525000D01*
X71200000Y-68525000D02*
X72950000Y-68525000D01*
X82700000Y-109775000D02*
X137950000Y-109775000D01*
X137950000Y-109775000D02*
X200450000Y-109775000D01*
X200450000Y-109775000D02*
X205485000Y-104775000D01*
X40000000Y-66565000D02*
X45490000Y-66565000D01*
X45490000Y-66565000D02*
X46450000Y-67525000D01*
X46450000Y-67525000D02*
X48950000Y-67525000D01*
X48950000Y-67525000D02*
X53200000Y-71775000D01*
X123810000Y-50800000D02*
X111075000Y-50800000D01*
X111075000Y-50800000D02*
X108700000Y-48425000D01*
X108700000Y-48425000D02*
X94700000Y-48425000D01*
X94700000Y-48425000D02*
X93500000Y-49625000D01*
X93500000Y-49625000D02*
X88500000Y-49625000D01*
X88500000Y-49625000D02*
X87300000Y-48425000D01*
X87300000Y-48425000D02*
X75700000Y-48425000D01*
X75700000Y-48425000D02*
X74700000Y-49425000D01*
X74700000Y-49425000D02*
X71700000Y-49425000D01*
X71700000Y-49425000D02*
X70700000Y-48425000D01*
X70700000Y-48425000D02*
X63300000Y-48425000D01*
X63300000Y-48425000D02*
X61560000Y-50165000D01*
X61560000Y-50165000D02*
X60325000Y-50165000D01*
X53200000Y-71775000D02*
X53700000Y-72275000D01*
X53700000Y-72275000D02*
X53700000Y-73025000D01*
X59768225Y-50165000D02*
X60325000Y-50165000D01*
X55484264Y-50165000D02*
X59768225Y-50165000D01*
X54874264Y-50775000D02*
X55484264Y-50165000D01*
X54450000Y-50775000D02*
X54874264Y-50775000D01*
X79150000Y-58625000D02*
X79150000Y-58625000D01*
X81900000Y-58625000D02*
X78900000Y-58625000D01*
X48400000Y-58625000D02*
X78900000Y-58625000D01*
X78900000Y-58625000D02*
X79150000Y-58625000D01*
X75972500Y-67625000D02*
X73150000Y-67625000D01*
X78105000Y-64517500D02*
X78105000Y-65492500D01*
X78105000Y-65492500D02*
X75972500Y-67625000D01*
X73150000Y-64592500D02*
X71422500Y-62865000D01*
X73150000Y-66375000D02*
X73150000Y-64592500D01*
X71400000Y-60875000D02*
X69750000Y-59225000D01*
X47500000Y-59225000D02*
X46900000Y-58625000D01*
X69750000Y-59225000D02*
X47500000Y-59225000D01*
X71910000Y-66992500D02*
X71422500Y-66992500D01*
X76835000Y-65492500D02*
X75335000Y-66992500D01*
X75335000Y-66992500D02*
X71910000Y-66992500D01*
X76835000Y-64517500D02*
X76835000Y-65492500D01*
X69900000Y-60875000D02*
X69450000Y-60425000D01*
X45650000Y-57875000D02*
X45650000Y-58375000D01*
X69900000Y-60875000D02*
X68850000Y-59825000D01*
X47100000Y-59825000D02*
X45650000Y-58375000D01*
X68850000Y-59825000D02*
X47100000Y-59825000D01*
X118412500Y-69215000D02*
X117142500Y-70485000D01*
X83185000Y-70442500D02*
X85117500Y-72375000D01*
X83185000Y-69467500D02*
X83185000Y-70442500D01*
X85117500Y-72375000D02*
X104650000Y-72375000D01*
X115252500Y-72375000D02*
X118412500Y-69215000D01*
X107150000Y-72375000D02*
X115252500Y-72375000D01*
D20*
X121543000Y-65537499D02*
X122135900Y-65537499D01*
X118412500Y-64770000D02*
X120775501Y-64770000D01*
X120775501Y-64770000D02*
X121543000Y-65537499D01*
D21*
X117142500Y-63500000D02*
X118412500Y-64770000D01*
X114935000Y-63500000D02*
X117142500Y-63500000D01*
X105310000Y-73125000D02*
X114935000Y-63500000D01*
X84597500Y-73125000D02*
X105310000Y-73125000D01*
X81915000Y-69467500D02*
X81915000Y-70442500D01*
X81915000Y-70442500D02*
X84597500Y-73125000D01*
X37397500Y-53600000D02*
X37497500Y-53700000D01*
X37397500Y-51960000D02*
X37397500Y-53600000D01*
X36897500Y-53600000D02*
X36797500Y-53700000D01*
X36897500Y-51960000D02*
X36897500Y-53600000D01*
X36897500Y-51350000D02*
X37547500Y-50700000D01*
X36897500Y-51960000D02*
X36897500Y-51350000D01*
D19*
X22415000Y-64692500D02*
X22705000Y-64692500D01*
X20017500Y-62295000D02*
X22415000Y-64692500D01*
X22705000Y-64692500D02*
X24105000Y-64692500D01*
X20017500Y-61595000D02*
X20017500Y-62295000D01*
D23*
X35897500Y-50750000D02*
X35947500Y-50700000D01*
X35897500Y-51960000D02*
X35897500Y-50750000D01*
X38397500Y-50750000D02*
X38347500Y-50700000D01*
X38397500Y-51960000D02*
X38397500Y-50750000D01*
X35382500Y-53375000D02*
X29650000Y-53375000D01*
X24105000Y-58920000D02*
X24105000Y-64692500D01*
X35897500Y-51960000D02*
X35897500Y-52860000D01*
X29650000Y-53375000D02*
X24105000Y-58920000D01*
X35897500Y-52860000D02*
X35382500Y-53375000D01*
D22*
X38835500Y-53125000D02*
X41500000Y-53125000D01*
X38397500Y-51960000D02*
X38397500Y-52687000D01*
X38397500Y-52687000D02*
X38835500Y-53125000D01*
X42700000Y-46525000D02*
X31600000Y-46525000D01*
D21*
X29362500Y-66162500D02*
X29650000Y-65875000D01*
X29362500Y-66992500D02*
X29362500Y-66162500D01*
X46900000Y-57125000D02*
X55200000Y-57125000D01*
D20*
X122135900Y-67477500D02*
X122135900Y-68447501D01*
D21*
X78105000Y-70442500D02*
X78105000Y-69467500D01*
X77427500Y-71120000D02*
X78105000Y-70442500D01*
X71422500Y-71120000D02*
X77427500Y-71120000D01*
D22*
X28650000Y-71375000D02*
X31400000Y-74125000D01*
X31400000Y-74125000D02*
X31400000Y-77875000D01*
X36574264Y-77875000D02*
X37324264Y-77125000D01*
X36150000Y-77875000D02*
X36574264Y-77875000D01*
X37324264Y-77125000D02*
X42650000Y-77125000D01*
X42650000Y-77125000D02*
X43400000Y-77875000D01*
X43400000Y-77875000D02*
X50400000Y-77875000D01*
X54400000Y-73875000D02*
X68400000Y-73875000D01*
X68400000Y-73875000D02*
X68650000Y-73875000D01*
D20*
X292993000Y-65537499D02*
X292260501Y-64805000D01*
X293585900Y-65537499D02*
X292993000Y-65537499D01*
X292225501Y-64770000D02*
X292993000Y-65537499D01*
X289862500Y-64770000D02*
X292225501Y-64770000D01*
D21*
X81915000Y-63542500D02*
X84332500Y-61125000D01*
X81915000Y-64517500D02*
X81915000Y-63542500D01*
X286217500Y-61125000D02*
X289862500Y-64770000D01*
X84332500Y-61125000D02*
X286217500Y-61125000D01*
X38600000Y-62825000D02*
X39600000Y-61825000D01*
X39600000Y-61825000D02*
X41200000Y-61825000D01*
X41200000Y-61825000D02*
X41600000Y-62225000D01*
X41600000Y-62225000D02*
X49000000Y-62225000D01*
X49000000Y-62225000D02*
X50400000Y-63625000D01*
X50400000Y-63625000D02*
X51600000Y-63625000D01*
X51600000Y-63625000D02*
X56400000Y-68425000D01*
X56400000Y-68425000D02*
X61400000Y-68425000D01*
X61400000Y-68425000D02*
X65400000Y-68425000D01*
X65400000Y-68425000D02*
X66400000Y-68425000D01*
X66400000Y-68425000D02*
X66400000Y-68425000D01*
X68700000Y-77275000D02*
X79950000Y-77275000D01*
X79950000Y-77275000D02*
X80700000Y-78025000D01*
X80700000Y-78025000D02*
X92200000Y-78025000D01*
X92200000Y-78025000D02*
X92950000Y-77275000D01*
X92950000Y-77275000D02*
X98950000Y-77275000D01*
X98950000Y-77275000D02*
X99450000Y-77775000D01*
X99450000Y-77775000D02*
X99700000Y-78025000D01*
X99700000Y-78025000D02*
X111200000Y-78025000D01*
X111200000Y-78025000D02*
X111950000Y-77275000D01*
X111950000Y-77275000D02*
X117950000Y-77275000D01*
X117950000Y-77275000D02*
X117950000Y-77275000D01*
X117950000Y-73025000D02*
X200700000Y-73025000D01*
X205200000Y-73025000D02*
X265450000Y-73025000D01*
X265450000Y-73025000D02*
X266700000Y-71775000D01*
X266700000Y-71775000D02*
X269700000Y-71775000D01*
X269700000Y-71775000D02*
X270950000Y-73025000D01*
X270950000Y-73025000D02*
X288200000Y-73025000D01*
X288200000Y-73025000D02*
X291200000Y-70025000D01*
X293093000Y-66507500D02*
X293585900Y-66507500D01*
X291200000Y-68400500D02*
X293093000Y-66507500D01*
X291200000Y-70025000D02*
X291200000Y-68400500D01*
X39600000Y-62825000D02*
X40200000Y-62225000D01*
X40200000Y-62225000D02*
X41000000Y-62225000D01*
X41000000Y-62225000D02*
X41400000Y-62625000D01*
X41400000Y-62625000D02*
X48800000Y-62625000D01*
X48800000Y-62625000D02*
X50200000Y-64025000D01*
X50200000Y-64025000D02*
X51400000Y-64025000D01*
X51400000Y-64025000D02*
X56400000Y-69025000D01*
X56400000Y-69025000D02*
X60400000Y-69025000D01*
X60400000Y-69025000D02*
X64400000Y-69025000D01*
X64400000Y-69025000D02*
X65400000Y-69025000D01*
X65400000Y-69025000D02*
X65400000Y-69025000D01*
X67200000Y-75275000D02*
X69250000Y-75275000D01*
X69250000Y-75275000D02*
X70000000Y-74525000D01*
X70000000Y-74525000D02*
X201200000Y-74525000D01*
X201200000Y-74525000D02*
X205700000Y-70025000D01*
X207368000Y-66507500D02*
X207860900Y-66507500D01*
X205700000Y-68175500D02*
X207368000Y-66507500D01*
X205700000Y-70025000D02*
X205700000Y-68175500D01*
X40899999Y-63124999D02*
X48499999Y-63124999D01*
X40600000Y-62825000D02*
X40899999Y-63124999D01*
X48499999Y-63124999D02*
X49800000Y-64425000D01*
X49800000Y-64425000D02*
X51200000Y-64425000D01*
X51200000Y-64425000D02*
X56400000Y-69625000D01*
X56400000Y-69625000D02*
X59400000Y-69625000D01*
X59400000Y-69625000D02*
X64400000Y-69625000D01*
X121643000Y-66507500D02*
X122135900Y-66507500D01*
X64950000Y-74525000D02*
X69100000Y-74525000D01*
X69100000Y-74525000D02*
X69750000Y-73875000D01*
X69750000Y-73875000D02*
X115850000Y-73875000D01*
X119700000Y-70025000D02*
X119700000Y-68450500D01*
X115850000Y-73875000D02*
X119700000Y-70025000D01*
X119700000Y-68450500D02*
X121643000Y-66507500D01*
X35918000Y-66507500D02*
X35035500Y-65625000D01*
X36410900Y-66507500D02*
X35918000Y-66507500D01*
X35035500Y-65625000D02*
X34100000Y-65625000D01*
D22*
X39235500Y-54025000D02*
X40600000Y-54025000D01*
X37897500Y-51960000D02*
X37897500Y-52687000D01*
X37897500Y-52687000D02*
X39235500Y-54025000D01*
D20*
X32687500Y-69215000D02*
X34940000Y-66962500D01*
X34940000Y-66962500D02*
X34940000Y-66505000D01*
D21*
X37200000Y-66316300D02*
X37391200Y-66507500D01*
X80645000Y-69467500D02*
X80645000Y-70442500D01*
X37391200Y-66507500D02*
X37884100Y-66507500D01*
X37200000Y-65025000D02*
X37200000Y-66316300D01*
X80645000Y-70442500D02*
X77962500Y-73125000D01*
X77962500Y-73125000D02*
X56900000Y-73125000D01*
X56900000Y-73125000D02*
X48100000Y-64325000D01*
X48100000Y-64325000D02*
X37900000Y-64325000D01*
X37900000Y-64325000D02*
X37200000Y-65025000D01*
D20*
X35818000Y-65537499D02*
X36410900Y-65537499D01*
X32687500Y-64770000D02*
X35050501Y-64770000D01*
X35050501Y-64770000D02*
X35818000Y-65537499D01*
X36410900Y-65537499D02*
X36410900Y-65537499D01*
D21*
X36410900Y-65019199D02*
X36410900Y-65537499D01*
X79375000Y-70442500D02*
X77442500Y-72375000D01*
X79375000Y-69467500D02*
X79375000Y-70442500D01*
X77442500Y-72375000D02*
X57150000Y-72375000D01*
X49200000Y-64425000D02*
X48600000Y-63825000D01*
X57150000Y-72375000D02*
X49200000Y-64425000D01*
X36800000Y-64625000D02*
X36410900Y-65019199D01*
X37800000Y-63625000D02*
X36800000Y-64625000D01*
X49200000Y-64425000D02*
X48400000Y-63625000D01*
X48400000Y-63625000D02*
X37800000Y-63625000D01*
X83185000Y-63542500D02*
X84852500Y-61875000D01*
X83185000Y-64517500D02*
X83185000Y-63542500D01*
X84852500Y-61875000D02*
X200400000Y-61875000D01*
X200400000Y-61875000D02*
X200650000Y-61875000D01*
D24*
X207860900Y-65537499D02*
X207318000Y-65537499D01*
X206550500Y-64770000D02*
X204137500Y-64770000D01*
X206652750Y-64872250D02*
X206550500Y-64770000D01*
X207318000Y-65537499D02*
X206652750Y-64872250D01*
D21*
X84455000Y-64517500D02*
X84455000Y-63320000D01*
X84455000Y-63320000D02*
X85150000Y-62625000D01*
X201992500Y-62625000D02*
X204137500Y-64770000D01*
X85150000Y-62625000D02*
X201992500Y-62625000D01*
X80645000Y-63542500D02*
X83812500Y-60375000D01*
X80645000Y-64517500D02*
X80645000Y-63542500D01*
X83812500Y-60375000D02*
X90150000Y-60375000D01*
X90150000Y-60375000D02*
X91400000Y-60375000D01*
X91400000Y-60375000D02*
X284900000Y-60375000D01*
D20*
X36410900Y-68447501D02*
X36410900Y-67477500D01*
X207860900Y-68447501D02*
X207860900Y-67477500D01*
X293585900Y-67477500D02*
X293585900Y-68447501D01*
M02*
